<?xml version="1.0" encoding="UTF-8" standalone="no"?>
<!-- Created with Inkscape (http://www.inkscape.org/) -->
<svg
   xmlns:dc="http://purl.org/dc/elements/1.1/"
   xmlns:cc="http://web.resource.org/cc/"
   xmlns:rdf="http://www.w3.org/1999/02/22-rdf-syntax-ns#"
   xmlns:svg="http://www.w3.org/2000/svg"
   xmlns="http://www.w3.org/2000/svg"
   xmlns:xlink="http://www.w3.org/1999/xlink"
   xmlns:sodipodi="http://inkscape.sourceforge.net/DTD/sodipodi-0.dtd"
   xmlns:inkscape="http://www.inkscape.org/namespaces/inkscape"
   width="22.000000px"
   height="22.000000px"
   id="svg2"
   sodipodi:version="0.32"
   inkscape:version="0.42"
   sodipodi:docbase="/data/Desktop/icons/22x22"
   sodipodi:docname="seahorse-key.svg"
   inkscape:export-filename="/data/Desktop/icons/22x22/seahorse-key.png"
   inkscape:export-xdpi="90.000000"
   inkscape:export-ydpi="90.000000">
  <defs
     id="defs4">
    <linearGradient
       id="linearGradient2448">
      <stop
         id="stop2450"
         offset="0.0000000"
         style="stop-color:#c8a20b;stop-opacity:1.0000000;" />
      <stop
         id="stop2452"
         offset="1.0000000"
         style="stop-color:#f7e87b;stop-opacity:1.0000000" />
    </linearGradient>
    <linearGradient
       id="linearGradient2414">
      <stop
         style="stop-color:#f8e082;stop-opacity:1.0000000;"
         offset="0.0000000"
         id="stop2416" />
      <stop
         style="stop-color:#cba40d;stop-opacity:1.0000000;"
         offset="1.0000000"
         id="stop2418" />
    </linearGradient>
    <linearGradient
       id="linearGradient2390">
      <stop
         id="stop2392"
         offset="0"
         style="stop-color:#ac8b0b;stop-opacity:1;" />
      <stop
         id="stop2394"
         offset="1"
         style="stop-color:#ac8b0b;stop-opacity:0;" />
    </linearGradient>
    <linearGradient
       id="linearGradient2119">
      <stop
         style="stop-color:#d2b32a;stop-opacity:0.56730771;"
         offset="0.0000000"
         id="stop2121" />
      <stop
         id="stop2378"
         offset="0.11000000"
         style="stop-color:#ffeb3f;stop-opacity:0.72156864;" />
      <stop
         style="stop-color:#fff493;stop-opacity:0.23076923;"
         offset="1.0000000"
         id="stop2123" />
    </linearGradient>
    <linearGradient
       id="linearGradient2041">
      <stop
         style="stop-color:#d9d9d9;stop-opacity:1.0000000;"
         offset="0.0000000"
         id="stop2043" />
      <stop
         style="stop-color:#d9d9d9;stop-opacity:0;"
         offset="1"
         id="stop2045" />
    </linearGradient>
    <linearGradient
       inkscape:collect="always"
       xlink:href="#linearGradient2119"
       id="linearGradient2125"
       x1="333.57144"
       y1="459.00504"
       x2="564.28572"
       y2="459.00504"
       gradientUnits="userSpaceOnUse"
       gradientTransform="translate(0.000000,-5.103373e-6)" />
    <linearGradient
       inkscape:collect="always"
       xlink:href="#linearGradient2119"
       id="linearGradient2376"
       x1="336.15625"
       y1="504.34375"
       x2="567.00000"
       y2="504.34375"
       gradientUnits="userSpaceOnUse" />
    <radialGradient
       inkscape:collect="always"
       xlink:href="#linearGradient2414"
       id="radialGradient2412"
       cx="208.84131"
       cy="515.08179"
       fx="208.84131"
       fy="515.08179"
       r="90.000000"
       gradientTransform="matrix(1.826087,2.970972e-2,-1.529595e-2,0.987724,-166.6825,-0.415230)"
       gradientUnits="userSpaceOnUse" />
    <radialGradient
       inkscape:collect="always"
       xlink:href="#linearGradient2414"
       id="radialGradient2438"
       gradientUnits="userSpaceOnUse"
       gradientTransform="matrix(1.848149,2.978268e-2,-1.548075e-2,0.990149,-170.5172,-1.812833)"
       cx="208.84131"
       cy="515.08179"
       fx="208.84131"
       fy="515.08179"
       r="90.000000" />
    <radialGradient
       inkscape:collect="always"
       xlink:href="#linearGradient2448"
       id="radialGradient2446"
       gradientUnits="userSpaceOnUse"
       gradientTransform="matrix(1.847789,4.753482e-2,-3.481129e-2,1.394748,-160.4851,-213.9218)"
       cx="208.84131"
       cy="515.08179"
       fx="208.84131"
       fy="515.08179"
       r="90.000000" />
    <linearGradient
       inkscape:collect="always"
       xlink:href="#linearGradient2119"
       id="linearGradient2474"
       gradientUnits="userSpaceOnUse"
       gradientTransform="translate(0.000000,-5.103373e-6)"
       x1="333.57144"
       y1="459.00504"
       x2="564.28572"
       y2="459.00504" />
    <linearGradient
       inkscape:collect="always"
       xlink:href="#linearGradient2119"
       id="linearGradient2476"
       gradientUnits="userSpaceOnUse"
       x1="336.15625"
       y1="504.34375"
       x2="567.00000"
       y2="504.34375" />
    <radialGradient
       inkscape:collect="always"
       xlink:href="#linearGradient2448"
       id="radialGradient2478"
       gradientUnits="userSpaceOnUse"
       gradientTransform="matrix(1.847789,4.753482e-2,-3.481129e-2,1.394748,-160.4851,-213.9218)"
       cx="208.84131"
       cy="515.08179"
       fx="208.84131"
       fy="515.08179"
       r="90.000000" />
    <linearGradient
       inkscape:collect="always"
       xlink:href="#linearGradient2119"
       id="linearGradient2484"
       gradientUnits="userSpaceOnUse"
       x1="336.15625"
       y1="504.34375"
       x2="567.00000"
       y2="504.34375" />
    <linearGradient
       inkscape:collect="always"
       xlink:href="#linearGradient2119"
       id="linearGradient2487"
       gradientUnits="userSpaceOnUse"
       gradientTransform="translate(0.000000,-5.103373e-6)"
       x1="333.57144"
       y1="459.00504"
       x2="564.28572"
       y2="459.00504" />
    <radialGradient
       inkscape:collect="always"
       xlink:href="#linearGradient2448"
       id="radialGradient2490"
       gradientUnits="userSpaceOnUse"
       gradientTransform="matrix(1.847789,4.753482e-2,-3.481129e-2,1.394748,-160.4851,-213.9218)"
       cx="208.84131"
       cy="515.08179"
       fx="208.84131"
       fy="515.08179"
       r="90.000000" />
    <linearGradient
       inkscape:collect="always"
       xlink:href="#linearGradient2119"
       id="linearGradient2518"
       gradientUnits="userSpaceOnUse"
       gradientTransform="translate(2.713108e-14,-5.103373e-6)"
       x1="333.57144"
       y1="459.00504"
       x2="564.28572"
       y2="459.00504" />
    <linearGradient
       inkscape:collect="always"
       xlink:href="#linearGradient2119"
       id="linearGradient2520"
       gradientUnits="userSpaceOnUse"
       x1="336.15625"
       y1="504.34375"
       x2="567.00000"
       y2="504.34375" />
    <radialGradient
       inkscape:collect="always"
       xlink:href="#linearGradient2448"
       id="radialGradient2522"
       gradientUnits="userSpaceOnUse"
       gradientTransform="matrix(1.847789,4.753482e-2,-3.481129e-2,1.394748,-160.4851,-213.9218)"
       cx="208.84131"
       cy="515.08179"
       fx="208.84131"
       fy="515.08179"
       r="90.000000" />
    <linearGradient
       inkscape:collect="always"
       xlink:href="#linearGradient2119"
       id="linearGradient2574"
       gradientUnits="userSpaceOnUse"
       x1="336.15625"
       y1="504.34375"
       x2="567.00000"
       y2="504.34375"
       gradientTransform="matrix(4.409306e-2,0.000000,0.000000,4.859225e-2,-4.513441,-12.80832)" />
    <radialGradient
       inkscape:collect="always"
       xlink:href="#linearGradient2448"
       id="radialGradient2601"
       gradientUnits="userSpaceOnUse"
       gradientTransform="matrix(0.185453,4.990015e-3,-3.493835e-3,0.146415,-26.52784,-70.89360)"
       cx="208.84131"
       cy="515.08179"
       fx="208.84131"
       fy="515.08179"
       r="90.000000" />
    <radialGradient
       inkscape:collect="always"
       xlink:href="#linearGradient2448"
       id="radialGradient2609"
       gradientUnits="userSpaceOnUse"
       gradientTransform="matrix(0.185453,4.990015e-3,-3.493835e-3,0.146415,-26.52784,-50.89360)"
       cx="208.84131"
       cy="515.08179"
       fx="208.84131"
       fy="515.08179"
       r="90.000000" />
    <radialGradient
       inkscape:collect="always"
       xlink:href="#linearGradient2448"
       id="radialGradient3592"
       gradientUnits="userSpaceOnUse"
       gradientTransform="matrix(0.185453,4.990015e-3,-3.493835e-3,0.146415,-26.52784,-50.89360)"
       cx="208.84131"
       cy="515.08179"
       fx="208.84131"
       fy="515.08179"
       r="90.000000" />
  </defs>
  <sodipodi:namedview
     id="base"
     pagecolor="#ffffff"
     bordercolor="#666666"
     borderopacity="1.0000000"
     inkscape:pageopacity="0.0000000"
     inkscape:pageshadow="2"
     inkscape:zoom="1.0000000"
     inkscape:cx="11.238981"
     inkscape:cy="11.504295"
     inkscape:document-units="px"
     inkscape:current-layer="layer1"
     inkscape:window-width="1272"
     inkscape:window-height="773"
     inkscape:window-x="0"
     inkscape:window-y="102"
     showguides="true"
     inkscape:guide-bbox="true"
     showgrid="false"
     inkscape:showpageshadow="false"
     showborder="true"
     gridspacingy="1.0000000px"
     gridspacingx="1.0000000px"
     gridoriginy="0.0000000px"
     gridoriginx="0.0000000px"
     gridtolerance="0.40000000px"
     gridempspacing="10"
     inkscape:grid-points="false" />
  <metadata
     id="metadata7">
    <rdf:RDF>
      <cc:Work
         rdf:about="">
        <dc:format>image/svg+xml</dc:format>
        <dc:type
           rdf:resource="http://purl.org/dc/dcmitype/StillImage" />
        <cc:license
           rdf:resource="http://creativecommons.org/licenses/GPL/2.0/" />
      </cc:Work>
      <cc:License
         rdf:about="http://creativecommons.org/licenses/LGPL/2.1/">
        <cc:permits
           rdf:resource="http://web.resource.org/cc/Reproduction" />
        <cc:permits
           rdf:resource="http://web.resource.org/cc/Distribution" />
        <cc:requires
           rdf:resource="http://web.resource.org/cc/Notice" />
        <cc:permits
           rdf:resource="http://web.resource.org/cc/DerivativeWorks" />
        <cc:requires
           rdf:resource="http://web.resource.org/cc/ShareAlike" />
        <cc:requires
           rdf:resource="http://web.resource.org/cc/SourceCode" />
      </cc:License>
    </rdf:RDF>
  </metadata>
  <g
     inkscape:label="Layer 1"
     inkscape:groupmode="layer"
     id="layer1"
     style="display:inline">
    <path
       style="opacity:1.0000000;fill:#dabf3c;fill-opacity:1.0000000;fill-rule:evenodd;stroke:none;stroke-width:1.0000000;stroke-linecap:butt;stroke-linejoin:round;stroke-miterlimit:4.0000000;stroke-dasharray:none;stroke-opacity:1.0000000"
       d="M 6.0687706,5.5000068 C 3.5305216,5.5000068 1.4779749,7.7367848 1.4779739,10.495714 C 1.4779739,13.254643 3.5305216,15.491421 6.0687706,15.491421 C 7.9729189,15.491421 9.6049210,14.232862 10.303000,12.438489 L 11.105274,12.438489 L 12.099495,12.546543 L 12.820169,11.915510 L 15.904068,12.238044 L 16.434364,12.384990 L 16.884626,12.238044 L 17.731472,12.238044 L 18.192037,11.112468 L 18.712030,11.945086 L 19.484591,11.945086 C 19.490439,11.945086 19.495398,11.949169 19.499448,11.945086 C 19.503498,11.941002 19.514305,11.936112 19.514305,11.929667 C 19.514305,11.929667 21.000000,10.449457 21.000000,10.449457 C 21.000000,10.449457 20.405722,8.6917088 20.405722,8.6917088 L 10.273286,8.4758448 C 9.5600655,6.7193618 7.9476756,5.5000068 6.0687706,5.5000068 z M 4.2265087,8.5991958 L 4.4196489,8.5991958 C 4.9282906,8.5991958 5.3407799,9.0450178 5.3407799,9.5860018 L 5.3407799,11.174143 C 5.3407799,11.715127 4.9282906,12.145531 4.4196489,12.145531 L 4.2265087,12.145531 C 3.7178680,12.145531 3.3053787,11.715127 3.3053787,11.174143 L 3.3053787,9.5860018 C 3.3053787,9.0450178 3.7178680,8.5991958 4.2265087,8.5991958 z "
       id="path1306"
       sodipodi:nodetypes="csscccccccccccscccccccccccccc" />
    <g
       id="g3586"
       transform="matrix(0.482501,0.000000,0.000000,0.500750,-0.580480,-0.442306)">
      <path
         id="path2380"
         d="M 13.750000,12.375000 C 8.7638665,12.375000 4.7187502,16.602894 4.7187500,21.812500 C 4.7187500,27.022106 8.7638668,31.250000 13.750000,31.250000 C 18.736133,31.250000 22.781250,27.022106 22.781250,21.812500 C 22.781250,16.602894 18.736133,12.375000 13.750000,12.375000 z M 9.9062500,18.000000 L 10.312500,18.000000 C 11.382373,18.000000 12.250000,18.903567 12.250000,20.000000 L 12.250000,23.218750 C 12.250000,24.315183 11.382373,25.187500 10.312500,25.187500 L 9.9062500,25.187500 C 8.8363774,25.187500 7.9687500,24.315183 7.9687500,23.218750 L 7.9687500,20.000000 C 7.9687500,18.903567 8.8363772,18.000000 9.9062500,18.000000 z "
         style="fill:url(#radialGradient3592);fill-opacity:1.0000000;fill-rule:evenodd;stroke:none;stroke-width:0.31200001;stroke-linecap:butt;stroke-linejoin:round;stroke-miterlimit:4.0000000;stroke-opacity:1.0000000" />
      <path
         id="path2440"
         d="M 21.593750,17.156250 C 17.079155,17.492669 15.849116,19.744922 12.250000,22.187500 L 12.250000,23.218750 C 12.250000,24.315183 11.382373,25.187500 10.312500,25.187500 L 9.9062500,25.187500 C 9.2380920,25.187500 8.7214707,24.806852 8.3750000,24.281250 C 7.2850437,24.683838 6.2681979,24.885104 5.2500000,25.031250 C 6.5096603,28.658990 9.8445697,31.249999 13.750000,31.250000 C 18.736151,31.250001 22.781249,27.022118 22.781250,21.812500 C 22.781250,20.117611 22.343403,18.531564 21.593750,17.156250 z "
         style="opacity:0.45405403;fill:#c4a00f;fill-opacity:1.0000000;fill-rule:evenodd;stroke:none;stroke-width:0.31200001;stroke-linecap:butt;stroke-linejoin:round;stroke-miterlimit:4.0000000;stroke-opacity:1.0000000" />
    </g>
    <path
       style="fill:none;fill-opacity:0.94117647;fill-rule:evenodd;stroke:#ac8b0b;stroke-width:0.50000000;stroke-linecap:butt;stroke-linejoin:round;stroke-miterlimit:4.0000000;stroke-dasharray:none;stroke-opacity:1.0000000"
       d="M 4.2212106,8.6057318 L 4.4177425,8.6057318 C 4.9263840,8.6057318 5.3358677,9.0412518 5.3358677,9.5822348 L 5.3358677,11.170713 C 5.3358677,11.711696 4.9263840,12.147217 4.4177425,12.147217 L 4.2212106,12.147217 C 3.7125690,12.147217 3.3030862,11.711696 3.3030862,11.170713 L 3.3030862,9.5822348 C 3.3030862,9.0412518 3.7125690,8.6057318 4.2212106,8.6057318 z "
       id="rect2420" />
    <path
       id="path3594"
       d="M 6.0687675,5.4999998 C 3.5305204,5.4999998 1.4779753,7.7367768 1.4779744,10.495706 C 1.4779744,13.254634 3.5305213,15.491411 6.0687675,15.491411 C 7.9729142,15.491411 9.5700514,14.302584 10.268129,12.508211 L 11.105268,12.508211 L 12.238949,12.509025 L 12.778951,11.566848 L 13.975888,12.447227 L 15.178085,11.575147 L 15.918000,12.516958 L 17.110949,12.516958 L 18.436084,11.458468 L 19.016920,12.363461 L 19.551769,12.363461 C 19.557617,12.363461 19.562577,12.367544 19.566626,12.363461 C 19.570676,12.359377 19.581484,12.354487 19.581484,12.348042 C 19.581484,12.348042 20.999987,10.449449 20.999987,10.449449 C 20.999988,10.449449 20.405709,8.4825090 20.405709,8.4825090 L 10.273280,8.4758368 C 9.5600602,6.7193548 7.9476719,5.5000008 6.0687675,5.4999998 z "
       style="opacity:1.0000000;fill:none;fill-opacity:1.0000000;fill-rule:evenodd;stroke:#ac8b0b;stroke-width:0.99999940;stroke-linecap:butt;stroke-linejoin:miter;stroke-miterlimit:4.0000000;stroke-dasharray:none;stroke-opacity:1.0000000"
       sodipodi:nodetypes="csscccccccccccsccccc" />
  </g>
</svg>
