<?xml version="1.0" encoding="UTF-8" standalone="no"?>
<!-- Generator: Adobe Illustrator 9.0, SVG Export Plug-In  -->
<svg
   xmlns:dc="http://purl.org/dc/elements/1.1/"
   xmlns:cc="http://web.resource.org/cc/"
   xmlns:rdf="http://www.w3.org/1999/02/22-rdf-syntax-ns#"
   xmlns:svg="http://www.w3.org/2000/svg"
   xmlns="http://www.w3.org/2000/svg"
   xmlns:xlink="http://www.w3.org/1999/xlink"
   xmlns:sodipodi="http://inkscape.sourceforge.net/DTD/sodipodi-0.dtd"
   xmlns:inkscape="http://www.inkscape.org/namespaces/inkscape"
   sodipodi:docbase="/home/sadam/pkg/seahorse/pixmaps/22x22"
   sodipodi:docname="seahorse-sign-bad.svg"
   inkscape:version="0.43"
   sodipodi:version="0.32"
   id="svg5105"
   xml:space="preserve"
   viewBox="0 0 48 48"
   height="22"
   width="22"
   inkscape:export-filename="/home/sadam/pkg/seahorse/pixmaps/22x22/seahorse-sign-bad.png"
   inkscape:export-xdpi="44.628113"
   inkscape:export-ydpi="44.628113"
   version="1.0"><metadata
   id="metadata5189">
  <rdf:RDF>
    <cc:Work
   rdf:about="">
      <dc:format>image/svg+xml</dc:format>


      <dc:type
   rdf:resource="http://purl.org/dc/dcmitype/StillImage" />


    <dc:title>Certificate</dc:title><dc:creator><cc:Agent><dc:title>Jakub Steiner</dc:title></cc:Agent></dc:creator><dc:subject><rdf:Bag><rdf:li>certificate</rdf:li></rdf:Bag></dc:subject><cc:license
   rdf:resource="http://creativecommons.org/licenses/by-sa/2.0/" /></cc:Work>


  <cc:License
   rdf:about="http://creativecommons.org/licenses/by-sa/2.0/"><cc:permits
     rdf:resource="http://web.resource.org/cc/Reproduction" /><cc:permits
     rdf:resource="http://web.resource.org/cc/Distribution" /><cc:requires
     rdf:resource="http://web.resource.org/cc/Notice" /><cc:requires
     rdf:resource="http://web.resource.org/cc/Attribution" /><cc:permits
     rdf:resource="http://web.resource.org/cc/DerivativeWorks" /><cc:requires
     rdf:resource="http://web.resource.org/cc/ShareAlike" /></cc:License></rdf:RDF>


</metadata>


<defs
   id="defs5187"><linearGradient
   id="linearGradient6684">
  <stop
   id="stop6686"
   offset="0.0000000"
   style="stop-color:#d5dbff;stop-opacity:1.0000000;" />
  <stop
   id="stop6688"
   offset="1"
   style="stop-color:#6579ff;stop-opacity:0;" />
</linearGradient>
<linearGradient
   id="linearGradient6665">
  <stop
   style="stop-color:#000000;stop-opacity:1.0000000;"
   offset="0.0000000"
   id="stop6667" />
  <stop
   style="stop-color:#000000;stop-opacity:0.0000000;"
   offset="1.0000000"
   id="stop6669" />
</linearGradient>
<linearGradient
   id="linearGradient6625">
  <stop
   id="stop6627"
   offset="0.0000000"
   style="stop-color:#1d2349;stop-opacity:1.0000000;" />
  <stop
   style="stop-color:#4c5279;stop-opacity:1.0000000;"
   offset="0.35315102"
   id="stop6637" />
  <stop
   style="stop-color:#b3bdff;stop-opacity:1.0000000;"
   offset="0.46551725"
   id="stop6633" />
  <stop
   id="stop6635"
   offset="0.64982164"
   style="stop-color:#727cbe;stop-opacity:1.0000000;" />
  <stop
   id="stop6629"
   offset="1.0000000"
   style="stop-color:#323c7e;stop-opacity:1.0000000;" />
</linearGradient>
<linearGradient
   id="linearGradient6617">
  <stop
   id="stop6619"
   offset="0.0000000"
   style="stop-color:#ffffff;stop-opacity:0.24742268;" />
  <stop
   id="stop6621"
   offset="1"
   style="stop-color:#ffffff;stop-opacity:0;" />
</linearGradient>
<linearGradient
   id="linearGradient6604">
  <stop
   id="stop6606"
   offset="0.0000000"
   style="stop-color:#ffa196;stop-opacity:1.0000000;" />
  <stop
   id="stop6608"
   offset="1"
   style="stop-color:#ff1f06;stop-opacity:0;" />
</linearGradient>
<radialGradient
   r="13.2807"
   fy="20.971201"
   fx="28.789101"
   cy="20.971201"
   cx="28.789101"
   gradientUnits="userSpaceOnUse"
   id="radialGradient5199"
   xlink:href="#aigrd1"
   inkscape:collect="always" />


<radialGradient
   r="14.6944"
   fy="13.5444"
   fx="19.292"
   cy="13.5444"
   cx="19.292"
   gradientUnits="userSpaceOnUse"
   id="radialGradient5201"
   xlink:href="#aigrd2"
   inkscape:collect="always" />


<linearGradient
   y2="16.723101"
   x2="23.412001"
   y1="11.5991"
   x1="18.229"
   gradientUnits="userSpaceOnUse"
   id="linearGradient5203"
   xlink:href="#aigrd3"
   inkscape:collect="always" />







			<radialGradient
   gradientUnits="userSpaceOnUse"
   fy="20.971201"
   fx="28.789101"
   r="13.2807"
   cy="20.971201"
   cx="28.789101"
   id="aigrd1">
				<stop
   id="stop5115"
   style="stop-color:#E41E08"
   offset="0" />



				<stop
   id="stop5117"
   style="stop-color:#901505"
   offset="1" />



			</radialGradient>




			<radialGradient
   gradientUnits="userSpaceOnUse"
   fy="13.5444"
   fx="19.292"
   r="14.6944"
   cy="13.5444"
   cx="19.292"
   id="aigrd2">
				<stop
   id="stop5122"
   style="stop-color:#E41E08"
   offset="0" />



				<stop
   id="stop5124"
   style="stop-color:#901505"
   offset="1" />



			</radialGradient>








			<linearGradient
   y2="16.723101"
   x2="23.412001"
   y1="11.5991"
   x1="18.229"
   gradientUnits="userSpaceOnUse"
   id="aigrd3">
				<stop
   id="stop5137"
   style="stop-color:#FFFFFF"
   offset="0" />



				<stop
   id="stop5139"
   style="stop-color:#901505"
   offset="1" />



			</linearGradient>






		<linearGradient
   gradientTransform="matrix(1.135551,0,0,1.135551,-3.259995,-3.266773)"
   y2="16.723101"
   x2="23.412001"
   y1="11.5991"
   x1="18.229"
   gradientUnits="userSpaceOnUse"
   id="linearGradient5274"
   xlink:href="#aigrd3"
   inkscape:collect="always" />


<radialGradient
   gradientTransform="matrix(1.135551,0,0,1.135551,-4.540325,-2.077433)"
   r="14.6944"
   fy="13.5444"
   fx="19.292"
   cy="13.5444"
   cx="19.292"
   gradientUnits="userSpaceOnUse"
   id="radialGradient5281"
   xlink:href="#aigrd2"
   inkscape:collect="always" />














<radialGradient
   inkscape:collect="always"
   xlink:href="#aigrd2"
   id="radialGradient2113"
   gradientUnits="userSpaceOnUse"
   gradientTransform="matrix(1.40326,0,0,1.348532,-10.84526,-0.236168)"
   cx="26.887432"
   cy="20.479359"
   fx="26.887432"
   fy="20.479359"
   r="14.6944" /><radialGradient
   inkscape:collect="always"
   xlink:href="#aigrd1"
   id="radialGradient2116"
   gradientUnits="userSpaceOnUse"
   gradientTransform="matrix(1.619314,0,0,1.556159,-15.91478,-2.965822)"
   cx="28.789101"
   cy="20.971201"
   fx="28.789101"
   fy="20.971201"
   r="13.2807" /><radialGradient
   inkscape:collect="always"
   xlink:href="#linearGradient6665"
   id="radialGradient2119"
   gradientUnits="userSpaceOnUse"
   gradientTransform="matrix(1.266002,0,0,1.159183,-4.573754,1.601108)"
   cx="24.452202"
   cy="19.818913"
   fx="24.452202"
   fy="19.818913"
   r="33.156136" /><linearGradient
   inkscape:collect="always"
   xlink:href="#linearGradient6604"
   id="linearGradient2157"
   gradientUnits="userSpaceOnUse"
   gradientTransform="matrix(1.20576,0,0,1.105656,-20.39767,4.580359)"
   x1="15.338736"
   y1="5.9244628"
   x2="43.14098"
   y2="49.895073" /><linearGradient
   inkscape:collect="always"
   xlink:href="#linearGradient6617"
   id="linearGradient2174"
   gradientUnits="userSpaceOnUse"
   gradientTransform="matrix(1.271182,0,0,1.154459,-23.81672,3.643314)"
   x1="18.570419"
   y1="9.4436626"
   x2="29.957399"
   y2="22.783224" /><radialGradient
   inkscape:collect="always"
   xlink:href="#aigrd2"
   id="radialGradient2181"
   gradientUnits="userSpaceOnUse"
   gradientTransform="matrix(1.40326,0,0,1.348532,-27.34526,-0.236168)"
   cx="26.887432"
   cy="20.479359"
   fx="26.887432"
   fy="20.479359"
   r="14.6944" /><linearGradient
   inkscape:collect="always"
   xlink:href="#linearGradient6617"
   id="linearGradient2183"
   gradientUnits="userSpaceOnUse"
   gradientTransform="matrix(1.271182,0,0,1.154459,-6.316716,3.643314)"
   x1="18.570419"
   y1="9.4436626"
   x2="29.957399"
   y2="22.783224" /><linearGradient
   inkscape:collect="always"
   xlink:href="#linearGradient6604"
   id="linearGradient2189"
   gradientUnits="userSpaceOnUse"
   gradientTransform="matrix(1.20576,0,0,1.105656,-5.397669,4.580359)"
   x1="15.338736"
   y1="5.9244628"
   x2="43.14098"
   y2="49.895073" /><radialGradient
   inkscape:collect="always"
   xlink:href="#linearGradient6665"
   id="radialGradient2207"
   gradientUnits="userSpaceOnUse"
   gradientTransform="matrix(1.266002,0,0,1.159183,-19.57375,1.601108)"
   cx="24.452202"
   cy="19.818913"
   fx="24.452202"
   fy="19.818913"
   r="33.156136" /><radialGradient
   inkscape:collect="always"
   xlink:href="#aigrd1"
   id="radialGradient2209"
   gradientUnits="userSpaceOnUse"
   gradientTransform="matrix(1.619314,0,0,1.556159,-30.91478,-2.965822)"
   cx="28.789101"
   cy="20.971201"
   fx="28.789101"
   fy="20.971201"
   r="13.2807" /><linearGradient
   gradientTransform="translate(4.257198e-14,0.883885)"
   gradientUnits="userSpaceOnUse"
   y2="9.8661737"
   x2="22.169001"
   y1="34.868584"
   x1="28.107494"
   id="linearGradient3569"
   xlink:href="#linearGradient3563"
   inkscape:collect="always" /><radialGradient
   gradientUnits="userSpaceOnUse"
   gradientTransform="matrix(1.848501,-1.547102e-23,1.227926e-24,1.289078,-21.29931,-13.68176)"
   r="17.926361"
   fy="38.34853"
   fx="26.728037"
   cy="38.34853"
   cx="26.728037"
   id="radialGradient3561"
   xlink:href="#linearGradient3555"
   inkscape:collect="always" /><radialGradient
   gradientUnits="userSpaceOnUse"
   gradientTransform="matrix(1,0,0,0.184,3.813612e-14,33.97501)"
   r="22.097088"
   fy="41.63604"
   fx="24.218407"
   cy="41.63604"
   cx="24.218407"
   id="radialGradient12135"
   xlink:href="#linearGradient12129"
   inkscape:collect="always" /><linearGradient
   id="linearGradient12129"
   inkscape:collect="always"><stop
     id="stop12131"
     offset="0"
     style="stop-color:#000000;stop-opacity:1;" /><stop
     id="stop12133"
     offset="1"
     style="stop-color:#000000;stop-opacity:0;" /></linearGradient><linearGradient
   gradientTransform="matrix(1.211383,0,0,1.211383,-2.021433,0.189894)"
   y2="36.032799"
   x2="31.081301"
   y1="3.7319"
   x1="12.4873"
   gradientUnits="userSpaceOnUse"
   id="linearGradient16280"
   xlink:href="#aigrd1"
   inkscape:collect="always" /><linearGradient
   id="linearGradient2245"
   gradientUnits="userSpaceOnUse"
   x1="12.4873"
   y1="3.7319"
   x2="31.081301"
   y2="36.032799"
   style="stroke-dasharray:none;stroke-miterlimit:4.0000000;stroke-width:1.2166667"><stop
     offset="0"
     style="stop-color:#D2D2D2;stroke-dasharray:none;stroke-miterlimit:4.0000000;stroke-width:1.2166667"
     id="stop16177" /><stop
     offset="1"
     style="stop-color:#EDEDED;stroke-dasharray:none;stroke-miterlimit:4.0000000;stroke-width:1.2166667"
     id="stop16179" /></linearGradient><linearGradient
   id="linearGradient3555"><stop
     id="stop3557"
     offset="0"
     style="stop-color:#f2f2f2;stop-opacity:1;" /><stop
     id="stop3559"
     offset="1"
     style="stop-color:#d0d0d0;stop-opacity:1;" /></linearGradient><linearGradient
   id="linearGradient3563"><stop
     id="stop3565"
     offset="0"
     style="stop-color:#ffffff;stop-opacity:1;" /><stop
     id="stop3567"
     offset="1"
     style="stop-color:#939393;stop-opacity:1;" /></linearGradient><radialGradient
   inkscape:collect="always"
   xlink:href="#linearGradient3555"
   id="radialGradient2269"
   gradientUnits="userSpaceOnUse"
   gradientTransform="matrix(1.856313,-1.546947e-23,1.233115e-24,1.288949,-68.52577,-10.89218)"
   cx="26.728037"
   cy="38.34853"
   fx="26.728037"
   fy="38.34853"
   r="17.926361" /><linearGradient
   inkscape:collect="always"
   xlink:href="#linearGradient3563"
   id="linearGradient2271"
   gradientUnits="userSpaceOnUse"
   gradientTransform="matrix(1.004226,0,0,0.9999,-47.13645,3.672006)"
   x1="28.107494"
   y1="34.868584"
   x2="22.169001"
   y2="9.8661737" /><linearGradient
   inkscape:collect="always"
   xlink:href="#aigrd1"
   id="linearGradient2274"
   gradientUnits="userSpaceOnUse"
   gradientTransform="matrix(1.22507,0,0,1.216394,-49.39351,2.631247)"
   x1="12.4873"
   y1="3.7319"
   x2="31.081301"
   y2="36.032799" /></defs>


<sodipodi:namedview
   inkscape:current-layer="svg5105"
   inkscape:window-y="24"
   inkscape:window-x="16"
   inkscape:cy="28.259901"
   inkscape:cx="14.978463"
   inkscape:zoom="7.6147575"
   id="base"
   pagecolor="#ffffff"
   bordercolor="#666666"
   borderopacity="0.16470588"
   inkscape:pageopacity="0.0"
   inkscape:pageshadow="2"
   inkscape:window-width="1032"
   inkscape:window-height="729"
   inkscape:showpageshadow="false"
   showgrid="true" />



































<g
   id="g2199"
   transform="matrix(0.973377,0,0,0.974745,12.7455,4.724672)"
   inkscape:export-filename="/home/sadam/pkg/seahorse/pixmaps/22x22/seahorse-sign-bad.png"
   inkscape:export-xdpi="90.000031"
   inkscape:export-ydpi="90.000031"><path
     id="path2165"
     d="M 9.125,41.375 C 8.99525,41.086631 8.899643,40.90747 8.78125,40.59375 C 8.637525,40.212903 8.536357,39.821116 8.5,39.5 C 8.463643,39.178884 8.5171,38.936159 8.6875,38.78125 C 9.144536,38.365762 9.964421,37.840143 10.59375,37.21875 C 10.908414,36.908054 11.174723,36.547798 11.3125,36.1875 C 11.450277,35.827202 11.467,35.47115 11.28125,35.0625 C 11.187556,34.856372 10.785749,34.318967 10.4375,33.8125 C 10.089251,33.306033 9.782958,32.809939 9.90625,32.625 C 10.277726,32.067787 10.695303,31.063376 11.21875,30.65625 C 11.72439,30.262974 12.000728,29.936748 12.09375,29.65625 C 12.186772,29.375752 12.086501,29.143763 11.875,28.90625 C 11.451997,28.431224 10.523782,27.971841 9.53125,27.25 C 9.244912,27.041755 8.348345,26.45841 7.46875,25.84375 C 6.589155,25.22909 5.724033,24.556747 5.5625,24.125 C 5.663206,23.729924 6.201402,23.098951 6.6875,22.5625 C 7.173598,22.026049 7.625,21.59375 7.625,21.59375 C 8.398891,20.99321 8.613286,20.779724 8.53125,20.5625 C 8.449214,20.345276 8.071274,20.138162 7.6875,19.5625 C 7.423378,19.166317 7.40815,18.895559 7.46875,18.625 C 7.52935,18.354441 7.665249,18.067732 7.625,17.625 C 7.561774,16.929514 6.750218,16.783649 6.6875,16.09375 C 6.623693,15.39187 6.744429,14.197007 6.6875,13.15625 C 6.659035,12.635871 6.597738,12.145086 6.4375,11.78125 C 6.277262,11.417414 6.006006,11.171452 5.625,11.125 C 5.294159,10.890315 5.098421,10.4107 4.96875,10 C 4.839079,9.5893004 4.78125,9.2499998 4.78125,9.25 C 4.78125,9.25 5.373026,8.5327318 6.625,7.59375 C 7.24222,7.1308353 7.969119,6.6224842 8.46875,6.0625 C 8.657101,5.8513969 8.77232,5.6298387 8.875,5.40625 C 6.711696,5.1288968 4.848786,4.625 1.6875,4.625 C -2.537275,4.625 -2.643732,10.480636 -6.25,14.375 C -9.7453017,18.149532 -12.1875,20.283745 -12.1875,24.34375 C -12.1875,28.403755 -8.4596252,31.570147 -6.09375,33.84375 C -3.896868,35.954952 -3.816116,41.282748 -1.28125,43.71875 C 0.826121,45.743932 5.811766,42.558399 9.125,41.375 z "
     style="opacity:0.50044693;fill:url(#radialGradient2207);fill-opacity:1;fill-rule:nonzero;stroke:none;stroke-linecap:round;stroke-linejoin:round;stroke-miterlimit:4;stroke-opacity:1" /><path
     id="path2148"
     d="M 8.71875,5.6875 C 6.03265,5.5457662 4.280023,4.8124999 0.71875,4.8125 C -3.329535,4.8125 -3.450634,10.424574 -6.90625,14.15625 C -10.255536,17.773101 -12.59375,19.828352 -12.59375,23.71875 C -12.59375,27.609149 -9.0170407,30.633877 -6.75,32.8125 C -4.644892,34.835507 -4.585221,39.947013 -2.15625,42.28125 C 0.0364,44.388386 5.503495,40.601401 8.59375,39.8125 C 8.571362,39.711671 8.510495,39.592696 8.5,39.5 C 8.463643,39.178884 8.5171,38.936159 8.6875,38.78125 C 9.144536,38.365762 9.964421,37.840143 10.59375,37.21875 C 10.908414,36.908054 11.174723,36.547798 11.3125,36.1875 C 11.450277,35.827202 11.467,35.47115 11.28125,35.0625 C 11.187556,34.856372 10.785749,34.318967 10.4375,33.8125 C 10.089251,33.306033 9.782958,32.809939 9.90625,32.625 C 10.277726,32.067787 10.695303,31.063376 11.21875,30.65625 C 11.72439,30.262974 12.000728,29.936748 12.09375,29.65625 C 12.186772,29.375752 12.086501,29.143763 11.875,28.90625 C 11.451997,28.431224 10.523782,27.971841 9.53125,27.25 C 9.244912,27.041755 8.348345,26.45841 7.46875,25.84375 C 6.589155,25.22909 5.724033,24.556747 5.5625,24.125 C 5.663206,23.729924 6.201402,23.098951 6.6875,22.5625 C 7.173598,22.026049 7.625,21.59375 7.625,21.59375 C 8.398891,20.99321 8.613286,20.779724 8.53125,20.5625 C 8.449214,20.345276 8.071274,20.138162 7.6875,19.5625 C 7.423378,19.166317 7.40815,18.895559 7.46875,18.625 C 7.52935,18.354441 7.665249,18.067732 7.625,17.625 C 7.561774,16.929514 6.750218,16.783649 6.6875,16.09375 C 6.623693,15.39187 6.744429,14.197007 6.6875,13.15625 C 6.659035,12.635871 6.597738,12.145086 6.4375,11.78125 C 6.277262,11.417414 6.006006,11.171452 5.625,11.125 C 5.294159,10.890315 5.098421,10.4107 4.96875,10 C 4.839079,9.5893004 4.78125,9.2499998 4.78125,9.25 C 4.78125,9.25 5.373026,8.5327318 6.625,7.59375 C 7.24222,7.1308353 7.969119,6.6224842 8.46875,6.0625 C 8.578641,5.9393348 8.635344,5.8149661 8.71875,5.6875 z "
     style="fill:url(#radialGradient2209);fill-rule:nonzero;stroke:#4c0901;stroke-linecap:round;stroke-linejoin:round;stroke-miterlimit:4;stroke-opacity:1" /><path
     id="path2179"
     d="M 3.59375,10.1875 C -2.254889,11.813928 -6.5624997,16.967495 -6.5625,23.09375 C -6.5625,30.510678 -0.249184,36.593748 7.46875,36.59375 C 8.229718,36.59375 8.958523,36.488463 9.6875,36.375 C 9.71981,36.311999 9.787806,36.252078 9.8125,36.1875 C 9.950277,35.827202 9.967,35.47115 9.78125,35.0625 C 9.687556,34.856372 9.285749,34.318967 8.9375,33.8125 C 8.589251,33.306033 8.282958,32.809939 8.40625,32.625 C 8.777726,32.067787 9.195303,31.063376 9.71875,30.65625 C 10.22439,30.262974 10.500728,29.936748 10.59375,29.65625 C 10.686772,29.375752 10.586501,29.143763 10.375,28.90625 C 9.951997,28.431224 9.023782,27.971841 8.03125,27.25 C 7.744912,27.041755 6.848345,26.45841 5.96875,25.84375 C 5.089155,25.22909 4.224033,24.556747 4.0625,24.125 C 4.163206,23.729924 4.701402,23.098951 5.1875,22.5625 C 5.673598,22.026049 6.125,21.59375 6.125,21.59375 C 6.898891,20.99321 7.113286,20.779724 7.03125,20.5625 C 6.949214,20.345276 6.571274,20.138162 6.1875,19.5625 C 5.923378,19.166317 5.90815,18.895559 5.96875,18.625 C 6.02935,18.354441 6.165249,18.067732 6.125,17.625 C 6.061774,16.929514 5.250218,16.783649 5.1875,16.09375 C 5.123693,15.39187 5.244429,14.197007 5.1875,13.15625 C 5.159035,12.635871 5.097738,12.145086 4.9375,11.78125 C 4.777262,11.417414 4.506006,11.171452 4.125,11.125 C 3.851299,10.930847 3.725543,10.536794 3.59375,10.1875 z "
     style="fill:url(#radialGradient2181);fill-rule:nonzero;stroke:none;stroke-miterlimit:4" /><path
     id="path2172"
     d="M 3.59375,11.09375 C -1.992118,12.54428 -6.15625,17.396248 -6.15625,23.21875 C -6.15625,27.578265 -3.687722,31.262779 -0.1875,33.53125 C 3.403968,31.67364 5.217033,29.240959 6.96875,26.84375 C 6.54793,26.569122 6.103944,26.287623 5.46875,25.84375 C 4.589155,25.22909 3.724033,24.556747 3.5625,24.125 C 3.663206,23.729924 4.201402,23.098951 4.6875,22.5625 C 5.173598,22.026049 5.625,21.59375 5.625,21.59375 C 6.398891,20.99321 6.613286,20.779724 6.53125,20.5625 C 6.449214,20.345276 6.071274,20.138162 5.6875,19.5625 C 5.423378,19.166317 5.40815,18.895559 5.46875,18.625 C 5.52935,18.354441 5.665249,18.067732 5.625,17.625 C 5.561774,16.929514 4.750218,16.783649 4.6875,16.09375 C 4.623693,15.39187 4.744429,14.197007 4.6875,13.15625 C 4.659035,12.635871 4.597738,12.145086 4.4375,11.78125 C 4.277262,11.417414 4.006006,11.171452 3.625,11.125 C 3.614143,11.117299 3.604353,11.101946 3.59375,11.09375 z "
     style="opacity:1;color:#000000;fill:url(#linearGradient2174);fill-opacity:1;fill-rule:nonzero;stroke:none;stroke-width:1;stroke-linecap:round;stroke-linejoin:round;marker:none;marker-start:none;marker-mid:none;marker-end:none;stroke-miterlimit:4;stroke-dashoffset:0;stroke-opacity:1;visibility:visible;display:inline;overflow:visible" /><path
     sodipodi:nodetypes="cssssscssssssssscscsssssscscsc"
     id="path2155"
     d="M 4.9726553,6.7682298 C 3.2908813,6.5057097 3.937522,6.4999999 1.40625,6.5 C -2.280593,6.5 -2.384161,11.601498 -5.53125,15 C -8.581502,18.293928 -10.71875,20.144446 -10.71875,23.6875 C -10.71875,27.230554 -7.4396328,30.015889 -5.375,32 C -3.457842,33.842388 -3.399606,38.499169 -1.1875,40.625 C 1.024607,42.750834 4.4512788,38.380211 6.9583308,38.38021 C 7.3368088,38.096727 8.0632758,37.386718 8.4147128,37.039713 C 8.7293768,36.729017 9.174723,36.547798 9.3125,36.1875 C 9.450277,35.827202 9.467,35.47115 9.28125,35.0625 C 9.187556,34.856372 8.785749,34.318967 8.4375,33.8125 C 8.089251,33.306033 7.782958,32.809939 7.90625,32.625 C 8.277726,32.067787 8.695303,31.063376 9.21875,30.65625 C 9.72439,30.262974 10.000728,29.936748 10.09375,29.65625 C 10.186772,29.375752 8.5953969,28.473145 7.6028649,27.751304 C 7.3165269,27.543059 6.3125376,26.995522 5.4329426,26.380862 C 4.5533476,25.766202 3.724033,24.556747 3.5625,24.125 C 3.663206,23.729924 4.201402,23.098951 4.6875,22.5625 C 5.173598,22.026049 5.625,21.59375 5.625,21.59375 C 6.398891,20.99321 6.5416711,20.564879 6.4596351,20.347655 C 6.3775991,20.130431 5.730417,19.504286 5.791017,19.233727 C 5.851617,18.963168 5.8442862,18.640651 5.8040372,18.197919 C 5.7408112,17.502433 5.0008701,17.105916 4.9381521,16.416017 C 4.8743451,15.714137 5.1025035,15.056386 5.0455745,14.015629 C 5.0171095,13.49525 4.9558125,13.004465 4.7955745,12.640629 C 4.6353365,12.276793 4.3640805,12.030831 3.9830745,11.984379 C 3.6522335,11.749694 3.098421,10.4107 2.96875,10 C 2.839079,9.5893004 2.78125,9.2499998 2.78125,9.25 C 2.78125,9.25 3.1581813,8.1759616 4.4101553,7.2369798 C 4.5987213,7.0955555 4.7722223,6.9191478 4.9726553,6.7682298 z "
     style="fill:none;fill-rule:nonzero;stroke:url(#linearGradient2157);stroke-linecap:round;stroke-linejoin:round;stroke-miterlimit:4;stroke-opacity:1" /><path
     style="fill:none;fill-rule:nonzero;stroke:none;stroke-linecap:round;stroke-linejoin:round;stroke-miterlimit:4;stroke-opacity:1"
     d="M 8.71875,5.6875 C 6.03265,5.5457662 4.280023,4.8124999 0.71875,4.8125 C -3.329535,4.8125 -3.450634,10.424574 -6.90625,14.15625 C -10.255536,17.773101 -12.59375,19.828352 -12.59375,23.71875 C -12.59375,27.609149 -9.0170407,30.633877 -6.75,32.8125 C -4.644892,34.835507 -4.585221,39.947013 -2.15625,42.28125 C 0.0364,44.388386 5.503495,40.601401 8.59375,39.8125 C 8.571362,39.711671 8.510495,39.592696 8.5,39.5 C 8.463643,39.178884 8.5171,38.936159 8.6875,38.78125 C 9.144536,38.365762 9.964421,37.840143 10.59375,37.21875 C 10.908414,36.908054 11.174723,36.547798 11.3125,36.1875 C 11.450277,35.827202 11.467,35.47115 11.28125,35.0625 C 11.187556,34.856372 10.785749,34.318967 10.4375,33.8125 C 10.089251,33.306033 9.782958,32.809939 9.90625,32.625 C 10.277726,32.067787 10.695303,31.063376 11.21875,30.65625 C 11.72439,30.262974 12.000728,29.936748 12.09375,29.65625 C 12.186772,29.375752 12.086501,29.143763 11.875,28.90625 C 11.451997,28.431224 10.523782,27.971841 9.53125,27.25 C 9.244912,27.041755 8.348345,26.45841 7.46875,25.84375 C 6.589155,25.22909 5.724033,24.556747 5.5625,24.125 C 5.663206,23.729924 6.201402,23.098951 6.6875,22.5625 C 7.173598,22.026049 7.625,21.59375 7.625,21.59375 C 8.398891,20.99321 8.613286,20.779724 8.53125,20.5625 C 8.449214,20.345276 8.071274,20.138162 7.6875,19.5625 C 7.423378,19.166317 7.40815,18.895559 7.46875,18.625 C 7.52935,18.354441 7.665249,18.067732 7.625,17.625 C 7.561774,16.929514 6.750218,16.783649 6.6875,16.09375 C 6.623693,15.39187 6.744429,14.197007 6.6875,13.15625 C 6.659035,12.635871 6.597738,12.145086 6.4375,11.78125 C 6.277262,11.417414 6.006006,11.171452 5.625,11.125 C 5.294159,10.890315 5.098421,10.4107 4.96875,10 C 4.839079,9.5893004 4.78125,9.2499998 4.78125,9.25 C 4.78125,9.25 5.373026,8.5327318 6.625,7.59375 C 7.24222,7.1308353 7.969119,6.6224842 8.46875,6.0625 C 8.578641,5.9393348 8.635344,5.8149661 8.71875,5.6875 z "
     id="path2185" /></g><g
   id="g2191"
   transform="matrix(0.973377,0,0,0.974745,2.525031,4.2373)"
   inkscape:export-filename="/home/sadam/pkg/seahorse/pixmaps/22x22/seahorse-sign-bad.png"
   inkscape:export-xdpi="90.000031"
   inkscape:export-ydpi="90.000031"><path
     id="path6639"
     d="M 34.15625,4.15625 C 31.911578,4.0329714 30.423879,5.5518429 26.125,5.65625 C 25.219849,5.6782334 24.602757,5.4995544 23.875,5.40625 C 23.77232,5.6298387 23.657101,5.8513969 23.46875,6.0625 C 22.969119,6.6224842 22.24222,7.1308353 21.625,7.59375 C 20.373026,8.5327318 19.78125,9.25 19.78125,9.25 C 19.78125,9.2499998 19.839079,9.5893004 19.96875,10 C 20.098421,10.4107 20.294159,10.890315 20.625,11.125 C 21.006006,11.171452 21.277262,11.417414 21.4375,11.78125 C 21.597738,12.145086 21.659035,12.635871 21.6875,13.15625 C 21.744429,14.197007 21.623693,15.39187 21.6875,16.09375 C 21.750218,16.783649 22.561774,16.929514 22.625,17.625 C 22.665249,18.067732 22.52935,18.354441 22.46875,18.625 C 22.40815,18.895559 22.423378,19.166317 22.6875,19.5625 C 23.071274,20.138162 23.449214,20.345276 23.53125,20.5625 C 23.613286,20.779724 23.398891,20.99321 22.625,21.59375 C 22.625,21.59375 22.173598,22.026049 21.6875,22.5625 C 21.201402,23.098951 20.663206,23.729924 20.5625,24.125 C 20.724033,24.556747 21.589155,25.22909 22.46875,25.84375 C 23.348345,26.45841 24.244912,27.041755 24.53125,27.25 C 25.523782,27.971841 26.451997,28.431224 26.875,28.90625 C 27.086501,29.143763 27.186772,29.375752 27.09375,29.65625 C 27.000728,29.936748 26.72439,30.262974 26.21875,30.65625 C 25.695303,31.063376 25.277726,32.067787 24.90625,32.625 C 24.782958,32.809939 25.089251,33.306033 25.4375,33.8125 C 25.785749,34.318967 26.187556,34.856372 26.28125,35.0625 C 26.467,35.47115 26.450277,35.827202 26.3125,36.1875 C 26.174723,36.547798 25.908414,36.908054 25.59375,37.21875 C 24.964421,37.840143 24.144536,38.365762 23.6875,38.78125 C 23.5171,38.936159 23.463643,39.178884 23.5,39.5 C 23.536357,39.821116 23.637525,40.212903 23.78125,40.59375 C 23.899643,40.90747 23.99525,41.086631 24.125,41.375 C 24.797114,41.134939 25.515505,40.84375 26,40.84375 C 28.872847,40.84375 31.084025,42.524687 35.625,41.3125 C 40.209538,40.088684 38.37259,35.936505 40.0625,34.3125 C 41.752408,32.688501 46.718749,31.323303 46.71875,28.5625 C 46.71875,25.801697 44.509216,24.3901 44.46875,21.6875 C 44.397798,16.841437 41.508083,17.00581 39.875,13.375 C 38.596586,10.532721 40.498026,6.7487031 36.78125,4.9375 C 35.727359,4.4239342 34.904474,4.1973429 34.15625,4.15625 z "
     style="opacity:0.50044693;fill:url(#radialGradient2119);fill-opacity:1;fill-rule:nonzero;stroke:none;stroke-linecap:round;stroke-linejoin:round;stroke-miterlimit:4;stroke-opacity:1" /><path
     id="path5119"
     d="M 23.71875,5.6875 C 23.635344,5.8149661 23.578641,5.9393348 23.46875,6.0625 C 22.969119,6.6224842 22.24222,7.1308353 21.625,7.59375 C 20.373026,8.5327318 19.78125,9.25 19.78125,9.25 C 19.78125,9.2499998 19.839079,9.5893004 19.96875,10 C 20.098421,10.4107 20.294159,10.890315 20.625,11.125 C 21.006006,11.171452 21.277262,11.417414 21.4375,11.78125 C 21.597738,12.145086 21.659035,12.635871 21.6875,13.15625 C 21.744429,14.197007 21.623693,15.39187 21.6875,16.09375 C 21.750218,16.783649 22.561774,16.929514 22.625,17.625 C 22.665249,18.067732 22.52935,18.354441 22.46875,18.625 C 22.40815,18.895559 22.423378,19.166317 22.6875,19.5625 C 23.071274,20.138162 23.449214,20.345276 23.53125,20.5625 C 23.613286,20.779724 23.398891,20.99321 22.625,21.59375 C 22.625,21.59375 22.173598,22.026049 21.6875,22.5625 C 21.201402,23.098951 20.663206,23.729924 20.5625,24.125 C 20.724033,24.556747 21.589155,25.22909 22.46875,25.84375 C 23.348345,26.45841 24.244912,27.041755 24.53125,27.25 C 25.523782,27.971841 26.451997,28.431224 26.875,28.90625 C 27.086501,29.143763 27.186772,29.375752 27.09375,29.65625 C 27.000728,29.936748 26.72439,30.262974 26.21875,30.65625 C 25.695303,31.063376 25.277726,32.067787 24.90625,32.625 C 24.782958,32.809939 25.089251,33.306033 25.4375,33.8125 C 25.785749,34.318967 26.187556,34.856372 26.28125,35.0625 C 26.467,35.47115 26.450277,35.827202 26.3125,36.1875 C 26.174723,36.547798 25.908414,36.908054 25.59375,37.21875 C 24.964421,37.840143 24.144536,38.365762 23.6875,38.78125 C 23.5171,38.936159 23.463643,39.178884 23.5,39.5 C 23.510495,39.592696 23.571362,39.711671 23.59375,39.8125 C 23.926815,39.727473 24.357168,39.5 24.625,39.5 C 27.377834,39.5 29.492474,41.1303 33.84375,39.96875 C 38.23677,38.796059 36.505684,34.806161 38.125,33.25 C 39.744313,31.693842 44.500002,30.39547 44.5,27.75 C 44.5,25.10453 42.351272,23.745947 42.3125,21.15625 C 42.244511,16.512631 39.50236,16.697883 37.9375,13.21875 C 36.712492,10.495208 38.530259,6.86054 34.96875,5.125 C 30.929293,3.1565533 30.242394,5.6478559 24.75,5.78125 C 24.335497,5.791317 24.086079,5.7068824 23.71875,5.6875 z "
     style="fill:url(#radialGradient2116);fill-rule:nonzero;stroke:none;stroke-linecap:round;stroke-linejoin:round;stroke-miterlimit:4;stroke-opacity:1" /><path
     id="path5126"
     d="M 20.09375,10.1875 C 20.225543,10.536794 20.351299,10.930847 20.625,11.125 C 21.006006,11.171452 21.277262,11.417414 21.4375,11.78125 C 21.597738,12.145086 21.659035,12.635871 21.6875,13.15625 C 21.744429,14.197007 21.623693,15.39187 21.6875,16.09375 C 21.750218,16.783649 22.561774,16.929514 22.625,17.625 C 22.665249,18.067732 22.52935,18.354441 22.46875,18.625 C 22.40815,18.895559 22.423378,19.166317 22.6875,19.5625 C 23.071274,20.138162 23.449214,20.345276 23.53125,20.5625 C 23.613286,20.779724 23.398891,20.99321 22.625,21.59375 C 22.625,21.59375 22.173598,22.026049 21.6875,22.5625 C 21.201402,23.098951 20.663206,23.729924 20.5625,24.125 C 20.724033,24.556747 21.589155,25.22909 22.46875,25.84375 C 23.348345,26.45841 24.244912,27.041755 24.53125,27.25 C 25.523782,27.971841 26.451997,28.431224 26.875,28.90625 C 27.086501,29.143763 27.186772,29.375752 27.09375,29.65625 C 27.000728,29.936748 26.72439,30.262974 26.21875,30.65625 C 25.695303,31.063376 25.277726,32.067787 24.90625,32.625 C 24.782958,32.809939 25.089251,33.306033 25.4375,33.8125 C 25.785749,34.318967 26.187556,34.856372 26.28125,35.0625 C 26.467,35.47115 26.450277,35.827202 26.3125,36.1875 C 26.287806,36.252078 26.21981,36.311999 26.1875,36.375 C 32.851994,35.337691 38,29.779388 38,23.09375 C 38,15.676823 31.686681,9.5937497 23.96875,9.59375 C 22.625698,9.59375 21.325934,9.844846 20.09375,10.1875 z "
     style="fill:url(#radialGradient2113);fill-rule:nonzero;stroke:none;stroke-miterlimit:4" /><path
     id="path6612"
     d="M 21.09375,11.09375 C 21.104353,11.101946 21.114143,11.117299 21.125,11.125 C 21.506006,11.171452 21.777262,11.417414 21.9375,11.78125 C 22.097738,12.145086 22.159035,12.635871 22.1875,13.15625 C 22.244429,14.197007 22.123693,15.39187 22.1875,16.09375 C 22.250218,16.783649 23.061774,16.929514 23.125,17.625 C 23.165249,18.067732 23.02935,18.354441 22.96875,18.625 C 22.90815,18.895559 22.923378,19.166317 23.1875,19.5625 C 23.571274,20.138162 23.949214,20.345276 24.03125,20.5625 C 24.113286,20.779724 23.898891,20.99321 23.125,21.59375 C 23.125,21.59375 22.673598,22.026049 22.1875,22.5625 C 21.701402,23.098951 21.163206,23.729924 21.0625,24.125 C 21.224033,24.556747 22.089155,25.22909 22.96875,25.84375 C 23.603944,26.287623 24.04793,26.569122 24.46875,26.84375 C 27.081089,23.268786 29.452825,19.755066 36.59375,18.375 C 34.617774,13.803969 29.968939,10.59375 24.5,10.59375 C 23.307627,10.59375 22.19305,10.808285 21.09375,11.09375 z "
     style="opacity:1;color:#000000;fill:url(#linearGradient2183);fill-opacity:1;fill-rule:nonzero;stroke:none;stroke-width:1;stroke-linecap:round;stroke-linejoin:round;marker:none;marker-start:none;marker-mid:none;marker-end:none;stroke-miterlimit:4;stroke-dashoffset:0;stroke-opacity:1;visibility:visible;display:inline;overflow:visible" /><path
     sodipodi:nodetypes="cscscssssssscscsssssssssscsssssssc"
     id="path6600"
     d="M 22.6875,7.125 C 22.487067,7.275918 22.313566,7.4523257 22.125,7.59375 C 20.873026,8.5327318 20.28125,9.25 20.28125,9.25 C 20.28125,9.2499998 20.339079,9.5893004 20.46875,10 C 20.598421,10.4107 20.653206,10.530101 20.984047,10.764786 C 21.365053,10.811238 21.777262,11.417414 21.9375,11.78125 C 22.097738,12.145086 22.159035,12.635871 22.1875,13.15625 C 22.244429,14.197007 22.013216,16.099979 22.265807,16.31301 C 22.685208,16.666727 23.061774,16.929514 23.125,17.625 C 23.165249,18.067732 23.051172,18.360271 22.96875,18.625 C 22.845504,19.020851 23.017347,19.134994 23.281469,19.531177 C 23.665243,20.106839 24.030115,20.164456 24.03125,20.5625 C 24.032121,20.868021 23.99286,21.165486 23.218969,21.766026 C 23.218969,21.766026 22.751905,22.104356 22.265807,22.640807 C 21.779709,23.177258 21.241513,23.745585 21.0625,24.125 C 21.458955,24.47844 22.198785,25.088137 23.07838,25.702797 C 23.957975,26.317457 24.870204,26.900802 25.156542,27.109047 C 26.149074,27.830888 27.257319,28.452425 27.437646,28.843604 C 27.700336,29.413453 27.592803,29.626335 27.468458,29.938156 C 27.358996,30.212656 27.100265,30.559375 26.594625,30.952651 C 26.071178,31.359777 25.652434,32.224402 25.40625,32.625 C 25.289875,32.814368 25.589251,33.306033 25.9375,33.8125 C 26.285749,34.318967 26.687556,34.856372 26.78125,35.0625 C 26.967,35.47115 26.950277,35.827202 26.8125,36.1875 C 26.674723,36.547798 26.47106,36.9707 26.156396,37.281396 C 25.804959,37.628401 25.597666,37.84159 25.219188,38.125073 C 27.726242,38.125073 28.943466,39.589089 32.90625,38.53125 C 36.90705,37.46326 35.337761,33.823476 36.8125,32.40625 C 38.287236,30.989031 42.625,29.784275 42.625,27.375 C 42.625,24.965724 40.660311,23.733483 40.625,21.375 C 40.563082,17.145975 38.081395,17.324757 36.65625,14.15625 C 35.540615,11.675873 37.181028,8.3618364 33.9375,6.78125 C 30.258698,4.9885515 30.158264,7.253516 25.15625,7.375 C 24.172726,7.3988869 23.45526,7.2448451 22.6875,7.125 z "
     style="fill:none;fill-rule:nonzero;stroke:url(#linearGradient2189);stroke-linecap:round;stroke-linejoin:round;stroke-miterlimit:4;stroke-opacity:1" /><path
     sodipodi:nodetypes="ccssssssssc"
     style="opacity:1;fill:none;fill-rule:nonzero;stroke:#4c0901;stroke-linecap:round;stroke-linejoin:round;stroke-miterlimit:4;stroke-opacity:1"
     d="M 23.5,39.5 C 23.510495,39.592696 23.571362,39.711671 23.59375,39.8125 C 23.926815,39.727473 24.357168,39.5 24.625,39.5 C 27.377834,39.5 29.492474,41.1303 33.84375,39.96875 C 38.23677,38.796059 36.505684,34.806161 38.125,33.25 C 39.744313,31.693842 44.500002,30.39547 44.5,27.75 C 44.5,25.10453 42.351272,23.745947 42.3125,21.15625 C 42.244511,16.512631 39.50236,16.697883 37.9375,13.21875 C 36.712492,10.495208 38.530259,6.86054 34.96875,5.125 C 30.929293,3.1565533 30.242394,5.6478559 24.75,5.78125 C 24.335497,5.791317 24.176333,5.7971363 23.809004,5.7777539"
     id="path2187"
     inkscape:export-filename="/home/sadam/pkg/seahorse/pixmaps/22x22/seahorse-sign-bad.png"
     inkscape:export-xdpi="47.277191"
     inkscape:export-ydpi="47.277191" /></g></svg>