<?xml version="1.0" encoding="UTF-8" standalone="no"?>
<!-- Generator: Adobe Illustrator 9.0, SVG Export Plug-In  -->
<svg
   xmlns:dc="http://purl.org/dc/elements/1.1/"
   xmlns:cc="http://web.resource.org/cc/"
   xmlns:rdf="http://www.w3.org/1999/02/22-rdf-syntax-ns#"
   xmlns:svg="http://www.w3.org/2000/svg"
   xmlns="http://www.w3.org/2000/svg"
   xmlns:xlink="http://www.w3.org/1999/xlink"
   xmlns:sodipodi="http://inkscape.sourceforge.net/DTD/sodipodi-0.dtd"
   xmlns:inkscape="http://www.inkscape.org/namespaces/inkscape"
   sodipodi:docbase="/data/Desktop/icons/scaleable"
   sodipodi:docname="seahorse-sign-bad.svg"
   inkscape:version="0.42"
   sodipodi:version="0.32"
   id="svg5105"
   xml:space="preserve"
   viewBox="0 0 48 48"
   height="48.000000px"
   width="48.000000px"
   inkscape:export-filename="/data/Desktop/icons/scaleable/seahorse-sign-bad.png"
   inkscape:export-xdpi="90.000000"
   inkscape:export-ydpi="90.000000"><metadata
   id="metadata5189">
  <rdf:RDF>
    <cc:Work
   rdf:about="">
      <dc:format>image/svg+xml</dc:format>


      <dc:type
   rdf:resource="http://purl.org/dc/dcmitype/StillImage" />


    <dc:title>Certificate</dc:title><dc:creator><cc:Agent><dc:title>Jakub Steiner</dc:title></cc:Agent></dc:creator><dc:subject><rdf:Bag><rdf:li>certificate</rdf:li></rdf:Bag></dc:subject><cc:license
   rdf:resource="http://creativecommons.org/licenses/by-sa/2.0/" /></cc:Work>


  <cc:License
   rdf:about="http://creativecommons.org/licenses/by-sa/2.0/"><cc:permits
     rdf:resource="http://web.resource.org/cc/Reproduction" /><cc:permits
     rdf:resource="http://web.resource.org/cc/Distribution" /><cc:requires
     rdf:resource="http://web.resource.org/cc/Notice" /><cc:requires
     rdf:resource="http://web.resource.org/cc/Attribution" /><cc:permits
     rdf:resource="http://web.resource.org/cc/DerivativeWorks" /><cc:requires
     rdf:resource="http://web.resource.org/cc/ShareAlike" /></cc:License></rdf:RDF>


</metadata>


<defs
   id="defs5187"><linearGradient
   id="linearGradient6684">
  <stop
   id="stop6686"
   offset="0.0000000"
   style="stop-color:#d5dbff;stop-opacity:1.0000000;" />
  <stop
   id="stop6688"
   offset="1"
   style="stop-color:#6579ff;stop-opacity:0;" />
</linearGradient>
<linearGradient
   id="linearGradient6665">
  <stop
   style="stop-color:#000000;stop-opacity:1.0000000;"
   offset="0.0000000"
   id="stop6667" />
  <stop
   style="stop-color:#000000;stop-opacity:0.0000000;"
   offset="1.0000000"
   id="stop6669" />
</linearGradient>
<linearGradient
   id="linearGradient6625">
  <stop
   id="stop6627"
   offset="0.0000000"
   style="stop-color:#1d2349;stop-opacity:1.0000000;" />
  <stop
   style="stop-color:#4c5279;stop-opacity:1.0000000;"
   offset="0.35315102"
   id="stop6637" />
  <stop
   style="stop-color:#b3bdff;stop-opacity:1.0000000;"
   offset="0.46551725"
   id="stop6633" />
  <stop
   id="stop6635"
   offset="0.64982164"
   style="stop-color:#727cbe;stop-opacity:1.0000000;" />
  <stop
   id="stop6629"
   offset="1.0000000"
   style="stop-color:#323c7e;stop-opacity:1.0000000;" />
</linearGradient>
<linearGradient
   id="linearGradient6617">
  <stop
   id="stop6619"
   offset="0.0000000"
   style="stop-color:#ffffff;stop-opacity:0.24742268;" />
  <stop
   id="stop6621"
   offset="1"
   style="stop-color:#ffffff;stop-opacity:0;" />
</linearGradient>
<linearGradient
   id="linearGradient6604">
  <stop
   id="stop6606"
   offset="0.0000000"
   style="stop-color:#ffa196;stop-opacity:1.0000000;" />
  <stop
   id="stop6608"
   offset="1"
   style="stop-color:#ff1f06;stop-opacity:0;" />
</linearGradient>
<radialGradient
   r="13.2807"
   fy="20.9712"
   fx="28.7891"
   cy="20.9712"
   cx="28.7891"
   gradientUnits="userSpaceOnUse"
   id="radialGradient5199"
   xlink:href="#aigrd1"
   inkscape:collect="always" />


<radialGradient
   r="14.6944"
   fy="13.5444"
   fx="19.292"
   cy="13.5444"
   cx="19.292"
   gradientUnits="userSpaceOnUse"
   id="radialGradient5201"
   xlink:href="#aigrd2"
   inkscape:collect="always" />


<linearGradient
   y2="16.7231"
   x2="23.412"
   y1="11.5991"
   x1="18.229"
   gradientUnits="userSpaceOnUse"
   id="linearGradient5203"
   xlink:href="#aigrd3"
   inkscape:collect="always" />







			<radialGradient
   gradientUnits="userSpaceOnUse"
   fy="20.971201"
   fx="28.789101"
   r="13.280700"
   cy="20.971201"
   cx="28.789101"
   id="aigrd1">
				<stop
   id="stop5115"
   style="stop-color:#E41E08"
   offset="0" />



				<stop
   id="stop5117"
   style="stop-color:#901505"
   offset="1" />



			</radialGradient>




			<radialGradient
   gradientUnits="userSpaceOnUse"
   fy="13.544400"
   fx="19.292000"
   r="14.694400"
   cy="13.544400"
   cx="19.292000"
   id="aigrd2">
				<stop
   id="stop5122"
   style="stop-color:#E41E08"
   offset="0" />



				<stop
   id="stop5124"
   style="stop-color:#901505"
   offset="1" />



			</radialGradient>








			<linearGradient
   y2="16.723101"
   x2="23.412001"
   y1="11.599100"
   x1="18.229000"
   gradientUnits="userSpaceOnUse"
   id="aigrd3">
				<stop
   id="stop5137"
   style="stop-color:#FFFFFF"
   offset="0" />



				<stop
   id="stop5139"
   style="stop-color:#901505"
   offset="1" />



			</linearGradient>






		<linearGradient
   gradientTransform="matrix(1.135551,0.000000,0.000000,1.135551,-3.259995,-3.266773)"
   y2="16.7231"
   x2="23.412"
   y1="11.5991"
   x1="18.229"
   gradientUnits="userSpaceOnUse"
   id="linearGradient5274"
   xlink:href="#aigrd3"
   inkscape:collect="always" />


<radialGradient
   gradientTransform="matrix(1.135551,0.000000,0.000000,1.135551,-4.540325,-2.077433)"
   r="14.6944"
   fy="13.5444"
   fx="19.292"
   cy="13.5444"
   cx="19.292"
   gradientUnits="userSpaceOnUse"
   id="radialGradient5281"
   xlink:href="#aigrd2"
   inkscape:collect="always" />














<radialGradient
   inkscape:collect="always"
   xlink:href="#aigrd2"
   id="radialGradient2113"
   gradientUnits="userSpaceOnUse"
   gradientTransform="matrix(1.403260,0.000000,0.000000,1.348532,-10.84526,-0.236168)"
   cx="26.887432"
   cy="20.479359"
   fx="26.887432"
   fy="20.479359"
   r="14.6944" /><radialGradient
   inkscape:collect="always"
   xlink:href="#aigrd1"
   id="radialGradient2116"
   gradientUnits="userSpaceOnUse"
   gradientTransform="matrix(1.619314,0.000000,0.000000,1.556159,-15.91478,-2.965822)"
   cx="28.7891"
   cy="20.9712"
   fx="28.7891"
   fy="20.9712"
   r="13.2807" /><radialGradient
   inkscape:collect="always"
   xlink:href="#linearGradient6665"
   id="radialGradient2119"
   gradientUnits="userSpaceOnUse"
   gradientTransform="matrix(1.266002,0.000000,0.000000,1.159183,-4.573754,1.601108)"
   cx="24.452202"
   cy="19.818913"
   fx="24.452202"
   fy="19.818913"
   r="33.156136" /><linearGradient
   inkscape:collect="always"
   xlink:href="#linearGradient6604"
   id="linearGradient2157"
   gradientUnits="userSpaceOnUse"
   gradientTransform="matrix(1.205760,0.000000,0.000000,1.105656,-20.39767,4.580359)"
   x1="15.338736"
   y1="5.9244628"
   x2="43.140980"
   y2="49.895073" /><linearGradient
   inkscape:collect="always"
   xlink:href="#linearGradient6617"
   id="linearGradient2174"
   gradientUnits="userSpaceOnUse"
   gradientTransform="matrix(1.271182,0.000000,0.000000,1.154459,-23.81672,3.643314)"
   x1="18.570419"
   y1="9.4436626"
   x2="29.957399"
   y2="22.783224" /><radialGradient
   inkscape:collect="always"
   xlink:href="#aigrd2"
   id="radialGradient2181"
   gradientUnits="userSpaceOnUse"
   gradientTransform="matrix(1.403260,0.000000,0.000000,1.348532,-27.34526,-0.236168)"
   cx="26.887432"
   cy="20.479359"
   fx="26.887432"
   fy="20.479359"
   r="14.6944" /><linearGradient
   inkscape:collect="always"
   xlink:href="#linearGradient6617"
   id="linearGradient2183"
   gradientUnits="userSpaceOnUse"
   gradientTransform="matrix(1.271182,0.000000,0.000000,1.154459,-6.316716,3.643314)"
   x1="18.570419"
   y1="9.4436626"
   x2="29.957399"
   y2="22.783224" /><linearGradient
   inkscape:collect="always"
   xlink:href="#linearGradient6604"
   id="linearGradient2189"
   gradientUnits="userSpaceOnUse"
   gradientTransform="matrix(1.205760,0.000000,0.000000,1.105656,-5.397669,4.580359)"
   x1="15.338736"
   y1="5.9244628"
   x2="43.140980"
   y2="49.895073" /><radialGradient
   inkscape:collect="always"
   xlink:href="#linearGradient6665"
   id="radialGradient2207"
   gradientUnits="userSpaceOnUse"
   gradientTransform="matrix(1.266002,0.000000,0.000000,1.159183,-19.57375,1.601108)"
   cx="24.452202"
   cy="19.818913"
   fx="24.452202"
   fy="19.818913"
   r="33.156136" /><radialGradient
   inkscape:collect="always"
   xlink:href="#aigrd1"
   id="radialGradient2209"
   gradientUnits="userSpaceOnUse"
   gradientTransform="matrix(1.619314,0.000000,0.000000,1.556159,-30.91478,-2.965822)"
   cx="28.7891"
   cy="20.9712"
   fx="28.7891"
   fy="20.9712"
   r="13.2807" /><linearGradient
   gradientTransform="translate(4.257198e-14,0.883885)"
   gradientUnits="userSpaceOnUse"
   y2="9.8661737"
   x2="22.169001"
   y1="34.868584"
   x1="28.107494"
   id="linearGradient3569"
   xlink:href="#linearGradient3563"
   inkscape:collect="always" /><radialGradient
   gradientUnits="userSpaceOnUse"
   gradientTransform="matrix(1.848501,-1.547102e-23,1.227926e-24,1.289078,-21.29931,-13.68176)"
   r="17.926361"
   fy="38.34853"
   fx="26.728037"
   cy="38.34853"
   cx="26.728037"
   id="radialGradient3561"
   xlink:href="#linearGradient3555"
   inkscape:collect="always" /><radialGradient
   gradientUnits="userSpaceOnUse"
   gradientTransform="matrix(1.000000,0.000000,0.000000,0.184000,3.813612e-14,33.97501)"
   r="22.097088"
   fy="41.636040"
   fx="24.218407"
   cy="41.636040"
   cx="24.218407"
   id="radialGradient12135"
   xlink:href="#linearGradient12129"
   inkscape:collect="always" /><linearGradient
   id="linearGradient12129"
   inkscape:collect="always"><stop
     id="stop12131"
     offset="0"
     style="stop-color:#000000;stop-opacity:1;" /><stop
     id="stop12133"
     offset="1"
     style="stop-color:#000000;stop-opacity:0;" /></linearGradient><linearGradient
   gradientTransform="matrix(1.211383,0.000000,0.000000,1.211383,-2.021433,0.189894)"
   y2="36.0328"
   x2="31.0813"
   y1="3.7319"
   x1="12.4873"
   gradientUnits="userSpaceOnUse"
   id="linearGradient16280"
   xlink:href="#aigrd1"
   inkscape:collect="always" /><linearGradient
   id="linearGradient2245"
   gradientUnits="userSpaceOnUse"
   x1="12.4873"
   y1="3.7319"
   x2="31.0813"
   y2="36.0328"
   style="stroke-dasharray:none;stroke-miterlimit:4.0000000;stroke-width:1.2166667"><stop
     offset="0"
     style="stop-color:#D2D2D2;stroke-dasharray:none;stroke-miterlimit:4.0000000;stroke-width:1.2166667"
     id="stop16177" /><stop
     offset="1"
     style="stop-color:#EDEDED;stroke-dasharray:none;stroke-miterlimit:4.0000000;stroke-width:1.2166667"
     id="stop16179" /></linearGradient><linearGradient
   id="linearGradient3555"><stop
     id="stop3557"
     offset="0"
     style="stop-color:#f2f2f2;stop-opacity:1;" /><stop
     id="stop3559"
     offset="1"
     style="stop-color:#d0d0d0;stop-opacity:1;" /></linearGradient><linearGradient
   id="linearGradient3563"><stop
     id="stop3565"
     offset="0"
     style="stop-color:#ffffff;stop-opacity:1;" /><stop
     id="stop3567"
     offset="1"
     style="stop-color:#939393;stop-opacity:1;" /></linearGradient><radialGradient
   inkscape:collect="always"
   xlink:href="#linearGradient3555"
   id="radialGradient2269"
   gradientUnits="userSpaceOnUse"
   gradientTransform="matrix(1.856313,-1.546947e-23,1.233115e-24,1.288949,-68.52577,-10.89218)"
   cx="26.728037"
   cy="38.34853"
   fx="26.728037"
   fy="38.34853"
   r="17.926361" /><linearGradient
   inkscape:collect="always"
   xlink:href="#linearGradient3563"
   id="linearGradient2271"
   gradientUnits="userSpaceOnUse"
   gradientTransform="matrix(1.004226,0.000000,0.000000,0.999900,-47.13645,3.672006)"
   x1="28.107494"
   y1="34.868584"
   x2="22.169001"
   y2="9.8661737" /><linearGradient
   inkscape:collect="always"
   xlink:href="#aigrd1"
   id="linearGradient2274"
   gradientUnits="userSpaceOnUse"
   gradientTransform="matrix(1.225070,0.000000,0.000000,1.216394,-49.39351,2.631247)"
   x1="12.4873"
   y1="3.7319"
   x2="31.0813"
   y2="36.0328" /></defs>


<sodipodi:namedview
   inkscape:current-layer="svg5105"
   inkscape:window-y="43"
   inkscape:window-x="16"
   inkscape:cy="35.883932"
   inkscape:cx="-5.3843887"
   inkscape:zoom="1.0000000"
   id="base"
   pagecolor="#ffffff"
   bordercolor="#666666"
   borderopacity="0.16470588"
   inkscape:pageopacity="0.0"
   inkscape:pageshadow="2"
   inkscape:window-width="1032"
   inkscape:window-height="829"
   inkscape:showpageshadow="false" />



































<g
   id="g2199"
   transform="matrix(0.919946,0.000000,0.000000,0.921239,14.42569,2.380293)"><path
     id="path2165"
     d="M 9.1250000,41.375000 C 8.9952500,41.086631 8.8996430,40.907470 8.7812500,40.593750 C 8.6375250,40.212903 8.5363570,39.821116 8.5000000,39.500000 C 8.4636430,39.178884 8.5171000,38.936159 8.6875000,38.781250 C 9.1445360,38.365762 9.9644210,37.840143 10.593750,37.218750 C 10.908414,36.908054 11.174723,36.547798 11.312500,36.187500 C 11.450277,35.827202 11.467000,35.471150 11.281250,35.062500 C 11.187556,34.856372 10.785749,34.318967 10.437500,33.812500 C 10.089251,33.306033 9.7829580,32.809939 9.9062500,32.625000 C 10.277726,32.067787 10.695303,31.063376 11.218750,30.656250 C 11.724390,30.262974 12.000728,29.936748 12.093750,29.656250 C 12.186772,29.375752 12.086501,29.143763 11.875000,28.906250 C 11.451997,28.431224 10.523782,27.971841 9.5312500,27.250000 C 9.2449120,27.041755 8.3483450,26.458410 7.4687500,25.843750 C 6.5891550,25.229090 5.7240330,24.556747 5.5625000,24.125000 C 5.6632060,23.729924 6.2014020,23.098951 6.6875000,22.562500 C 7.1735980,22.026049 7.6250000,21.593750 7.6250000,21.593750 C 8.3988910,20.993210 8.6132860,20.779724 8.5312500,20.562500 C 8.4492140,20.345276 8.0712740,20.138162 7.6875000,19.562500 C 7.4233780,19.166317 7.4081500,18.895559 7.4687500,18.625000 C 7.5293500,18.354441 7.6652490,18.067732 7.6250000,17.625000 C 7.5617740,16.929514 6.7502180,16.783649 6.6875000,16.093750 C 6.6236930,15.391870 6.7444290,14.197007 6.6875000,13.156250 C 6.6590350,12.635871 6.5977380,12.145086 6.4375000,11.781250 C 6.2772620,11.417414 6.0060060,11.171452 5.6250000,11.125000 C 5.2941590,10.890315 5.0984210,10.410700 4.9687500,10.000000 C 4.8390790,9.5893004 4.7812500,9.2499998 4.7812500,9.2500000 C 4.7812500,9.2500000 5.3730260,8.5327318 6.6250000,7.5937500 C 7.2422200,7.1308353 7.9691190,6.6224842 8.4687500,6.0625000 C 8.6571010,5.8513969 8.7723200,5.6298387 8.8750000,5.4062500 C 6.7116960,5.1288968 4.8487860,4.6250000 1.6875000,4.6250000 C -2.5372750,4.6250000 -2.6437320,10.480636 -6.2500000,14.375000 C -9.7453017,18.149532 -12.187500,20.283745 -12.187500,24.343750 C -12.187500,28.403755 -8.4596252,31.570147 -6.0937500,33.843750 C -3.8968680,35.954952 -3.8161160,41.282748 -1.2812500,43.718750 C 0.82612100,45.743932 5.8117660,42.558399 9.1250000,41.375000 z "
     style="opacity:0.50044692;fill:url(#radialGradient2207);fill-opacity:1.0000000;fill-rule:nonzero;stroke:none;stroke-linecap:round;stroke-linejoin:round;stroke-miterlimit:4.0000000;stroke-opacity:1.0000000" /><path
     id="path2148"
     d="M 8.7187500,5.6875000 C 6.0326500,5.5457662 4.2800230,4.8124999 0.71875000,4.8125000 C -3.3295350,4.8125000 -3.4506340,10.424574 -6.9062500,14.156250 C -10.255536,17.773101 -12.593750,19.828352 -12.593750,23.718750 C -12.593750,27.609149 -9.0170407,30.633877 -6.7500000,32.812500 C -4.6448920,34.835507 -4.5852210,39.947013 -2.1562500,42.281250 C 0.036400000,44.388386 5.5034950,40.601401 8.5937500,39.812500 C 8.5713620,39.711671 8.5104950,39.592696 8.5000000,39.500000 C 8.4636430,39.178884 8.5171000,38.936159 8.6875000,38.781250 C 9.1445360,38.365762 9.9644210,37.840143 10.593750,37.218750 C 10.908414,36.908054 11.174723,36.547798 11.312500,36.187500 C 11.450277,35.827202 11.467000,35.471150 11.281250,35.062500 C 11.187556,34.856372 10.785749,34.318967 10.437500,33.812500 C 10.089251,33.306033 9.7829580,32.809939 9.9062500,32.625000 C 10.277726,32.067787 10.695303,31.063376 11.218750,30.656250 C 11.724390,30.262974 12.000728,29.936748 12.093750,29.656250 C 12.186772,29.375752 12.086501,29.143763 11.875000,28.906250 C 11.451997,28.431224 10.523782,27.971841 9.5312500,27.250000 C 9.2449120,27.041755 8.3483450,26.458410 7.4687500,25.843750 C 6.5891550,25.229090 5.7240330,24.556747 5.5625000,24.125000 C 5.6632060,23.729924 6.2014020,23.098951 6.6875000,22.562500 C 7.1735980,22.026049 7.6250000,21.593750 7.6250000,21.593750 C 8.3988910,20.993210 8.6132860,20.779724 8.5312500,20.562500 C 8.4492140,20.345276 8.0712740,20.138162 7.6875000,19.562500 C 7.4233780,19.166317 7.4081500,18.895559 7.4687500,18.625000 C 7.5293500,18.354441 7.6652490,18.067732 7.6250000,17.625000 C 7.5617740,16.929514 6.7502180,16.783649 6.6875000,16.093750 C 6.6236930,15.391870 6.7444290,14.197007 6.6875000,13.156250 C 6.6590350,12.635871 6.5977380,12.145086 6.4375000,11.781250 C 6.2772620,11.417414 6.0060060,11.171452 5.6250000,11.125000 C 5.2941590,10.890315 5.0984210,10.410700 4.9687500,10.000000 C 4.8390790,9.5893004 4.7812500,9.2499998 4.7812500,9.2500000 C 4.7812500,9.2500000 5.3730260,8.5327318 6.6250000,7.5937500 C 7.2422200,7.1308353 7.9691190,6.6224842 8.4687500,6.0625000 C 8.5786410,5.9393348 8.6353440,5.8149661 8.7187500,5.6875000 z "
     style="fill:url(#radialGradient2209);fill-rule:nonzero;stroke:#4c0901;stroke-linecap:round;stroke-linejoin:round;stroke-miterlimit:4.0000000;stroke-opacity:1.0000000" /><path
     id="path2179"
     d="M 3.5937500,10.187500 C -2.2548890,11.813928 -6.5624997,16.967495 -6.5625000,23.093750 C -6.5625000,30.510678 -0.24918400,36.593748 7.4687500,36.593750 C 8.2297180,36.593750 8.9585230,36.488463 9.6875000,36.375000 C 9.7198100,36.311999 9.7878060,36.252078 9.8125000,36.187500 C 9.9502770,35.827202 9.9670000,35.471150 9.7812500,35.062500 C 9.6875560,34.856372 9.2857490,34.318967 8.9375000,33.812500 C 8.5892510,33.306033 8.2829580,32.809939 8.4062500,32.625000 C 8.7777260,32.067787 9.1953030,31.063376 9.7187500,30.656250 C 10.224390,30.262974 10.500728,29.936748 10.593750,29.656250 C 10.686772,29.375752 10.586501,29.143763 10.375000,28.906250 C 9.9519970,28.431224 9.0237820,27.971841 8.0312500,27.250000 C 7.7449120,27.041755 6.8483450,26.458410 5.9687500,25.843750 C 5.0891550,25.229090 4.2240330,24.556747 4.0625000,24.125000 C 4.1632060,23.729924 4.7014020,23.098951 5.1875000,22.562500 C 5.6735980,22.026049 6.1250000,21.593750 6.1250000,21.593750 C 6.8988910,20.993210 7.1132860,20.779724 7.0312500,20.562500 C 6.9492140,20.345276 6.5712740,20.138162 6.1875000,19.562500 C 5.9233780,19.166317 5.9081500,18.895559 5.9687500,18.625000 C 6.0293500,18.354441 6.1652490,18.067732 6.1250000,17.625000 C 6.0617740,16.929514 5.2502180,16.783649 5.1875000,16.093750 C 5.1236930,15.391870 5.2444290,14.197007 5.1875000,13.156250 C 5.1590350,12.635871 5.0977380,12.145086 4.9375000,11.781250 C 4.7772620,11.417414 4.5060060,11.171452 4.1250000,11.125000 C 3.8512990,10.930847 3.7255430,10.536794 3.5937500,10.187500 z "
     style="fill:url(#radialGradient2181);fill-rule:nonzero;stroke:none;stroke-miterlimit:4.0000000" /><path
     id="path2172"
     d="M 3.5937500,11.093750 C -1.9921180,12.544280 -6.1562500,17.396248 -6.1562500,23.218750 C -6.1562500,27.578265 -3.6877220,31.262779 -0.18750000,33.531250 C 3.4039680,31.673640 5.2170330,29.240959 6.9687500,26.843750 C 6.5479300,26.569122 6.1039440,26.287623 5.4687500,25.843750 C 4.5891550,25.229090 3.7240330,24.556747 3.5625000,24.125000 C 3.6632060,23.729924 4.2014020,23.098951 4.6875000,22.562500 C 5.1735980,22.026049 5.6250000,21.593750 5.6250000,21.593750 C 6.3988910,20.993210 6.6132860,20.779724 6.5312500,20.562500 C 6.4492140,20.345276 6.0712740,20.138162 5.6875000,19.562500 C 5.4233780,19.166317 5.4081500,18.895559 5.4687500,18.625000 C 5.5293500,18.354441 5.6652490,18.067732 5.6250000,17.625000 C 5.5617740,16.929514 4.7502180,16.783649 4.6875000,16.093750 C 4.6236930,15.391870 4.7444290,14.197007 4.6875000,13.156250 C 4.6590350,12.635871 4.5977380,12.145086 4.4375000,11.781250 C 4.2772620,11.417414 4.0060060,11.171452 3.6250000,11.125000 C 3.6141430,11.117299 3.6043530,11.101946 3.5937500,11.093750 z "
     style="opacity:1.0000000;color:#000000;fill:url(#linearGradient2174);fill-opacity:1.0000000;fill-rule:nonzero;stroke:none;stroke-width:1.0000000;stroke-linecap:round;stroke-linejoin:round;marker:none;marker-start:none;marker-mid:none;marker-end:none;stroke-miterlimit:4.0000000;stroke-dashoffset:0.0000000;stroke-opacity:1.0000000;visibility:visible;display:inline;overflow:visible" /><path
     sodipodi:nodetypes="cssssscssssssssscscsssssscscsc"
     id="path2155"
     d="M 4.9726553,6.7682298 C 3.2908813,6.5057097 3.9375220,6.4999999 1.4062500,6.5000000 C -2.2805930,6.5000000 -2.3841610,11.601498 -5.5312500,15.000000 C -8.5815020,18.293928 -10.718750,20.144446 -10.718750,23.687500 C -10.718750,27.230554 -7.4396328,30.015889 -5.3750000,32.000000 C -3.4578420,33.842388 -3.3996060,38.499169 -1.1875000,40.625000 C 1.0246070,42.750834 4.4512788,38.380211 6.9583308,38.380210 C 7.3368088,38.096727 8.0632758,37.386718 8.4147128,37.039713 C 8.7293768,36.729017 9.1747230,36.547798 9.3125000,36.187500 C 9.4502770,35.827202 9.4670000,35.471150 9.2812500,35.062500 C 9.1875560,34.856372 8.7857490,34.318967 8.4375000,33.812500 C 8.0892510,33.306033 7.7829580,32.809939 7.9062500,32.625000 C 8.2777260,32.067787 8.6953030,31.063376 9.2187500,30.656250 C 9.7243900,30.262974 10.000728,29.936748 10.093750,29.656250 C 10.186772,29.375752 8.5953969,28.473145 7.6028649,27.751304 C 7.3165269,27.543059 6.3125376,26.995522 5.4329426,26.380862 C 4.5533476,25.766202 3.7240330,24.556747 3.5625000,24.125000 C 3.6632060,23.729924 4.2014020,23.098951 4.6875000,22.562500 C 5.1735980,22.026049 5.6250000,21.593750 5.6250000,21.593750 C 6.3988910,20.993210 6.5416711,20.564879 6.4596351,20.347655 C 6.3775991,20.130431 5.7304170,19.504286 5.7910170,19.233727 C 5.8516170,18.963168 5.8442862,18.640651 5.8040372,18.197919 C 5.7408112,17.502433 5.0008701,17.105916 4.9381521,16.416017 C 4.8743451,15.714137 5.1025035,15.056386 5.0455745,14.015629 C 5.0171095,13.495250 4.9558125,13.004465 4.7955745,12.640629 C 4.6353365,12.276793 4.3640805,12.030831 3.9830745,11.984379 C 3.6522335,11.749694 3.0984210,10.410700 2.9687500,10.000000 C 2.8390790,9.5893004 2.7812500,9.2499998 2.7812500,9.2500000 C 2.7812500,9.2500000 3.1581813,8.1759616 4.4101553,7.2369798 C 4.5987213,7.0955555 4.7722223,6.9191478 4.9726553,6.7682298 z "
     style="fill:none;fill-rule:nonzero;stroke:url(#linearGradient2157);stroke-linecap:round;stroke-linejoin:round;stroke-miterlimit:4.0000000;stroke-opacity:1.0000000" /><path
     style="fill:none;fill-rule:nonzero;stroke:none;stroke-linecap:round;stroke-linejoin:round;stroke-miterlimit:4.0000000;stroke-opacity:1.0000000"
     d="M 8.7187500,5.6875000 C 6.0326500,5.5457662 4.2800230,4.8124999 0.71875000,4.8125000 C -3.3295350,4.8125000 -3.4506340,10.424574 -6.9062500,14.156250 C -10.255536,17.773101 -12.593750,19.828352 -12.593750,23.718750 C -12.593750,27.609149 -9.0170407,30.633877 -6.7500000,32.812500 C -4.6448920,34.835507 -4.5852210,39.947013 -2.1562500,42.281250 C 0.036400000,44.388386 5.5034950,40.601401 8.5937500,39.812500 C 8.5713620,39.711671 8.5104950,39.592696 8.5000000,39.500000 C 8.4636430,39.178884 8.5171000,38.936159 8.6875000,38.781250 C 9.1445360,38.365762 9.9644210,37.840143 10.593750,37.218750 C 10.908414,36.908054 11.174723,36.547798 11.312500,36.187500 C 11.450277,35.827202 11.467000,35.471150 11.281250,35.062500 C 11.187556,34.856372 10.785749,34.318967 10.437500,33.812500 C 10.089251,33.306033 9.7829580,32.809939 9.9062500,32.625000 C 10.277726,32.067787 10.695303,31.063376 11.218750,30.656250 C 11.724390,30.262974 12.000728,29.936748 12.093750,29.656250 C 12.186772,29.375752 12.086501,29.143763 11.875000,28.906250 C 11.451997,28.431224 10.523782,27.971841 9.5312500,27.250000 C 9.2449120,27.041755 8.3483450,26.458410 7.4687500,25.843750 C 6.5891550,25.229090 5.7240330,24.556747 5.5625000,24.125000 C 5.6632060,23.729924 6.2014020,23.098951 6.6875000,22.562500 C 7.1735980,22.026049 7.6250000,21.593750 7.6250000,21.593750 C 8.3988910,20.993210 8.6132860,20.779724 8.5312500,20.562500 C 8.4492140,20.345276 8.0712740,20.138162 7.6875000,19.562500 C 7.4233780,19.166317 7.4081500,18.895559 7.4687500,18.625000 C 7.5293500,18.354441 7.6652490,18.067732 7.6250000,17.625000 C 7.5617740,16.929514 6.7502180,16.783649 6.6875000,16.093750 C 6.6236930,15.391870 6.7444290,14.197007 6.6875000,13.156250 C 6.6590350,12.635871 6.5977380,12.145086 6.4375000,11.781250 C 6.2772620,11.417414 6.0060060,11.171452 5.6250000,11.125000 C 5.2941590,10.890315 5.0984210,10.410700 4.9687500,10.000000 C 4.8390790,9.5893004 4.7812500,9.2499998 4.7812500,9.2500000 C 4.7812500,9.2500000 5.3730260,8.5327318 6.6250000,7.5937500 C 7.2422200,7.1308353 7.9691190,6.6224842 8.4687500,6.0625000 C 8.5786410,5.9393348 8.6353440,5.8149661 8.7187500,5.6875000 z "
     id="path2185" /></g><g
   id="g2191"
   transform="matrix(0.919946,0.000000,0.000000,0.921239,4.766256,1.919674)"><path
     id="path6639"
     d="M 34.156250,4.1562500 C 31.911578,4.0329714 30.423879,5.5518429 26.125000,5.6562500 C 25.219849,5.6782334 24.602757,5.4995544 23.875000,5.4062500 C 23.772320,5.6298387 23.657101,5.8513969 23.468750,6.0625000 C 22.969119,6.6224842 22.242220,7.1308353 21.625000,7.5937500 C 20.373026,8.5327318 19.781250,9.2500000 19.781250,9.2500000 C 19.781250,9.2499998 19.839079,9.5893004 19.968750,10.000000 C 20.098421,10.410700 20.294159,10.890315 20.625000,11.125000 C 21.006006,11.171452 21.277262,11.417414 21.437500,11.781250 C 21.597738,12.145086 21.659035,12.635871 21.687500,13.156250 C 21.744429,14.197007 21.623693,15.391870 21.687500,16.093750 C 21.750218,16.783649 22.561774,16.929514 22.625000,17.625000 C 22.665249,18.067732 22.529350,18.354441 22.468750,18.625000 C 22.408150,18.895559 22.423378,19.166317 22.687500,19.562500 C 23.071274,20.138162 23.449214,20.345276 23.531250,20.562500 C 23.613286,20.779724 23.398891,20.993210 22.625000,21.593750 C 22.625000,21.593750 22.173598,22.026049 21.687500,22.562500 C 21.201402,23.098951 20.663206,23.729924 20.562500,24.125000 C 20.724033,24.556747 21.589155,25.229090 22.468750,25.843750 C 23.348345,26.458410 24.244912,27.041755 24.531250,27.250000 C 25.523782,27.971841 26.451997,28.431224 26.875000,28.906250 C 27.086501,29.143763 27.186772,29.375752 27.093750,29.656250 C 27.000728,29.936748 26.724390,30.262974 26.218750,30.656250 C 25.695303,31.063376 25.277726,32.067787 24.906250,32.625000 C 24.782958,32.809939 25.089251,33.306033 25.437500,33.812500 C 25.785749,34.318967 26.187556,34.856372 26.281250,35.062500 C 26.467000,35.471150 26.450277,35.827202 26.312500,36.187500 C 26.174723,36.547798 25.908414,36.908054 25.593750,37.218750 C 24.964421,37.840143 24.144536,38.365762 23.687500,38.781250 C 23.517100,38.936159 23.463643,39.178884 23.500000,39.500000 C 23.536357,39.821116 23.637525,40.212903 23.781250,40.593750 C 23.899643,40.907470 23.995250,41.086631 24.125000,41.375000 C 24.797114,41.134939 25.515505,40.843750 26.000000,40.843750 C 28.872847,40.843750 31.084025,42.524687 35.625000,41.312500 C 40.209538,40.088684 38.372590,35.936505 40.062500,34.312500 C 41.752408,32.688501 46.718749,31.323303 46.718750,28.562500 C 46.718750,25.801697 44.509216,24.390100 44.468750,21.687500 C 44.397798,16.841437 41.508083,17.005810 39.875000,13.375000 C 38.596586,10.532721 40.498026,6.7487031 36.781250,4.9375000 C 35.727359,4.4239342 34.904474,4.1973429 34.156250,4.1562500 z "
     style="opacity:0.50044692;fill:url(#radialGradient2119);fill-opacity:1.0000000;fill-rule:nonzero;stroke:none;stroke-linecap:round;stroke-linejoin:round;stroke-miterlimit:4.0000000;stroke-opacity:1.0000000" /><path
     id="path5119"
     d="M 23.718750,5.6875000 C 23.635344,5.8149661 23.578641,5.9393348 23.468750,6.0625000 C 22.969119,6.6224842 22.242220,7.1308353 21.625000,7.5937500 C 20.373026,8.5327318 19.781250,9.2500000 19.781250,9.2500000 C 19.781250,9.2499998 19.839079,9.5893004 19.968750,10.000000 C 20.098421,10.410700 20.294159,10.890315 20.625000,11.125000 C 21.006006,11.171452 21.277262,11.417414 21.437500,11.781250 C 21.597738,12.145086 21.659035,12.635871 21.687500,13.156250 C 21.744429,14.197007 21.623693,15.391870 21.687500,16.093750 C 21.750218,16.783649 22.561774,16.929514 22.625000,17.625000 C 22.665249,18.067732 22.529350,18.354441 22.468750,18.625000 C 22.408150,18.895559 22.423378,19.166317 22.687500,19.562500 C 23.071274,20.138162 23.449214,20.345276 23.531250,20.562500 C 23.613286,20.779724 23.398891,20.993210 22.625000,21.593750 C 22.625000,21.593750 22.173598,22.026049 21.687500,22.562500 C 21.201402,23.098951 20.663206,23.729924 20.562500,24.125000 C 20.724033,24.556747 21.589155,25.229090 22.468750,25.843750 C 23.348345,26.458410 24.244912,27.041755 24.531250,27.250000 C 25.523782,27.971841 26.451997,28.431224 26.875000,28.906250 C 27.086501,29.143763 27.186772,29.375752 27.093750,29.656250 C 27.000728,29.936748 26.724390,30.262974 26.218750,30.656250 C 25.695303,31.063376 25.277726,32.067787 24.906250,32.625000 C 24.782958,32.809939 25.089251,33.306033 25.437500,33.812500 C 25.785749,34.318967 26.187556,34.856372 26.281250,35.062500 C 26.467000,35.471150 26.450277,35.827202 26.312500,36.187500 C 26.174723,36.547798 25.908414,36.908054 25.593750,37.218750 C 24.964421,37.840143 24.144536,38.365762 23.687500,38.781250 C 23.517100,38.936159 23.463643,39.178884 23.500000,39.500000 C 23.510495,39.592696 23.571362,39.711671 23.593750,39.812500 C 23.926815,39.727473 24.357168,39.500000 24.625000,39.500000 C 27.377834,39.500000 29.492474,41.130300 33.843750,39.968750 C 38.236770,38.796059 36.505684,34.806161 38.125000,33.250000 C 39.744313,31.693842 44.500002,30.395470 44.500000,27.750000 C 44.500000,25.104530 42.351272,23.745947 42.312500,21.156250 C 42.244511,16.512631 39.502360,16.697883 37.937500,13.218750 C 36.712492,10.495208 38.530259,6.8605400 34.968750,5.1250000 C 30.929293,3.1565533 30.242394,5.6478559 24.750000,5.7812500 C 24.335497,5.7913170 24.086079,5.7068824 23.718750,5.6875000 z "
     style="fill:url(#radialGradient2116);fill-rule:nonzero;stroke:none;stroke-linecap:round;stroke-linejoin:round;stroke-miterlimit:4.0000000;stroke-opacity:1.0000000" /><path
     id="path5126"
     d="M 20.093750,10.187500 C 20.225543,10.536794 20.351299,10.930847 20.625000,11.125000 C 21.006006,11.171452 21.277262,11.417414 21.437500,11.781250 C 21.597738,12.145086 21.659035,12.635871 21.687500,13.156250 C 21.744429,14.197007 21.623693,15.391870 21.687500,16.093750 C 21.750218,16.783649 22.561774,16.929514 22.625000,17.625000 C 22.665249,18.067732 22.529350,18.354441 22.468750,18.625000 C 22.408150,18.895559 22.423378,19.166317 22.687500,19.562500 C 23.071274,20.138162 23.449214,20.345276 23.531250,20.562500 C 23.613286,20.779724 23.398891,20.993210 22.625000,21.593750 C 22.625000,21.593750 22.173598,22.026049 21.687500,22.562500 C 21.201402,23.098951 20.663206,23.729924 20.562500,24.125000 C 20.724033,24.556747 21.589155,25.229090 22.468750,25.843750 C 23.348345,26.458410 24.244912,27.041755 24.531250,27.250000 C 25.523782,27.971841 26.451997,28.431224 26.875000,28.906250 C 27.086501,29.143763 27.186772,29.375752 27.093750,29.656250 C 27.000728,29.936748 26.724390,30.262974 26.218750,30.656250 C 25.695303,31.063376 25.277726,32.067787 24.906250,32.625000 C 24.782958,32.809939 25.089251,33.306033 25.437500,33.812500 C 25.785749,34.318967 26.187556,34.856372 26.281250,35.062500 C 26.467000,35.471150 26.450277,35.827202 26.312500,36.187500 C 26.287806,36.252078 26.219810,36.311999 26.187500,36.375000 C 32.851994,35.337691 38.000000,29.779388 38.000000,23.093750 C 38.000000,15.676823 31.686681,9.5937497 23.968750,9.5937500 C 22.625698,9.5937500 21.325934,9.8448460 20.093750,10.187500 z "
     style="fill:url(#radialGradient2113);fill-rule:nonzero;stroke:none;stroke-miterlimit:4.0000000" /><path
     id="path6612"
     d="M 21.093750,11.093750 C 21.104353,11.101946 21.114143,11.117299 21.125000,11.125000 C 21.506006,11.171452 21.777262,11.417414 21.937500,11.781250 C 22.097738,12.145086 22.159035,12.635871 22.187500,13.156250 C 22.244429,14.197007 22.123693,15.391870 22.187500,16.093750 C 22.250218,16.783649 23.061774,16.929514 23.125000,17.625000 C 23.165249,18.067732 23.029350,18.354441 22.968750,18.625000 C 22.908150,18.895559 22.923378,19.166317 23.187500,19.562500 C 23.571274,20.138162 23.949214,20.345276 24.031250,20.562500 C 24.113286,20.779724 23.898891,20.993210 23.125000,21.593750 C 23.125000,21.593750 22.673598,22.026049 22.187500,22.562500 C 21.701402,23.098951 21.163206,23.729924 21.062500,24.125000 C 21.224033,24.556747 22.089155,25.229090 22.968750,25.843750 C 23.603944,26.287623 24.047930,26.569122 24.468750,26.843750 C 27.081089,23.268786 29.452825,19.755066 36.593750,18.375000 C 34.617774,13.803969 29.968939,10.593750 24.500000,10.593750 C 23.307627,10.593750 22.193050,10.808285 21.093750,11.093750 z "
     style="opacity:1.0000000;color:#000000;fill:url(#linearGradient2183);fill-opacity:1.0000000;fill-rule:nonzero;stroke:none;stroke-width:1.0000000;stroke-linecap:round;stroke-linejoin:round;marker:none;marker-start:none;marker-mid:none;marker-end:none;stroke-miterlimit:4.0000000;stroke-dashoffset:0.0000000;stroke-opacity:1.0000000;visibility:visible;display:inline;overflow:visible" /><path
     sodipodi:nodetypes="cscscssssssscscsssssssssscsssssssc"
     id="path6600"
     d="M 22.687500,7.1250000 C 22.487067,7.2759180 22.313566,7.4523257 22.125000,7.5937500 C 20.873026,8.5327318 20.281250,9.2500000 20.281250,9.2500000 C 20.281250,9.2499998 20.339079,9.5893004 20.468750,10.000000 C 20.598421,10.410700 20.653206,10.530101 20.984047,10.764786 C 21.365053,10.811238 21.777262,11.417414 21.937500,11.781250 C 22.097738,12.145086 22.159035,12.635871 22.187500,13.156250 C 22.244429,14.197007 22.013216,16.099979 22.265807,16.313010 C 22.685208,16.666727 23.061774,16.929514 23.125000,17.625000 C 23.165249,18.067732 23.051172,18.360271 22.968750,18.625000 C 22.845504,19.020851 23.017347,19.134994 23.281469,19.531177 C 23.665243,20.106839 24.030115,20.164456 24.031250,20.562500 C 24.032121,20.868021 23.992860,21.165486 23.218969,21.766026 C 23.218969,21.766026 22.751905,22.104356 22.265807,22.640807 C 21.779709,23.177258 21.241513,23.745585 21.062500,24.125000 C 21.458955,24.478440 22.198785,25.088137 23.078380,25.702797 C 23.957975,26.317457 24.870204,26.900802 25.156542,27.109047 C 26.149074,27.830888 27.257319,28.452425 27.437646,28.843604 C 27.700336,29.413453 27.592803,29.626335 27.468458,29.938156 C 27.358996,30.212656 27.100265,30.559375 26.594625,30.952651 C 26.071178,31.359777 25.652434,32.224402 25.406250,32.625000 C 25.289875,32.814368 25.589251,33.306033 25.937500,33.812500 C 26.285749,34.318967 26.687556,34.856372 26.781250,35.062500 C 26.967000,35.471150 26.950277,35.827202 26.812500,36.187500 C 26.674723,36.547798 26.471060,36.970700 26.156396,37.281396 C 25.804959,37.628401 25.597666,37.841590 25.219188,38.125073 C 27.726242,38.125073 28.943466,39.589089 32.906250,38.531250 C 36.907050,37.463260 35.337761,33.823476 36.812500,32.406250 C 38.287236,30.989031 42.625000,29.784275 42.625000,27.375000 C 42.625000,24.965724 40.660311,23.733483 40.625000,21.375000 C 40.563082,17.145975 38.081395,17.324757 36.656250,14.156250 C 35.540615,11.675873 37.181028,8.3618364 33.937500,6.7812500 C 30.258698,4.9885515 30.158264,7.2535160 25.156250,7.3750000 C 24.172726,7.3988869 23.455260,7.2448451 22.687500,7.1250000 z "
     style="fill:none;fill-rule:nonzero;stroke:url(#linearGradient2189);stroke-linecap:round;stroke-linejoin:round;stroke-miterlimit:4.0000000;stroke-opacity:1.0000000" /><path
     sodipodi:nodetypes="ccssssssssc"
     style="opacity:1.0000000;fill:none;fill-rule:nonzero;stroke:#4c0901;stroke-linecap:round;stroke-linejoin:round;stroke-miterlimit:4.0000000;stroke-opacity:1.0000000"
     d="M 23.500000,39.500000 C 23.510495,39.592696 23.571362,39.711671 23.593750,39.812500 C 23.926815,39.727473 24.357168,39.500000 24.625000,39.500000 C 27.377834,39.500000 29.492474,41.130300 33.843750,39.968750 C 38.236770,38.796059 36.505684,34.806161 38.125000,33.250000 C 39.744313,31.693842 44.500002,30.395470 44.500000,27.750000 C 44.500000,25.104530 42.351272,23.745947 42.312500,21.156250 C 42.244511,16.512631 39.502360,16.697883 37.937500,13.218750 C 36.712492,10.495208 38.530259,6.8605400 34.968750,5.1250000 C 30.929293,3.1565533 30.242394,5.6478559 24.750000,5.7812500 C 24.335497,5.7913170 24.176333,5.7971363 23.809004,5.7777539"
     id="path2187" /></g><rect
   style="opacity:1.0000000;fill:#ffffff;fill-opacity:1.0000000;fill-rule:evenodd;stroke:#000000;stroke-width:0.71557772;stroke-linecap:round;stroke-linejoin:round;stroke-miterlimit:4.0000000;stroke-dasharray:none;stroke-opacity:1.0000000"
   id="rect2277"
   width="13.855488"
   height="13.432206"
   x="17.145138"
   y="17.345533"
   ry="0.67161036"
   rx="0.70560360" /><g
   id="g3551"
   transform="matrix(0.447735,0.000000,0.000000,0.502511,15.79377,15.65766)"
   inkscape:r_cx="true"
   inkscape:r_cy="true"><path
     d="M 11.318692,9.2240568 C 16.641997,14.693047 22.769247,19.123651 29.210664,22.931105 L 27.441568,24.159843 C 21.101863,20.044890 15.052508,15.498993 9.1840818,10.652117 L 11.318692,9.2240568 z "
     id="path2565"
     style="opacity:1.0000000;color:#000000;fill:#cc0000;fill-opacity:1.0000000;fill-rule:nonzero;stroke:#cc0000;stroke-width:2.6402166;stroke-linecap:round;stroke-linejoin:round;marker:none;marker-start:none;marker-mid:none;marker-end:none;stroke-miterlimit:4.0000000;stroke-dasharray:none;stroke-dashoffset:0.0000000;stroke-opacity:1.0000000;visibility:visible;display:inline;overflow:visible"
     inkscape:r_cx="true"
     inkscape:r_cy="true" /><path
     d="M 26.738920,8.9210568 C 21.867631,15.952550 15.247359,21.081199 7.9065151,25.281630 L 10.087564,23.520856 C 8.7241111,24.379297 25.574485,11.804168 23.852075,10.207903 L 26.738920,8.9210568 z "
     id="path2575"
     style="opacity:1.0000000;color:#000000;fill:#cc0000;fill-opacity:1.0000000;fill-rule:nonzero;stroke:#cc0000;stroke-width:3.4853635;stroke-linecap:round;stroke-linejoin:round;marker:none;marker-start:none;marker-mid:none;marker-end:none;stroke-miterlimit:4.0000000;stroke-dasharray:none;stroke-dashoffset:0.0000000;stroke-opacity:1.0000000;visibility:visible;display:inline;overflow:visible"
     inkscape:r_cx="true"
     inkscape:r_cy="true" /></g></svg>