<?xml version="1.0" encoding="UTF-8" standalone="no"?>
<!-- Created with Inkscape (http://www.inkscape.org/) -->
<svg
   xmlns:dc="http://purl.org/dc/elements/1.1/"
   xmlns:cc="http://web.resource.org/cc/"
   xmlns:rdf="http://www.w3.org/1999/02/22-rdf-syntax-ns#"
   xmlns:svg="http://www.w3.org/2000/svg"
   xmlns="http://www.w3.org/2000/svg"
   xmlns:xlink="http://www.w3.org/1999/xlink"
   xmlns:sodipodi="http://inkscape.sourceforge.net/DTD/sodipodi-0.dtd"
   xmlns:inkscape="http://www.inkscape.org/namespaces/inkscape"
   width="48px"
   height="48px"
   id="svg12360"
   sodipodi:version="0.32"
   inkscape:version="0.42"
   sodipodi:docbase="/data/Desktop/icons/scaleable"
   sodipodi:docname="seahorse-applet-key.svg"
   inkscape:export-filename="/data/Desktop/icons/scaleable/seahorse-applet-key.png"
   inkscape:export-xdpi="90.000000"
   inkscape:export-ydpi="90.000000">
  <defs
     id="defs12362">
    <linearGradient
       inkscape:collect="always"
       id="linearGradient2259">
      <stop
         style="stop-color:#ffffff;stop-opacity:1;"
         offset="0"
         id="stop2261" />
      <stop
         style="stop-color:#ffffff;stop-opacity:0;"
         offset="1"
         id="stop2263" />
    </linearGradient>
    <linearGradient
       inkscape:collect="always"
       id="linearGradient2251">
      <stop
         style="stop-color:#ffffff;stop-opacity:1;"
         offset="0"
         id="stop2253" />
      <stop
         style="stop-color:#ffffff;stop-opacity:0;"
         offset="1"
         id="stop2255" />
    </linearGradient>
    <linearGradient
       inkscape:collect="always"
       id="linearGradient2239">
      <stop
         style="stop-color:#ffffff;stop-opacity:1;"
         offset="0"
         id="stop2241" />
      <stop
         style="stop-color:#ffffff;stop-opacity:0;"
         offset="1"
         id="stop2243" />
    </linearGradient>
    <linearGradient
       id="linearGradient2224">
      <stop
         style="stop-color:#7c7c7c;stop-opacity:1;"
         offset="0"
         id="stop2226" />
      <stop
         style="stop-color:#b8b8b8;stop-opacity:1;"
         offset="1"
         id="stop2228" />
    </linearGradient>
    <linearGradient
       inkscape:collect="always"
       id="linearGradient2216">
      <stop
         style="stop-color:#000000;stop-opacity:1;"
         offset="0"
         id="stop2218" />
      <stop
         style="stop-color:#000000;stop-opacity:0;"
         offset="1"
         id="stop2220" />
    </linearGradient>
    <linearGradient
       id="linearGradient15234">
      <stop
         style="stop-color:#97978a;stop-opacity:1.0000000;"
         offset="0.0000000"
         id="stop15236" />
      <stop
         id="stop15242"
         offset="0.50000000"
         style="stop-color:#c2c2b9;stop-opacity:1.0000000;" />
      <stop
         style="stop-color:#7d7d6f;stop-opacity:1.0000000;"
         offset="1.0000000"
         id="stop15238" />
    </linearGradient>
    <linearGradient
       id="linearGradient15218">
      <stop
         style="stop-color:#f0f0ef;stop-opacity:1.0000000;"
         offset="0.0000000"
         id="stop15220" />
      <stop
         id="stop2269"
         offset="0.59928656"
         style="stop-color:#e8e8e8;stop-opacity:1;" />
      <stop
         id="stop2267"
         offset="0.82758623"
         style="stop-color:#ffffff;stop-opacity:1;" />
      <stop
         style="stop-color:#d8d8d3;stop-opacity:1.0000000;"
         offset="1.0000000"
         id="stop15222" />
    </linearGradient>
    <linearGradient
       id="linearGradient14484">
      <stop
         style="stop-color:#c68827;stop-opacity:1.0000000;"
         offset="0.0000000"
         id="stop14486" />
      <stop
         style="stop-color:#89601f;stop-opacity:1.0000000;"
         offset="1.0000000"
         id="stop14488" />
    </linearGradient>
    <linearGradient
       inkscape:collect="always"
       id="linearGradient13746">
      <stop
         style="stop-color:#646459;stop-opacity:1;"
         offset="0"
         id="stop13748" />
      <stop
         style="stop-color:#646459;stop-opacity:0;"
         offset="1"
         id="stop13750" />
    </linearGradient>
    <radialGradient
       inkscape:collect="always"
       xlink:href="#linearGradient13746"
       id="radialGradient13752"
       cx="24.647722"
       cy="45.272587"
       fx="24.647722"
       fy="45.272587"
       r="21.011173"
       gradientTransform="matrix(1.000000,0.000000,0.000000,0.110577,4.987330e-17,40.26648)"
       gradientUnits="userSpaceOnUse" />
    <linearGradient
       inkscape:collect="always"
       xlink:href="#linearGradient14484"
       id="linearGradient14490"
       x1="6.1071744"
       y1="10.451290"
       x2="33.857143"
       y2="37.879860"
       gradientUnits="userSpaceOnUse" />
    <linearGradient
       inkscape:collect="always"
       xlink:href="#linearGradient15218"
       id="linearGradient15224"
       x1="22.308331"
       y1="18.992140"
       x2="35.785294"
       y2="39.498238"
       gradientUnits="userSpaceOnUse"
       gradientTransform="matrix(1.065698,0.000000,0.000000,0.987595,-1.564439,7.487332e-2)" />
    <linearGradient
       inkscape:collect="always"
       xlink:href="#linearGradient15234"
       id="linearGradient15240"
       x1="25.404572"
       y1="3.8180194"
       x2="25.464211"
       y2="9.3233509"
       gradientUnits="userSpaceOnUse"
       gradientTransform="matrix(1.052632,0.000000,0.000000,1.000000,-1.789474,0.000000)" />
    <linearGradient
       inkscape:collect="always"
       xlink:href="#linearGradient2216"
       id="linearGradient2222"
       x1="36.8125"
       y1="39.15625"
       x2="39.0625"
       y2="42.0625"
       gradientUnits="userSpaceOnUse" />
    <linearGradient
       inkscape:collect="always"
       xlink:href="#linearGradient2224"
       id="linearGradient2230"
       x1="35.996582"
       y1="40.458221"
       x2="33.664921"
       y2="37.770721"
       gradientUnits="userSpaceOnUse" />
    <linearGradient
       inkscape:collect="always"
       xlink:href="#linearGradient2239"
       id="linearGradient2245"
       x1="25.682829"
       y1="12.172059"
       x2="25.692169"
       y2="-0.20294096"
       gradientUnits="userSpaceOnUse" />
    <linearGradient
       inkscape:collect="always"
       xlink:href="#linearGradient2251"
       id="linearGradient2257"
       x1="33.396004"
       y1="36.921333"
       x2="34.170048"
       y2="38.070381"
       gradientUnits="userSpaceOnUse" />
    <linearGradient
       inkscape:collect="always"
       xlink:href="#linearGradient2259"
       id="linearGradient2265"
       x1="26.076092"
       y1="26.696676"
       x2="30.811172"
       y2="42.007351"
       gradientUnits="userSpaceOnUse" />
    <linearGradient
       inkscape:collect="always"
       xlink:href="#linearGradient15234"
       id="linearGradient2283"
       gradientUnits="userSpaceOnUse"
       gradientTransform="matrix(0.538743,0.000000,0.000000,0.511806,10.80080,-0.582640)"
       x1="25.404572"
       y1="3.8180194"
       x2="25.404572"
       y2="6.481061" />
    <linearGradient
       inkscape:collect="always"
       xlink:href="#linearGradient15234"
       id="linearGradient2287"
       gradientUnits="userSpaceOnUse"
       gradientTransform="matrix(1.005222,0.000000,0.000000,0.883928,-0.627923,0.843750)"
       x1="25.404572"
       y1="3.8180194"
       x2="25.464211"
       y2="9.3233509" />
    <radialGradient
       r="90.000000"
       fy="515.08179"
       fx="208.84131"
       cy="515.08179"
       cx="208.84131"
       gradientTransform="matrix(0.185453,4.990015e-3,-3.493835e-3,0.146415,-26.52784,-50.89360)"
       gradientUnits="userSpaceOnUse"
       id="radialGradient2609"
       xlink:href="#linearGradient2448"
       inkscape:collect="always" />
    <radialGradient
       r="90.000000"
       fy="515.08179"
       fx="208.84131"
       cy="515.08179"
       cx="208.84131"
       gradientTransform="matrix(0.185453,4.990015e-3,-3.493835e-3,0.146415,-26.52784,-70.89360)"
       gradientUnits="userSpaceOnUse"
       id="radialGradient2601"
       xlink:href="#linearGradient2448"
       inkscape:collect="always" />
    <radialGradient
       r="90.000000"
       fy="515.08179"
       fx="208.84131"
       cy="515.08179"
       cx="208.84131"
       gradientTransform="matrix(1.847789,4.753482e-2,-3.481129e-2,1.394748,-160.4851,-213.9218)"
       gradientUnits="userSpaceOnUse"
       id="radialGradient2522"
       xlink:href="#linearGradient2448"
       inkscape:collect="always" />
    <linearGradient
       y2="504.34375"
       x2="567.00000"
       y1="504.34375"
       x1="336.15625"
       gradientUnits="userSpaceOnUse"
       id="linearGradient2520"
       xlink:href="#linearGradient2119"
       inkscape:collect="always" />
    <linearGradient
       y2="459.00504"
       x2="564.28572"
       y1="459.00504"
       x1="333.57144"
       gradientTransform="translate(2.713108e-14,-5.103373e-6)"
       gradientUnits="userSpaceOnUse"
       id="linearGradient2518"
       xlink:href="#linearGradient2119"
       inkscape:collect="always" />
    <radialGradient
       r="90.000000"
       fy="515.08179"
       fx="208.84131"
       cy="515.08179"
       cx="208.84131"
       gradientTransform="matrix(1.847789,4.753482e-2,-3.481129e-2,1.394748,-160.4851,-213.9218)"
       gradientUnits="userSpaceOnUse"
       id="radialGradient2490"
       xlink:href="#linearGradient2448"
       inkscape:collect="always" />
    <linearGradient
       y2="459.00504"
       x2="564.28572"
       y1="459.00504"
       x1="333.57144"
       gradientTransform="translate(0.000000,-5.103373e-6)"
       gradientUnits="userSpaceOnUse"
       id="linearGradient2487"
       xlink:href="#linearGradient2119"
       inkscape:collect="always" />
    <linearGradient
       y2="504.34375"
       x2="567.00000"
       y1="504.34375"
       x1="336.15625"
       gradientUnits="userSpaceOnUse"
       id="linearGradient2484"
       xlink:href="#linearGradient2119"
       inkscape:collect="always" />
    <radialGradient
       r="90.000000"
       fy="515.08179"
       fx="208.84131"
       cy="515.08179"
       cx="208.84131"
       gradientTransform="matrix(1.847789,4.753482e-2,-3.481129e-2,1.394748,-160.4851,-213.9218)"
       gradientUnits="userSpaceOnUse"
       id="radialGradient2478"
       xlink:href="#linearGradient2448"
       inkscape:collect="always" />
    <linearGradient
       y2="504.34375"
       x2="567.00000"
       y1="504.34375"
       x1="336.15625"
       gradientUnits="userSpaceOnUse"
       id="linearGradient2476"
       xlink:href="#linearGradient2119"
       inkscape:collect="always" />
    <linearGradient
       y2="459.00504"
       x2="564.28572"
       y1="459.00504"
       x1="333.57144"
       gradientTransform="translate(0.000000,-5.103373e-6)"
       gradientUnits="userSpaceOnUse"
       id="linearGradient2474"
       xlink:href="#linearGradient2119"
       inkscape:collect="always" />
    <radialGradient
       r="90.000000"
       fy="515.08179"
       fx="208.84131"
       cy="515.08179"
       cx="208.84131"
       gradientTransform="matrix(1.847789,4.753482e-2,-3.481129e-2,1.394748,-160.4851,-213.9218)"
       gradientUnits="userSpaceOnUse"
       id="radialGradient2446"
       xlink:href="#linearGradient2448"
       inkscape:collect="always" />
    <radialGradient
       r="90.000000"
       fy="515.08179"
       fx="208.84131"
       cy="515.08179"
       cx="208.84131"
       gradientTransform="matrix(1.848149,2.978268e-2,-1.548075e-2,0.990149,-170.5172,-1.812833)"
       gradientUnits="userSpaceOnUse"
       id="radialGradient2438"
       xlink:href="#linearGradient2414"
       inkscape:collect="always" />
    <radialGradient
       gradientUnits="userSpaceOnUse"
       gradientTransform="matrix(1.826087,2.970972e-2,-1.529595e-2,0.987724,-166.6825,-0.415230)"
       r="90.000000"
       fy="515.08179"
       fx="208.84131"
       cy="515.08179"
       cx="208.84131"
       id="radialGradient2412"
       xlink:href="#linearGradient2414"
       inkscape:collect="always" />
    <linearGradient
       gradientUnits="userSpaceOnUse"
       y2="504.34375"
       x2="567.00000"
       y1="504.34375"
       x1="336.15625"
       id="linearGradient2376"
       xlink:href="#linearGradient2119"
       inkscape:collect="always" />
    <linearGradient
       gradientTransform="translate(0.000000,-5.103373e-6)"
       gradientUnits="userSpaceOnUse"
       y2="459.00504"
       x2="564.28572"
       y1="459.00504"
       x1="333.57144"
       id="linearGradient2125"
       xlink:href="#linearGradient2119"
       inkscape:collect="always" />
    <linearGradient
       id="linearGradient2041">
      <stop
         id="stop2043"
         offset="0.0000000"
         style="stop-color:#d9d9d9;stop-opacity:1.0000000;" />
      <stop
         id="stop2045"
         offset="1"
         style="stop-color:#d9d9d9;stop-opacity:0;" />
    </linearGradient>
    <linearGradient
       id="linearGradient2119">
      <stop
         id="stop2121"
         offset="0.0000000"
         style="stop-color:#d2b32a;stop-opacity:0.56730771;" />
      <stop
         style="stop-color:#ffeb3f;stop-opacity:0.72156864;"
         offset="0.11000000"
         id="stop2378" />
      <stop
         id="stop2123"
         offset="1.0000000"
         style="stop-color:#fff493;stop-opacity:0.23076923;" />
    </linearGradient>
    <linearGradient
       id="linearGradient2390">
      <stop
         style="stop-color:#ac8b0b;stop-opacity:1;"
         offset="0"
         id="stop2392" />
      <stop
         style="stop-color:#ac8b0b;stop-opacity:0;"
         offset="1"
         id="stop2394" />
    </linearGradient>
    <linearGradient
       id="linearGradient2414">
      <stop
         id="stop2416"
         offset="0.0000000"
         style="stop-color:#f8e082;stop-opacity:1.0000000;" />
      <stop
         id="stop2418"
         offset="1.0000000"
         style="stop-color:#cba40d;stop-opacity:1.0000000;" />
    </linearGradient>
    <linearGradient
       id="linearGradient2448">
      <stop
         style="stop-color:#c8a20b;stop-opacity:1.0000000;"
         offset="0.0000000"
         id="stop2450" />
      <stop
         style="stop-color:#f7e87b;stop-opacity:1.0000000"
         offset="1.0000000"
         id="stop2452" />
    </linearGradient>
    <linearGradient
       inkscape:collect="always"
       xlink:href="#linearGradient2119"
       id="linearGradient1489"
       gradientUnits="userSpaceOnUse"
       gradientTransform="matrix(9.274505e-2,-9.869407e-18,-3.577000e-19,9.848387e-2,-8.477303,-25.38746)"
       x1="333.57144"
       y1="459.00504"
       x2="564.28572"
       y2="459.00504" />
    <linearGradient
       inkscape:collect="always"
       xlink:href="#linearGradient2119"
       id="linearGradient1491"
       gradientUnits="userSpaceOnUse"
       gradientTransform="matrix(9.274505e-2,-9.869407e-18,-3.577000e-19,9.848387e-2,-8.477303,-25.38746)"
       x1="336.15625"
       y1="504.34375"
       x2="567.00000"
       y2="504.34375" />
    <radialGradient
       inkscape:collect="always"
       xlink:href="#linearGradient2448"
       id="radialGradient1493"
       gradientUnits="userSpaceOnUse"
       gradientTransform="matrix(0.185453,4.990015e-3,-3.493835e-3,0.146415,-26.52784,-50.89360)"
       cx="208.84131"
       cy="515.08179"
       fx="208.84131"
       fy="515.08179"
       r="90.000000" />
  </defs>
  <sodipodi:namedview
     id="base"
     pagecolor="#ffffff"
     bordercolor="#666666"
     borderopacity="0.15294118"
     inkscape:pageopacity="0.0"
     inkscape:pageshadow="2"
     inkscape:zoom="8.0000000"
     inkscape:cx="42.355754"
     inkscape:cy="38.171835"
     inkscape:current-layer="layer1"
     showgrid="false"
     inkscape:grid-bbox="true"
     inkscape:document-units="px"
     inkscape:window-width="851"
     inkscape:window-height="854"
     inkscape:window-x="364"
     inkscape:window-y="60"
     inkscape:showpageshadow="false" />
  <metadata
     id="metadata12365">
    <rdf:RDF>
      <cc:Work
         rdf:about="">
        <dc:format>image/svg+xml</dc:format>
        <dc:type
           rdf:resource="http://purl.org/dc/dcmitype/StillImage" />
        <dc:title>Edit Paste</dc:title>
        <dc:date>2005-10-10</dc:date>
        <dc:creator>
          <cc:Agent>
            <dc:title>Andreas Nilsson</dc:title>
          </cc:Agent>
        </dc:creator>
        <dc:subject>
          <rdf:Bag>
            <rdf:li>edit</rdf:li>
            <rdf:li>paste</rdf:li>
          </rdf:Bag>
        </dc:subject>
        <cc:license
           rdf:resource="http://creativecommons.org/licenses/by-sa/2.0/" />
        <dc:contributor>
          <cc:Agent>
            <dc:title>Jakub Steiner</dc:title>
          </cc:Agent>
        </dc:contributor>
      </cc:Work>
      <cc:License
         rdf:about="http://creativecommons.org/licenses/by-sa/2.0/">
        <cc:permits
           rdf:resource="http://web.resource.org/cc/Reproduction" />
        <cc:permits
           rdf:resource="http://web.resource.org/cc/Distribution" />
        <cc:requires
           rdf:resource="http://web.resource.org/cc/Notice" />
        <cc:requires
           rdf:resource="http://web.resource.org/cc/Attribution" />
        <cc:permits
           rdf:resource="http://web.resource.org/cc/DerivativeWorks" />
        <cc:requires
           rdf:resource="http://web.resource.org/cc/ShareAlike" />
      </cc:License>
    </rdf:RDF>
  </metadata>
  <g
     id="layer1"
     inkscape:label="Layer 1"
     inkscape:groupmode="layer">
    <path
       sodipodi:type="arc"
       style="opacity:1;fill:url(#radialGradient13752);fill-opacity:1;fill-rule:evenodd;stroke:none;stroke-width:0.90907735;stroke-linecap:butt;stroke-linejoin:miter;stroke-miterlimit:4;stroke-dasharray:none;stroke-dashoffset:0;stroke-opacity:1"
       id="path13018"
       sodipodi:cx="24.647722"
       sodipodi:cy="45.272587"
       sodipodi:rx="21.011173"
       sodipodi:ry="2.3233509"
       d="M 45.658895 45.272587 A 21.011173 2.3233509 0 1 1  3.636549,45.272587 A 21.011173 2.3233509 0 1 1  45.658895 45.272587 z"
       transform="matrix(0.913383,0.000000,0.000000,1.178892,1.920946,-8.110470)" />
    <rect
       style="opacity:1.0000000;fill:url(#linearGradient14490);fill-opacity:1.0;fill-rule:evenodd;stroke:#714c16;stroke-width:0.99999976;stroke-linecap:butt;stroke-linejoin:miter;stroke-miterlimit:4.0000000;stroke-dasharray:none;stroke-dashoffset:0.0000000;stroke-opacity:1"
       id="rect12368"
       width="39.035683"
       height="41.045437"
       x="4.4643173"
       y="4.5000000"
       rx="1.3879371"
       ry="1.3879364" />
    <rect
       style="opacity:1;fill:url(#linearGradient15224);fill-opacity:1;fill-rule:evenodd;stroke:#888a85;stroke-width:1.00000024;stroke-linecap:butt;stroke-linejoin:miter;stroke-miterlimit:4;stroke-dasharray:none;stroke-dashoffset:0;stroke-opacity:1"
       id="rect12413"
       width="30.951559"
       height="35.976688"
       x="8.5323219"
       y="6.5295157"
       rx="0.56650835"
       ry="0.56650835" />
    <rect
       style="opacity:1.0000000;fill:#5c5c5c;fill-opacity:1.0000000;fill-rule:evenodd;stroke:none;stroke-width:1.0000000;stroke-linecap:butt;stroke-linejoin:miter;stroke-miterlimit:4.0000000;stroke-dasharray:none;stroke-dashoffset:0.0000000;stroke-opacity:1.0000000"
       id="rect13756"
       width="12.000000"
       height="4.0000000"
       x="18.000000"
       y="0.0000000"
       rx="0.98387533"
       ry="0.98387533" />
    <rect
       style="opacity:1;fill:none;fill-opacity:1;fill-rule:evenodd;stroke:url(#linearGradient2265);stroke-width:1.00000048;stroke-linecap:butt;stroke-linejoin:miter;stroke-miterlimit:4;stroke-dasharray:none;stroke-dashoffset:0;stroke-opacity:1"
       id="rect15244"
       width="29.014147"
       height="34.040764"
       x="9.5171413"
       y="7.4665856"
       rx="0"
       ry="0" />
    <rect
       style="opacity:1.0000000;fill:none;fill-opacity:1.0000000;fill-rule:evenodd;stroke:#c68827;stroke-width:0.99999976;stroke-linecap:butt;stroke-linejoin:miter;stroke-miterlimit:4.0000000;stroke-dasharray:none;stroke-dashoffset:0.0000000;stroke-opacity:1.0000000"
       id="rect15974"
       width="37.085655"
       height="39.092987"
       x="5.4393425"
       y="5.4307775"
       rx="0.47879848"
       ry="0.47879848" />
    <rect
       ry="1.3879364"
       rx="1.3879377"
       y="4.4722719"
       x="14.791488"
       height="7"
       width="18.947376"
       id="rect2208"
       style="opacity:0.10795455;fill:#000000;fill-opacity:1;fill-rule:evenodd;stroke:#000000;stroke-width:1.00000012;stroke-linecap:butt;stroke-linejoin:miter;stroke-miterlimit:4;stroke-dasharray:none;stroke-dashoffset:0;stroke-opacity:1" />
    <rect
       ry="1.3879364"
       rx="1.3879377"
       y="3.5000000"
       x="14.526322"
       height="7.0000000"
       width="18.947376"
       id="rect2285"
       style="opacity:1.0000000;fill:url(#linearGradient15240);fill-opacity:1.0000000;fill-rule:evenodd;stroke:#5c5c5c;stroke-width:1.0000001;stroke-linecap:butt;stroke-linejoin:miter;stroke-miterlimit:4.0000000;stroke-dasharray:none;stroke-dashoffset:0.0000000;stroke-opacity:1.0000000" />
    <rect
       ry="0.32543635"
       rx="0.32543635"
       y="1.2086792"
       x="19.151323"
       height="3.5826404"
       width="9.6973763"
       id="rect2281"
       style="opacity:1;fill:url(#linearGradient2283);fill-opacity:1;fill-rule:evenodd;stroke:none;stroke-width:1.00000012;stroke-linecap:butt;stroke-linejoin:miter;stroke-miterlimit:4;stroke-dasharray:none;stroke-dashoffset:0;stroke-opacity:1" />
    <rect
       style="opacity:1;fill:url(#linearGradient2287);fill-opacity:1;fill-rule:evenodd;stroke:none;stroke-width:1.00000012;stroke-linecap:butt;stroke-linejoin:miter;stroke-miterlimit:4;stroke-dasharray:none;stroke-dashoffset:0;stroke-opacity:1"
       id="rect13754"
       width="18.093992"
       height="6.1875"
       x="14.953014"
       y="3.9375"
       rx="1.0129364"
       ry="1.0129364" />
    <path
       style="opacity:0.48863636;color:#000000;fill:url(#linearGradient2222);fill-opacity:1.0;fill-rule:evenodd;stroke:none;stroke-width:1.00000024;stroke-linecap:butt;stroke-linejoin:miter;marker:none;marker-start:none;marker-mid:none;marker-end:none;stroke-miterlimit:4;stroke-dasharray:none;stroke-dashoffset:0;stroke-opacity:1;visibility:visible;display:inline;overflow:visible"
       d="M 39.018306,36.25 L 39.0625,42.0625 L 30.5625,42.018306 L 39.018306,36.25 z "
       id="path2212"
       sodipodi:nodetypes="cccc" />
    <path
       style="opacity:0.31681817;fill:none;fill-opacity:1;fill-rule:evenodd;stroke:url(#linearGradient2245);stroke-width:0.99999994;stroke-linecap:butt;stroke-linejoin:miter;stroke-miterlimit:4;stroke-dasharray:none;stroke-dashoffset:0;stroke-opacity:1"
       d="M 19.46875 1.46875 C 19.466654 1.4708456 19.470414 1.4975336 19.46875 1.5 C 19.46758 1.502776 19.438116 1.4969757 19.4375 1.5 L 19.4375 4.375 C 19.4375 4.3814229 19.46641 4.4006981 19.46875 4.40625 C 19.471216 4.4079135 19.465974 4.4363298 19.46875 4.4375 L 15.9375 4.4375 C 15.91974 4.4375 15.892285 4.4357551 15.875 4.4375 C 15.840968 4.4426713 15.781454 4.4572762 15.75 4.46875 C 15.611832 4.5269964 15.482328 4.6677699 15.4375 4.8125 C 15.426991 4.8535348 15.4375 4.9243489 15.4375 4.96875 L 15.4375 9.125 C 15.4375 9.1427605 15.435755 9.1702147 15.4375 9.1875 C 15.442671 9.2215321 15.457276 9.2810456 15.46875 9.3125 C 15.478458 9.3355281 15.487176 9.3851004 15.5 9.40625 C 15.5046 9.41307 15.526336 9.4309205 15.53125 9.4375 C 15.552124 9.4628138 15.599686 9.5103764 15.625 9.53125 C 15.638159 9.5410789 15.6734 9.5539504 15.6875 9.5625 C 15.702038 9.5703781 15.734648 9.5872782 15.75 9.59375 C 15.781454 9.6052238 15.840968 9.6198287 15.875 9.625 C 15.892285 9.6267449 15.91974 9.625 15.9375 9.625 L 32.0625 9.625 C 32.08026 9.625 32.107715 9.6267449 32.125 9.625 C 32.159032 9.6198287 32.218546 9.6052238 32.25 9.59375 C 32.265352 9.5872782 32.297962 9.5703781 32.3125 9.5625 C 32.3266 9.5539504 32.361841 9.5410789 32.375 9.53125 C 32.400314 9.5103764 32.447876 9.4628138 32.46875 9.4375 C 32.473664 9.4309205 32.4954 9.41307 32.5 9.40625 C 32.512824 9.3851004 32.521542 9.3355281 32.53125 9.3125 C 32.542724 9.2810456 32.557329 9.2215321 32.5625 9.1875 C 32.564245 9.1702147 32.5625 9.1427605 32.5625 9.125 L 32.5625 4.96875 C 32.5625 4.9243489 32.573009 4.8535348 32.5625 4.8125 C 32.517672 4.6677698 32.388168 4.5269964 32.25 4.46875 C 32.218546 4.4572762 32.159032 4.4426713 32.125 4.4375 C 32.107715 4.4357551 32.08026 4.4375 32.0625 4.4375 L 28.53125 4.4375 C 28.534026 4.4363298 28.528784 4.4079135 28.53125 4.40625 C 28.533591 4.4006981 28.5625 4.3814229 28.5625 4.375 L 28.5625 1.5 C 28.561884 1.4969757 28.53242 1.502776 28.53125 1.5 C 28.529586 1.4975336 28.533346 1.4708456 28.53125 1.46875 C 28.528474 1.4675798 28.503024 1.4693657 28.5 1.46875 L 19.5 1.46875 C 19.496976 1.4693657 19.471526 1.4675798 19.46875 1.46875 z "
       id="rect2232" />
    <g
       style="display:inline"
       id="g1446"
       inkscape:label="Layer 1"
       transform="matrix(0.546265,0.559293,-0.536663,0.500825,21.97027,1.507811)">
      <path
         sodipodi:nodetypes="csscccccccccccscccccccccccccc"
         id="path1306"
         d="M 13.781250,11.718750 C 8.4423149,11.718750 4.1250009,16.252117 4.1250000,21.843750 C 4.1250002,27.435382 8.4423153,31.968749 13.781250,31.968750 C 17.786423,31.968750 21.219167,29.417978 22.687500,25.781250 L 24.375000,25.781250 L 26.906250,24.375000 L 27.468750,25.781250 L 34.468750,25.375000 L 35.437500,23.906250 L 36.531250,25.375000 L 38.312500,25.375000 L 39.281250,23.093750 L 40.375000,24.781250 L 42.000000,24.781250 C 42.012300,24.781250 42.022731,24.789526 42.031250,24.781250 C 42.039768,24.772973 42.062501,24.763062 42.062500,24.750000 C 42.062500,24.750000 45.187500,21.750000 45.187500,21.750000 C 45.187501,21.750000 43.937500,18.187500 43.937500,18.187500 L 22.625000,17.750000 C 21.124817,14.190065 17.733327,11.718751 13.781250,11.718750 z M 9.9062500,18.000000 L 10.312500,18.000000 C 11.382373,18.000000 12.250000,18.903567 12.250000,20.000000 L 12.250000,23.218750 C 12.250000,24.315183 11.382373,25.187500 10.312500,25.187500 L 9.9062500,25.187500 C 8.8363774,25.187500 7.9687500,24.315183 7.9687500,23.218750 L 7.9687500,20.000000 C 7.9687500,18.903567 8.8363772,18.000000 9.9062500,18.000000 z "
         style="opacity:1.0000000;fill:#dabf3c;fill-opacity:1.0000000;fill-rule:evenodd;stroke:none;stroke-width:1.0000000;stroke-linecap:butt;stroke-linejoin:round;stroke-miterlimit:4.0000000;stroke-dasharray:none;stroke-opacity:1.0000000" />
      <path
         sodipodi:nodetypes="ccccccccc"
         id="rect2116"
         d="M 22.504203,18.754914 L 43.812998,19.068782 C 43.837600,19.068782 43.857404,19.085537 43.857404,19.106351 L 43.857404,20.096119 C 43.857404,20.116932 43.837600,20.133688 43.812998,20.133688 L 22.504203,19.819821 C 22.479603,19.819821 22.459797,19.803064 22.459797,19.782251 L 22.459797,18.792484 C 22.459797,18.771670 22.479603,18.754914 22.504203,18.754914 z "
         style="fill:url(#linearGradient1489);fill-opacity:1.0000000;fill-rule:evenodd;stroke:none;stroke-width:0.31200001;stroke-linecap:butt;stroke-linejoin:round;stroke-miterlimit:4.0000000;stroke-opacity:1.0000000" />
      <path
         sodipodi:nodetypes="ccccccccccccccscc"
         id="path2363"
         d="M 44.109140,22.592650 L 22.737203,22.638815 C 22.715573,22.638815 22.699524,22.687382 22.699525,22.749609 L 22.699525,25.577943 L 24.377446,25.577943 L 26.899137,24.171470 L 27.467200,25.577943 L 34.454960,25.184007 L 35.443275,23.694439 L 36.521436,25.184007 L 38.298083,25.184007 L 39.286398,22.906568 L 40.364559,24.593104 L 42.010784,24.593104 C 42.023084,24.593104 42.034146,24.589069 42.042665,24.580794 C 42.051182,24.572516 42.057157,24.560002 42.057156,24.546940 C 42.057156,24.546940 43.183241,23.474698 44.109140,22.592650 z "
         style="opacity:1.0000000;fill:url(#linearGradient1491);fill-opacity:1.0000000;fill-rule:evenodd;stroke:none;stroke-width:1.0000000;stroke-linecap:butt;stroke-linejoin:round;stroke-miterlimit:4.0000000;stroke-dasharray:none;stroke-opacity:1.0000000" />
      <g
         transform="matrix(1.014890,0.000000,0.000000,1.014890,-0.204735,-0.324784)"
         id="g3586">
        <path
           style="fill:url(#radialGradient1493);fill-opacity:1.0000000;fill-rule:evenodd;stroke:none;stroke-width:0.31200001;stroke-linecap:butt;stroke-linejoin:round;stroke-miterlimit:4.0000000;stroke-opacity:1.0000000"
           d="M 13.750000,12.375000 C 8.7638665,12.375000 4.7187502,16.602894 4.7187500,21.812500 C 4.7187500,27.022106 8.7638668,31.250000 13.750000,31.250000 C 18.736133,31.250000 22.781250,27.022106 22.781250,21.812500 C 22.781250,16.602894 18.736133,12.375000 13.750000,12.375000 z M 9.9062500,18.000000 L 10.312500,18.000000 C 11.382373,18.000000 12.250000,18.903567 12.250000,20.000000 L 12.250000,23.218750 C 12.250000,24.315183 11.382373,25.187500 10.312500,25.187500 L 9.9062500,25.187500 C 8.8363774,25.187500 7.9687500,24.315183 7.9687500,23.218750 L 7.9687500,20.000000 C 7.9687500,18.903567 8.8363772,18.000000 9.9062500,18.000000 z "
           id="path2380" />
        <path
           style="opacity:0.45405403;fill:#c4a00f;fill-opacity:1.0000000;fill-rule:evenodd;stroke:none;stroke-width:0.31200001;stroke-linecap:butt;stroke-linejoin:round;stroke-miterlimit:4.0000000;stroke-opacity:1.0000000"
           d="M 21.593750,17.156250 C 17.079155,17.492669 15.849116,19.744922 12.250000,22.187500 L 12.250000,23.218750 C 12.250000,24.315183 11.382373,25.187500 10.312500,25.187500 L 9.9062500,25.187500 C 9.2380920,25.187500 8.7214707,24.806852 8.3750000,24.281250 C 7.2850437,24.683838 6.2681979,24.885104 5.2500000,25.031250 C 6.5096603,28.658990 9.8445697,31.249999 13.750000,31.250000 C 18.736151,31.250001 22.781249,27.022118 22.781250,21.812500 C 22.781250,20.117611 22.343403,18.531564 21.593750,17.156250 z "
           id="path2440" />
      </g>
      <path
         id="rect2420"
         d="M 9.8951075,18.013262 L 10.308493,18.013262 C 11.378366,18.013262 12.239672,18.895949 12.239672,19.992382 L 12.239672,23.211815 C 12.239672,24.308248 11.378366,25.190936 10.308493,25.190936 L 9.8951075,25.190936 C 8.8252347,25.190936 7.9639292,24.308248 7.9639292,23.211815 L 7.9639292,19.992382 C 7.9639292,18.895949 8.8252347,18.013262 9.8951075,18.013262 z "
         style="fill:none;fill-opacity:0.94117647;fill-rule:evenodd;stroke:#ac8b0b;stroke-width:1.0000000;stroke-linecap:butt;stroke-linejoin:round;stroke-miterlimit:4.0000000;stroke-dasharray:none;stroke-opacity:1.0000000" />
      <path
         sodipodi:nodetypes="csscccccccccccscccccccccccccc"
         style="opacity:1.0000000;fill:none;fill-opacity:1.0000000;fill-rule:evenodd;stroke:#ac8b0b;stroke-width:1.0000000;stroke-linecap:butt;stroke-linejoin:miter;stroke-miterlimit:4.0000000;stroke-dasharray:none;stroke-opacity:1.0000000"
         d="M 13.781250,11.718750 C 8.4423149,11.718750 4.1250009,16.252117 4.1250000,21.843750 C 4.1250002,27.435382 8.4423153,31.968749 13.781250,31.968750 C 17.786423,31.968750 21.219167,29.417978 22.687500,25.781250 L 24.375000,25.781250 L 26.906250,23.875000 L 27.968750,25.781250 L 33.968750,25.375000 L 35.437500,22.406250 L 37.031250,25.375000 L 38.312500,25.375000 L 39.281250,22.593750 L 40.875000,24.781250 L 42.000000,24.781250 C 42.012300,24.781250 42.022731,24.789526 42.031250,24.781250 C 42.039768,24.772973 42.062501,24.763062 42.062500,24.750000 C 42.062500,24.750000 45.187500,21.750000 45.187500,21.750000 C 45.187501,21.750000 43.937500,18.187500 43.937500,18.187500 L 22.625000,17.750000 C 21.124817,14.190065 17.733327,11.718751 13.781250,11.718750 z M 9.9062500,18.000000 L 10.312500,18.000000 C 11.382373,18.000000 12.250000,18.903567 12.250000,20.000000 L 12.250000,23.218750 C 12.250000,24.315183 11.382373,25.187500 10.312500,25.187500 L 9.9062500,25.187500 C 8.8363774,25.187500 7.9687500,24.315183 7.9687500,23.218750 L 7.9687500,20.000000 C 7.9687500,18.903567 8.8363772,18.000000 9.9062500,18.000000 z "
         id="path3594" />
    </g>
    <path
       sodipodi:nodetypes="cccc"
       id="path2247"
       d="M 31.509519,40.68705 C 32.879298,40.003221 36.038783,38.086016 37.338164,36.205012 C 35.545641,36.581496 34.347243,36.794585 31.610576,36.900494 C 31.610576,36.900494 31.697137,39.91208 31.509519,40.68705 z "
       style="opacity:0.36931818;color:#000000;fill:none;fill-opacity:1;fill-rule:evenodd;stroke:url(#linearGradient2257);stroke-width:0.99999982;stroke-linecap:butt;stroke-linejoin:miter;marker:none;marker-start:none;marker-mid:none;marker-end:none;stroke-miterlimit:4;stroke-dasharray:none;stroke-dashoffset:0;stroke-opacity:1;visibility:visible;display:inline;overflow:visible" />
    <path
       style="opacity:1;color:#000000;fill:url(#linearGradient2230);fill-opacity:1.0;fill-rule:evenodd;stroke:#868a84;stroke-width:1.00000024;stroke-linecap:butt;stroke-linejoin:miter;marker:none;marker-start:none;marker-mid:none;marker-end:none;stroke-miterlimit:4;stroke-dasharray:none;stroke-dashoffset:0;stroke-opacity:1;visibility:visible;display:inline;overflow:visible"
       d="M 30.059082,42.086864 C 31.850223,42.254516 39.048809,37.717278 39.539922,33.698855 C 37.97666,36.121952 34.584971,35.667446 30.476213,35.826456 C 30.476213,35.826456 30.871582,41.586864 30.059082,42.086864 z "
       id="path2210"
       sodipodi:nodetypes="cccc" />
  </g>
</svg>
