<?xml version="1.0" encoding="UTF-8" standalone="no"?>
<!-- Created with Inkscape (http://www.inkscape.org/) -->
<svg
   xmlns:dc="http://purl.org/dc/elements/1.1/"
   xmlns:cc="http://web.resource.org/cc/"
   xmlns:rdf="http://www.w3.org/1999/02/22-rdf-syntax-ns#"
   xmlns:svg="http://www.w3.org/2000/svg"
   xmlns="http://www.w3.org/2000/svg"
   xmlns:xlink="http://www.w3.org/1999/xlink"
   xmlns:sodipodi="http://inkscape.sourceforge.net/DTD/sodipodi-0.dtd"
   xmlns:inkscape="http://www.inkscape.org/namespaces/inkscape"
   width="48.000000px"
   height="48.000000px"
   id="svg2"
   sodipodi:version="0.32"
   inkscape:version="0.42"
   sodipodi:docbase="/data/Desktop/icons/scaleable"
   sodipodi:docname="seahorse-key.svg"
   inkscape:export-filename="/data/Desktop/icons/scaleable/seahorse-key.png"
   inkscape:export-xdpi="90.000000"
   inkscape:export-ydpi="90.000000">
  <defs
     id="defs4">
    <linearGradient
       id="linearGradient2448">
      <stop
         id="stop2450"
         offset="0.0000000"
         style="stop-color:#c8a20b;stop-opacity:1.0000000;" />
      <stop
         id="stop2452"
         offset="1.0000000"
         style="stop-color:#f7e87b;stop-opacity:1.0000000" />
    </linearGradient>
    <linearGradient
       id="linearGradient2414">
      <stop
         style="stop-color:#f8e082;stop-opacity:1.0000000;"
         offset="0.0000000"
         id="stop2416" />
      <stop
         style="stop-color:#cba40d;stop-opacity:1.0000000;"
         offset="1.0000000"
         id="stop2418" />
    </linearGradient>
    <linearGradient
       id="linearGradient2390">
      <stop
         id="stop2392"
         offset="0"
         style="stop-color:#ac8b0b;stop-opacity:1;" />
      <stop
         id="stop2394"
         offset="1"
         style="stop-color:#ac8b0b;stop-opacity:0;" />
    </linearGradient>
    <linearGradient
       id="linearGradient2119">
      <stop
         style="stop-color:#d2b32a;stop-opacity:0.56730771;"
         offset="0.0000000"
         id="stop2121" />
      <stop
         id="stop2378"
         offset="0.11000000"
         style="stop-color:#ffeb3f;stop-opacity:0.72156864;" />
      <stop
         style="stop-color:#fff493;stop-opacity:0.23076923;"
         offset="1.0000000"
         id="stop2123" />
    </linearGradient>
    <linearGradient
       id="linearGradient2041">
      <stop
         style="stop-color:#d9d9d9;stop-opacity:1.0000000;"
         offset="0.0000000"
         id="stop2043" />
      <stop
         style="stop-color:#d9d9d9;stop-opacity:0;"
         offset="1"
         id="stop2045" />
    </linearGradient>
    <linearGradient
       inkscape:collect="always"
       xlink:href="#linearGradient2119"
       id="linearGradient2125"
       x1="333.57144"
       y1="459.00504"
       x2="564.28572"
       y2="459.00504"
       gradientUnits="userSpaceOnUse"
       gradientTransform="translate(0.000000,-5.103373e-6)" />
    <linearGradient
       inkscape:collect="always"
       xlink:href="#linearGradient2119"
       id="linearGradient2376"
       x1="336.15625"
       y1="504.34375"
       x2="567.00000"
       y2="504.34375"
       gradientUnits="userSpaceOnUse" />
    <radialGradient
       inkscape:collect="always"
       xlink:href="#linearGradient2414"
       id="radialGradient2412"
       cx="208.84131"
       cy="515.08179"
       fx="208.84131"
       fy="515.08179"
       r="90.000000"
       gradientTransform="matrix(1.826087,2.970972e-2,-1.529595e-2,0.987724,-166.6825,-0.415230)"
       gradientUnits="userSpaceOnUse" />
    <radialGradient
       inkscape:collect="always"
       xlink:href="#linearGradient2414"
       id="radialGradient2438"
       gradientUnits="userSpaceOnUse"
       gradientTransform="matrix(1.848149,2.978268e-2,-1.548075e-2,0.990149,-170.5172,-1.812833)"
       cx="208.84131"
       cy="515.08179"
       fx="208.84131"
       fy="515.08179"
       r="90.000000" />
    <radialGradient
       inkscape:collect="always"
       xlink:href="#linearGradient2448"
       id="radialGradient2446"
       gradientUnits="userSpaceOnUse"
       gradientTransform="matrix(1.847789,4.753482e-2,-3.481129e-2,1.394748,-160.4851,-213.9218)"
       cx="208.84131"
       cy="515.08179"
       fx="208.84131"
       fy="515.08179"
       r="90.000000" />
    <linearGradient
       inkscape:collect="always"
       xlink:href="#linearGradient2119"
       id="linearGradient2474"
       gradientUnits="userSpaceOnUse"
       gradientTransform="translate(0.000000,-5.103373e-6)"
       x1="333.57144"
       y1="459.00504"
       x2="564.28572"
       y2="459.00504" />
    <linearGradient
       inkscape:collect="always"
       xlink:href="#linearGradient2119"
       id="linearGradient2476"
       gradientUnits="userSpaceOnUse"
       x1="336.15625"
       y1="504.34375"
       x2="567.00000"
       y2="504.34375" />
    <radialGradient
       inkscape:collect="always"
       xlink:href="#linearGradient2448"
       id="radialGradient2478"
       gradientUnits="userSpaceOnUse"
       gradientTransform="matrix(1.847789,4.753482e-2,-3.481129e-2,1.394748,-160.4851,-213.9218)"
       cx="208.84131"
       cy="515.08179"
       fx="208.84131"
       fy="515.08179"
       r="90.000000" />
    <linearGradient
       inkscape:collect="always"
       xlink:href="#linearGradient2119"
       id="linearGradient2484"
       gradientUnits="userSpaceOnUse"
       x1="336.15625"
       y1="504.34375"
       x2="567.00000"
       y2="504.34375" />
    <linearGradient
       inkscape:collect="always"
       xlink:href="#linearGradient2119"
       id="linearGradient2487"
       gradientUnits="userSpaceOnUse"
       gradientTransform="translate(0.000000,-5.103373e-6)"
       x1="333.57144"
       y1="459.00504"
       x2="564.28572"
       y2="459.00504" />
    <radialGradient
       inkscape:collect="always"
       xlink:href="#linearGradient2448"
       id="radialGradient2490"
       gradientUnits="userSpaceOnUse"
       gradientTransform="matrix(1.847789,4.753482e-2,-3.481129e-2,1.394748,-160.4851,-213.9218)"
       cx="208.84131"
       cy="515.08179"
       fx="208.84131"
       fy="515.08179"
       r="90.000000" />
    <linearGradient
       inkscape:collect="always"
       xlink:href="#linearGradient2119"
       id="linearGradient2518"
       gradientUnits="userSpaceOnUse"
       gradientTransform="translate(2.713108e-14,-5.103373e-6)"
       x1="333.57144"
       y1="459.00504"
       x2="564.28572"
       y2="459.00504" />
    <linearGradient
       inkscape:collect="always"
       xlink:href="#linearGradient2119"
       id="linearGradient2520"
       gradientUnits="userSpaceOnUse"
       x1="336.15625"
       y1="504.34375"
       x2="567.00000"
       y2="504.34375" />
    <radialGradient
       inkscape:collect="always"
       xlink:href="#linearGradient2448"
       id="radialGradient2522"
       gradientUnits="userSpaceOnUse"
       gradientTransform="matrix(1.847789,4.753482e-2,-3.481129e-2,1.394748,-160.4851,-213.9218)"
       cx="208.84131"
       cy="515.08179"
       fx="208.84131"
       fy="515.08179"
       r="90.000000" />
    <linearGradient
       inkscape:collect="always"
       xlink:href="#linearGradient2119"
       id="linearGradient2574"
       gradientUnits="userSpaceOnUse"
       x1="336.15625"
       y1="504.34375"
       x2="567.00000"
       y2="504.34375"
       gradientTransform="matrix(9.274505e-2,0.000000,0.000000,9.848387e-2,-8.477303,-25.38746)" />
    <linearGradient
       inkscape:collect="always"
       xlink:href="#linearGradient2119"
       id="linearGradient2577"
       gradientUnits="userSpaceOnUse"
       gradientTransform="matrix(9.274505e-2,0.000000,0.000000,9.848387e-2,-8.477303,-25.38746)"
       x1="333.57144"
       y1="459.00504"
       x2="564.28572"
       y2="459.00504" />
    <radialGradient
       inkscape:collect="always"
       xlink:href="#linearGradient2448"
       id="radialGradient2601"
       gradientUnits="userSpaceOnUse"
       gradientTransform="matrix(0.185453,4.990015e-3,-3.493835e-3,0.146415,-26.52784,-70.89360)"
       cx="208.84131"
       cy="515.08179"
       fx="208.84131"
       fy="515.08179"
       r="90.000000" />
    <radialGradient
       inkscape:collect="always"
       xlink:href="#linearGradient2448"
       id="radialGradient2609"
       gradientUnits="userSpaceOnUse"
       gradientTransform="matrix(0.185453,4.990015e-3,-3.493835e-3,0.146415,-26.52784,-50.89360)"
       cx="208.84131"
       cy="515.08179"
       fx="208.84131"
       fy="515.08179"
       r="90.000000" />
    <radialGradient
       inkscape:collect="always"
       xlink:href="#linearGradient2448"
       id="radialGradient3592"
       gradientUnits="userSpaceOnUse"
       gradientTransform="matrix(0.185453,4.990015e-3,-3.493835e-3,0.146415,-26.52784,-50.89360)"
       cx="208.84131"
       cy="515.08179"
       fx="208.84131"
       fy="515.08179"
       r="90.000000" />
  </defs>
  <sodipodi:namedview
     id="base"
     pagecolor="#ffffff"
     bordercolor="#666666"
     borderopacity="1.0000000"
     inkscape:pageopacity="0.0000000"
     inkscape:pageshadow="2"
     inkscape:zoom="1.0000000"
     inkscape:cx="24.656250"
     inkscape:cy="29.691784"
     inkscape:document-units="px"
     inkscape:current-layer="layer1"
     inkscape:window-width="1272"
     inkscape:window-height="773"
     inkscape:window-x="0"
     inkscape:window-y="102"
     showguides="true"
     inkscape:guide-bbox="true"
     showgrid="false"
     inkscape:showpageshadow="false"
     showborder="true"
     gridspacingy="1.0000000px"
     gridspacingx="1.0000000px"
     gridoriginy="0.0000000px"
     gridoriginx="0.0000000px"
     gridtolerance="0.40000000px"
     gridempspacing="10"
     inkscape:grid-points="false" />
  <metadata
     id="metadata7">
    <rdf:RDF>
      <cc:Work
         rdf:about="">
        <dc:format>image/svg+xml</dc:format>
        <dc:type
           rdf:resource="http://purl.org/dc/dcmitype/StillImage" />
        <cc:license
           rdf:resource="http://creativecommons.org/licenses/LGPL/2.1/" />
      </cc:Work>
      <cc:License
         rdf:about="http://creativecommons.org/licenses/LGPL/2.1/">
        <cc:permits
           rdf:resource="http://web.resource.org/cc/Reproduction" />
        <cc:permits
           rdf:resource="http://web.resource.org/cc/Distribution" />
        <cc:requires
           rdf:resource="http://web.resource.org/cc/Notice" />
        <cc:permits
           rdf:resource="http://web.resource.org/cc/DerivativeWorks" />
        <cc:requires
           rdf:resource="http://web.resource.org/cc/ShareAlike" />
        <cc:requires
           rdf:resource="http://web.resource.org/cc/SourceCode" />
      </cc:License>
    </rdf:RDF>
  </metadata>
  <g
     inkscape:label="Layer 1"
     inkscape:groupmode="layer"
     id="layer1"
     style="display:inline">
    <path
       style="opacity:1.0000000;fill:#dabf3c;fill-opacity:1.0000000;fill-rule:evenodd;stroke:none;stroke-width:1.0000000;stroke-linecap:butt;stroke-linejoin:round;stroke-miterlimit:4.0000000;stroke-dasharray:none;stroke-opacity:1.0000000"
       d="M 13.781250,11.718750 C 8.4423149,11.718750 4.1250009,16.252117 4.1250000,21.843750 C 4.1250002,27.435382 8.4423153,31.968749 13.781250,31.968750 C 17.786423,31.968750 21.219167,29.417978 22.687500,25.781250 L 24.375000,25.781250 L 26.906250,24.375000 L 27.468750,25.781250 L 34.468750,25.375000 L 35.437500,23.906250 L 36.531250,25.375000 L 38.312500,25.375000 L 39.281250,23.093750 L 40.375000,24.781250 L 42.000000,24.781250 C 42.012300,24.781250 42.022731,24.789526 42.031250,24.781250 C 42.039768,24.772973 42.062501,24.763062 42.062500,24.750000 C 42.062500,24.750000 45.187500,21.750000 45.187500,21.750000 C 45.187501,21.750000 43.937500,18.187500 43.937500,18.187500 L 22.625000,17.750000 C 21.124817,14.190065 17.733327,11.718751 13.781250,11.718750 z M 9.9062500,18.000000 L 10.312500,18.000000 C 11.382373,18.000000 12.250000,18.903567 12.250000,20.000000 L 12.250000,23.218750 C 12.250000,24.315183 11.382373,25.187500 10.312500,25.187500 L 9.9062500,25.187500 C 8.8363774,25.187500 7.9687500,24.315183 7.9687500,23.218750 L 7.9687500,20.000000 C 7.9687500,18.903567 8.8363772,18.000000 9.9062500,18.000000 z "
       id="path1306"
       sodipodi:nodetypes="csscccccccccccscccccccccccccc" />
    <path
       style="fill:url(#linearGradient2577);fill-opacity:1.0000000;fill-rule:evenodd;stroke:none;stroke-width:0.31200001;stroke-linecap:butt;stroke-linejoin:round;stroke-miterlimit:4.0000000;stroke-opacity:1.0000000"
       d="M 22.504203,18.754914 L 43.812998,19.068782 C 43.837600,19.068782 43.857404,19.085537 43.857404,19.106351 L 43.857404,20.096119 C 43.857404,20.116932 43.837600,20.133688 43.812998,20.133688 L 22.504203,19.819821 C 22.479603,19.819821 22.459797,19.803064 22.459797,19.782251 L 22.459797,18.792484 C 22.459797,18.771670 22.479603,18.754914 22.504203,18.754914 z "
       id="rect2116"
       sodipodi:nodetypes="ccccccccc" />
    <path
       style="opacity:1.0000000;fill:url(#linearGradient2574);fill-opacity:1.0000000;fill-rule:evenodd;stroke:none;stroke-width:1.0000000;stroke-linecap:butt;stroke-linejoin:round;stroke-miterlimit:4.0000000;stroke-dasharray:none;stroke-opacity:1.0000000"
       d="M 44.109140,22.592650 L 22.737203,22.638815 C 22.715573,22.638815 22.699524,22.687382 22.699525,22.749609 L 22.699525,25.577943 L 24.377446,25.577943 L 26.899137,24.171470 L 27.467200,25.577943 L 34.454960,25.184007 L 35.443275,23.694439 L 36.521436,25.184007 L 38.298083,25.184007 L 39.286398,22.906568 L 40.364559,24.593104 L 42.010784,24.593104 C 42.023084,24.593104 42.034146,24.589069 42.042665,24.580794 C 42.051182,24.572516 42.057157,24.560002 42.057156,24.546940 C 42.057156,24.546940 43.183241,23.474698 44.109140,22.592650 z "
       id="path2363"
       sodipodi:nodetypes="ccccccccccccccscc" />
    <g
       id="g3586"
       transform="matrix(1.014890,0.000000,0.000000,1.014890,-0.204735,-0.324784)">
      <path
         id="path2380"
         d="M 13.750000,12.375000 C 8.7638665,12.375000 4.7187502,16.602894 4.7187500,21.812500 C 4.7187500,27.022106 8.7638668,31.250000 13.750000,31.250000 C 18.736133,31.250000 22.781250,27.022106 22.781250,21.812500 C 22.781250,16.602894 18.736133,12.375000 13.750000,12.375000 z M 9.9062500,18.000000 L 10.312500,18.000000 C 11.382373,18.000000 12.250000,18.903567 12.250000,20.000000 L 12.250000,23.218750 C 12.250000,24.315183 11.382373,25.187500 10.312500,25.187500 L 9.9062500,25.187500 C 8.8363774,25.187500 7.9687500,24.315183 7.9687500,23.218750 L 7.9687500,20.000000 C 7.9687500,18.903567 8.8363772,18.000000 9.9062500,18.000000 z "
         style="fill:url(#radialGradient3592);fill-opacity:1.0000000;fill-rule:evenodd;stroke:none;stroke-width:0.31200001;stroke-linecap:butt;stroke-linejoin:round;stroke-miterlimit:4.0000000;stroke-opacity:1.0000000" />
      <path
         id="path2440"
         d="M 21.593750,17.156250 C 17.079155,17.492669 15.849116,19.744922 12.250000,22.187500 L 12.250000,23.218750 C 12.250000,24.315183 11.382373,25.187500 10.312500,25.187500 L 9.9062500,25.187500 C 9.2380920,25.187500 8.7214707,24.806852 8.3750000,24.281250 C 7.2850437,24.683838 6.2681979,24.885104 5.2500000,25.031250 C 6.5096603,28.658990 9.8445697,31.249999 13.750000,31.250000 C 18.736151,31.250001 22.781249,27.022118 22.781250,21.812500 C 22.781250,20.117611 22.343403,18.531564 21.593750,17.156250 z "
         style="opacity:0.45405403;fill:#c4a00f;fill-opacity:1.0000000;fill-rule:evenodd;stroke:none;stroke-width:0.31200001;stroke-linecap:butt;stroke-linejoin:round;stroke-miterlimit:4.0000000;stroke-opacity:1.0000000" />
    </g>
    <path
       style="fill:none;fill-opacity:0.94117647;fill-rule:evenodd;stroke:#ac8b0b;stroke-width:1.0000000;stroke-linecap:butt;stroke-linejoin:round;stroke-miterlimit:4.0000000;stroke-opacity:1.0000000;stroke-dasharray:none"
       d="M 9.8951075,18.013262 L 10.308493,18.013262 C 11.378366,18.013262 12.239672,18.895949 12.239672,19.992382 L 12.239672,23.211815 C 12.239672,24.308248 11.378366,25.190936 10.308493,25.190936 L 9.8951075,25.190936 C 8.8252347,25.190936 7.9639292,24.308248 7.9639292,23.211815 L 7.9639292,19.992382 C 7.9639292,18.895949 8.8252347,18.013262 9.8951075,18.013262 z "
       id="rect2420" />
    <path
       id="path3594"
       d="M 13.781250,11.718750 C 8.4423149,11.718750 4.1250009,16.252117 4.1250000,21.843750 C 4.1250002,27.435382 8.4423153,31.968749 13.781250,31.968750 C 17.786423,31.968750 21.219167,29.417978 22.687500,25.781250 L 24.375000,25.781250 L 26.906250,23.875000 L 27.968750,25.781250 L 33.968750,25.375000 L 35.437500,22.406250 L 37.031250,25.375000 L 38.312500,25.375000 L 39.281250,22.593750 L 40.875000,24.781250 L 42.000000,24.781250 C 42.012300,24.781250 42.022731,24.789526 42.031250,24.781250 C 42.039768,24.772973 42.062501,24.763062 42.062500,24.750000 C 42.062500,24.750000 45.187500,21.750000 45.187500,21.750000 C 45.187501,21.750000 43.937500,18.187500 43.937500,18.187500 L 22.625000,17.750000 C 21.124817,14.190065 17.733327,11.718751 13.781250,11.718750 z M 9.9062500,18.000000 L 10.312500,18.000000 C 11.382373,18.000000 12.250000,18.903567 12.250000,20.000000 L 12.250000,23.218750 C 12.250000,24.315183 11.382373,25.187500 10.312500,25.187500 L 9.9062500,25.187500 C 8.8363774,25.187500 7.9687500,24.315183 7.9687500,23.218750 L 7.9687500,20.000000 C 7.9687500,18.903567 8.8363772,18.000000 9.9062500,18.000000 z "
       style="opacity:1.0000000;fill:none;fill-opacity:1.0000000;fill-rule:evenodd;stroke:#ac8b0b;stroke-width:1.0000000;stroke-linecap:butt;stroke-linejoin:miter;stroke-miterlimit:4.0000000;stroke-dasharray:none;stroke-opacity:1.0000000"
       sodipodi:nodetypes="csscccccccccccscccccccccccccc" />
  </g>
</svg>
