<?xml version="1.0" encoding="UTF-8" standalone="no"?>
<!-- Created with Inkscape (http://www.inkscape.org/) -->
<svg
   xmlns:dc="http://purl.org/dc/elements/1.1/"
   xmlns:cc="http://web.resource.org/cc/"
   xmlns:rdf="http://www.w3.org/1999/02/22-rdf-syntax-ns#"
   xmlns:svg="http://www.w3.org/2000/svg"
   xmlns="http://www.w3.org/2000/svg"
   xmlns:xlink="http://www.w3.org/1999/xlink"
   xmlns:sodipodi="http://inkscape.sourceforge.net/DTD/sodipodi-0.dtd"
   xmlns:inkscape="http://www.inkscape.org/namespaces/inkscape"
   inkscape:export-ydpi="90.000000"
   inkscape:export-xdpi="90.000000"
   inkscape:export-filename="/data/Desktop/icons/scaleable/seahorse-share-keys.png"
   width="48px"
   height="48px"
   id="svg11300"
   sodipodi:version="0.32"
   inkscape:version="0.42"
   sodipodi:docbase="/data/Desktop/icons/scaleable"
   sodipodi:docname="seahorse-share-keys.svg">
  <defs
     id="defs3">
    <linearGradient
       id="linearGradient11520">
      <stop
         id="stop11522"
         offset="0.0000000"
         style="stop-color:#ffffff;stop-opacity:1.0000000;" />
      <stop
         id="stop11524"
         offset="1.0000000"
         style="stop-color:#dcdcdc;stop-opacity:1.0000000;" />
    </linearGradient>
    <linearGradient
       id="linearGradient11508"
       inkscape:collect="always">
      <stop
         id="stop11510"
         offset="0"
         style="stop-color:#000000;stop-opacity:1;" />
      <stop
         id="stop11512"
         offset="1"
         style="stop-color:#000000;stop-opacity:0;" />
    </linearGradient>
    <linearGradient
       id="linearGradient11494"
       inkscape:collect="always">
      <stop
         id="stop11496"
         offset="0"
         style="stop-color:#ef2929;stop-opacity:1;" />
      <stop
         id="stop11498"
         offset="1"
         style="stop-color:#ef2929;stop-opacity:0;" />
    </linearGradient>
    <radialGradient
       inkscape:collect="always"
       xlink:href="#linearGradient11508"
       id="radialGradient1348"
       gradientUnits="userSpaceOnUse"
       gradientTransform="matrix(1.000000,0.000000,0.000000,0.338462,-1.435476e-15,29.48178)"
       cx="30.203562"
       cy="44.565483"
       fx="30.203562"
       fy="44.565483"
       r="6.5659914" />
    <radialGradient
       inkscape:collect="always"
       xlink:href="#linearGradient11494"
       id="radialGradient1352"
       gradientUnits="userSpaceOnUse"
       gradientTransform="matrix(1.243453,2.106784e-16,-2.106784e-16,1.243453,-6.713754,-3.742847)"
       cx="27.577173"
       cy="16.049133"
       fx="27.577173"
       fy="16.049133"
       r="3.8335034" />
    <radialGradient
       inkscape:collect="always"
       xlink:href="#linearGradient11494"
       id="radialGradient1354"
       gradientUnits="userSpaceOnUse"
       gradientTransform="matrix(1.243453,2.106784e-16,-2.106784e-16,1.243453,-6.713754,-3.742847)"
       cx="27.577173"
       cy="15.048258"
       fx="27.577173"
       fy="15.048258"
       r="3.8335034" />
    <radialGradient
       inkscape:collect="always"
       xlink:href="#linearGradient11508"
       id="radialGradient1356"
       gradientUnits="userSpaceOnUse"
       gradientTransform="matrix(1.000000,0.000000,0.000000,0.338462,2.220359e-14,29.48178)"
       cx="30.203562"
       cy="44.565483"
       fx="30.203562"
       fy="44.565483"
       r="6.5659914" />
    <radialGradient
       inkscape:collect="always"
       xlink:href="#linearGradient11520"
       id="radialGradient1366"
       gradientUnits="userSpaceOnUse"
       gradientTransform="matrix(1.995058,-1.651527e-32,0.000000,1.995058,-24.32488,-35.70087)"
       cx="24.445690"
       cy="35.878170"
       fx="24.445690"
       fy="35.878170"
       r="20.530962" />
    <radialGradient
       r="90.000000"
       fy="515.08179"
       fx="208.84131"
       cy="515.08179"
       cx="208.84131"
       gradientTransform="matrix(0.185453,4.990015e-3,-3.493835e-3,0.146415,-26.52784,-50.89360)"
       gradientUnits="userSpaceOnUse"
       id="radialGradient3592"
       xlink:href="#linearGradient2448"
       inkscape:collect="always" />
    <radialGradient
       r="90.000000"
       fy="515.08179"
       fx="208.84131"
       cy="515.08179"
       cx="208.84131"
       gradientTransform="matrix(0.185453,4.990015e-3,-3.493835e-3,0.146415,-26.52784,-50.89360)"
       gradientUnits="userSpaceOnUse"
       id="radialGradient2609"
       xlink:href="#linearGradient2448"
       inkscape:collect="always" />
    <radialGradient
       r="90.000000"
       fy="515.08179"
       fx="208.84131"
       cy="515.08179"
       cx="208.84131"
       gradientTransform="matrix(0.185453,4.990015e-3,-3.493835e-3,0.146415,-26.52784,-70.89360)"
       gradientUnits="userSpaceOnUse"
       id="radialGradient2601"
       xlink:href="#linearGradient2448"
       inkscape:collect="always" />
    <linearGradient
       y2="459.00504"
       x2="564.28572"
       y1="459.00504"
       x1="333.57144"
       gradientTransform="matrix(9.274505e-2,0.000000,0.000000,9.848387e-2,-8.477303,-25.38746)"
       gradientUnits="userSpaceOnUse"
       id="linearGradient2577"
       xlink:href="#linearGradient2119"
       inkscape:collect="always" />
    <linearGradient
       gradientTransform="matrix(9.274505e-2,0.000000,0.000000,9.848387e-2,-8.477303,-25.38746)"
       y2="504.34375"
       x2="567.00000"
       y1="504.34375"
       x1="336.15625"
       gradientUnits="userSpaceOnUse"
       id="linearGradient2574"
       xlink:href="#linearGradient2119"
       inkscape:collect="always" />
    <radialGradient
       r="90.000000"
       fy="515.08179"
       fx="208.84131"
       cy="515.08179"
       cx="208.84131"
       gradientTransform="matrix(1.847789,4.753482e-2,-3.481129e-2,1.394748,-160.4851,-213.9218)"
       gradientUnits="userSpaceOnUse"
       id="radialGradient2522"
       xlink:href="#linearGradient2448"
       inkscape:collect="always" />
    <linearGradient
       y2="504.34375"
       x2="567.00000"
       y1="504.34375"
       x1="336.15625"
       gradientUnits="userSpaceOnUse"
       id="linearGradient2520"
       xlink:href="#linearGradient2119"
       inkscape:collect="always" />
    <linearGradient
       y2="459.00504"
       x2="564.28572"
       y1="459.00504"
       x1="333.57144"
       gradientTransform="translate(2.713108e-14,-5.103373e-6)"
       gradientUnits="userSpaceOnUse"
       id="linearGradient2518"
       xlink:href="#linearGradient2119"
       inkscape:collect="always" />
    <radialGradient
       r="90.000000"
       fy="515.08179"
       fx="208.84131"
       cy="515.08179"
       cx="208.84131"
       gradientTransform="matrix(1.847789,4.753482e-2,-3.481129e-2,1.394748,-160.4851,-213.9218)"
       gradientUnits="userSpaceOnUse"
       id="radialGradient2490"
       xlink:href="#linearGradient2448"
       inkscape:collect="always" />
    <linearGradient
       y2="459.00504"
       x2="564.28572"
       y1="459.00504"
       x1="333.57144"
       gradientTransform="translate(0.000000,-5.103373e-6)"
       gradientUnits="userSpaceOnUse"
       id="linearGradient2487"
       xlink:href="#linearGradient2119"
       inkscape:collect="always" />
    <linearGradient
       y2="504.34375"
       x2="567.00000"
       y1="504.34375"
       x1="336.15625"
       gradientUnits="userSpaceOnUse"
       id="linearGradient2484"
       xlink:href="#linearGradient2119"
       inkscape:collect="always" />
    <radialGradient
       r="90.000000"
       fy="515.08179"
       fx="208.84131"
       cy="515.08179"
       cx="208.84131"
       gradientTransform="matrix(1.847789,4.753482e-2,-3.481129e-2,1.394748,-160.4851,-213.9218)"
       gradientUnits="userSpaceOnUse"
       id="radialGradient2478"
       xlink:href="#linearGradient2448"
       inkscape:collect="always" />
    <linearGradient
       y2="504.34375"
       x2="567.00000"
       y1="504.34375"
       x1="336.15625"
       gradientUnits="userSpaceOnUse"
       id="linearGradient2476"
       xlink:href="#linearGradient2119"
       inkscape:collect="always" />
    <linearGradient
       y2="459.00504"
       x2="564.28572"
       y1="459.00504"
       x1="333.57144"
       gradientTransform="translate(0.000000,-5.103373e-6)"
       gradientUnits="userSpaceOnUse"
       id="linearGradient2474"
       xlink:href="#linearGradient2119"
       inkscape:collect="always" />
    <radialGradient
       r="90.000000"
       fy="515.08179"
       fx="208.84131"
       cy="515.08179"
       cx="208.84131"
       gradientTransform="matrix(1.847789,4.753482e-2,-3.481129e-2,1.394748,-160.4851,-213.9218)"
       gradientUnits="userSpaceOnUse"
       id="radialGradient2446"
       xlink:href="#linearGradient2448"
       inkscape:collect="always" />
    <radialGradient
       r="90.000000"
       fy="515.08179"
       fx="208.84131"
       cy="515.08179"
       cx="208.84131"
       gradientTransform="matrix(1.848149,2.978268e-2,-1.548075e-2,0.990149,-170.5172,-1.812833)"
       gradientUnits="userSpaceOnUse"
       id="radialGradient2438"
       xlink:href="#linearGradient2414"
       inkscape:collect="always" />
    <radialGradient
       gradientUnits="userSpaceOnUse"
       gradientTransform="matrix(1.826087,2.970972e-2,-1.529595e-2,0.987724,-166.6825,-0.415230)"
       r="90.000000"
       fy="515.08179"
       fx="208.84131"
       cy="515.08179"
       cx="208.84131"
       id="radialGradient2412"
       xlink:href="#linearGradient2414"
       inkscape:collect="always" />
    <linearGradient
       gradientUnits="userSpaceOnUse"
       y2="504.34375"
       x2="567.00000"
       y1="504.34375"
       x1="336.15625"
       id="linearGradient2376"
       xlink:href="#linearGradient2119"
       inkscape:collect="always" />
    <linearGradient
       gradientTransform="translate(0.000000,-5.103373e-6)"
       gradientUnits="userSpaceOnUse"
       y2="459.00504"
       x2="564.28572"
       y1="459.00504"
       x1="333.57144"
       id="linearGradient2125"
       xlink:href="#linearGradient2119"
       inkscape:collect="always" />
    <linearGradient
       id="linearGradient2041">
      <stop
         id="stop2043"
         offset="0.0000000"
         style="stop-color:#d9d9d9;stop-opacity:1.0000000;" />
      <stop
         id="stop2045"
         offset="1"
         style="stop-color:#d9d9d9;stop-opacity:0;" />
    </linearGradient>
    <linearGradient
       id="linearGradient2119">
      <stop
         id="stop2121"
         offset="0.0000000"
         style="stop-color:#d2b32a;stop-opacity:0.56730771;" />
      <stop
         style="stop-color:#ffeb3f;stop-opacity:0.72156864;"
         offset="0.11000000"
         id="stop2378" />
      <stop
         id="stop2123"
         offset="1.0000000"
         style="stop-color:#fff493;stop-opacity:0.23076923;" />
    </linearGradient>
    <linearGradient
       id="linearGradient2390">
      <stop
         style="stop-color:#ac8b0b;stop-opacity:1;"
         offset="0"
         id="stop2392" />
      <stop
         style="stop-color:#ac8b0b;stop-opacity:0;"
         offset="1"
         id="stop2394" />
    </linearGradient>
    <linearGradient
       id="linearGradient2414">
      <stop
         id="stop2416"
         offset="0.0000000"
         style="stop-color:#f8e082;stop-opacity:1.0000000;" />
      <stop
         id="stop2418"
         offset="1.0000000"
         style="stop-color:#cba40d;stop-opacity:1.0000000;" />
    </linearGradient>
    <linearGradient
       id="linearGradient2448">
      <stop
         style="stop-color:#c8a20b;stop-opacity:1.0000000;"
         offset="0.0000000"
         id="stop2450" />
      <stop
         style="stop-color:#f7e87b;stop-opacity:1.0000000"
         offset="1.0000000"
         id="stop2452" />
    </linearGradient>
    <radialGradient
       inkscape:collect="always"
       xlink:href="#linearGradient11494"
       id="radialGradient1418"
       gradientUnits="userSpaceOnUse"
       gradientTransform="matrix(1.243453,2.106784e-16,-2.106784e-16,1.243453,-6.713754,-3.742847)"
       cx="27.577173"
       cy="16.049133"
       fx="27.577173"
       fy="16.049133"
       r="3.8335034" />
    <radialGradient
       inkscape:collect="always"
       xlink:href="#linearGradient11494"
       id="radialGradient1420"
       gradientUnits="userSpaceOnUse"
       gradientTransform="matrix(1.243453,2.106784e-16,-2.106784e-16,1.243453,-6.713754,-3.742847)"
       cx="27.577173"
       cy="15.048258"
       fx="27.577173"
       fy="15.048258"
       r="3.8335034" />
  </defs>
  <sodipodi:namedview
     stroke="#ef2929"
     fill="#eeeeec"
     id="base"
     pagecolor="#ffffff"
     bordercolor="#666666"
     borderopacity="0.76470588"
     inkscape:pageopacity="0.0"
     inkscape:pageshadow="2"
     inkscape:zoom="14.645833"
     inkscape:cx="24.000000"
     inkscape:cy="22.975818"
     inkscape:current-layer="layer1"
     showgrid="true"
     inkscape:grid-bbox="true"
     inkscape:document-units="px"
     inkscape:showpageshadow="false"
     inkscape:window-width="876"
     inkscape:window-height="875"
     inkscape:window-x="206"
     inkscape:window-y="25" />
  <metadata
     id="metadata4">
    <rdf:RDF>
      <cc:Work
         rdf:about="">
        <dc:format>image/svg+xml</dc:format>
        <dc:type
           rdf:resource="http://purl.org/dc/dcmitype/StillImage" />
        <dc:creator>
          <cc:Agent>
            <dc:title>Jakub Steiner</dc:title>
          </cc:Agent>
        </dc:creator>
        <dc:source>http://jimmac.musichall.cz</dc:source>
        <cc:license
           rdf:resource="http://creativecommons.org/licenses/by-sa/2.0/" />
        <dc:title>Wi-Fi network</dc:title>
      </cc:Work>
      <cc:License
         rdf:about="http://creativecommons.org/licenses/by-sa/2.0/">
        <cc:permits
           rdf:resource="http://web.resource.org/cc/Reproduction" />
        <cc:permits
           rdf:resource="http://web.resource.org/cc/Distribution" />
        <cc:requires
           rdf:resource="http://web.resource.org/cc/Notice" />
        <cc:requires
           rdf:resource="http://web.resource.org/cc/Attribution" />
        <cc:permits
           rdf:resource="http://web.resource.org/cc/DerivativeWorks" />
        <cc:requires
           rdf:resource="http://web.resource.org/cc/ShareAlike" />
      </cc:License>
    </rdf:RDF>
  </metadata>
  <g
     id="layer1"
     inkscape:label="Layer 1"
     inkscape:groupmode="layer">
    <g
       id="g1413"
       transform="translate(0.000000,3.000000)">
      <path
         sodipodi:type="arc"
         style="opacity:1.0000000;color:#000000;fill:#ef2929;fill-opacity:1.0000000;fill-rule:evenodd;stroke:none;stroke-width:0.99999982;stroke-linecap:butt;stroke-linejoin:miter;marker:none;marker-start:none;marker-mid:none;marker-end:none;stroke-miterlimit:10.000000;stroke-dasharray:none;stroke-dashoffset:0.0000000;stroke-opacity:1.0000000;visibility:visible;display:inline;overflow:visible"
         id="path11482"
         sodipodi:cx="27.577164"
         sodipodi:cy="18.604561"
         sodipodi:rx="3.3335035"
         sodipodi:ry="3.3335035"
         d="M 30.910667 18.604561 A 3.3335035 3.3335035 0 1 1  24.243660,18.604561 A 3.3335035 3.3335035 0 1 1  30.910667 18.604561 z"
         transform="matrix(0.689220,0.000000,0.000000,0.689220,5.268155,6.069000)" />
      <path
         transform="matrix(2.382303,0.000000,0.000000,2.382303,-41.42229,-25.43007)"
         d="M 30.910667 18.604561 A 3.3335035 3.3335035 0 1 1  24.243660,18.604561 A 3.3335035 3.3335035 0 1 1  30.910667 18.604561 z"
         sodipodi:ry="3.3335035"
         sodipodi:rx="3.3335035"
         sodipodi:cy="18.604561"
         sodipodi:cx="27.577164"
         id="path11488"
         style="opacity:1.0000000;color:#000000;fill:none;fill-opacity:1.0000000;fill-rule:evenodd;stroke:url(#radialGradient1418);stroke-width:1.1812764;stroke-linecap:butt;stroke-linejoin:miter;marker:none;marker-start:none;marker-mid:none;marker-end:none;stroke-miterlimit:10.000000;stroke-dasharray:none;stroke-dashoffset:0.0000000;stroke-opacity:1.0000000;visibility:visible;display:inline;overflow:visible"
         sodipodi:type="arc" />
      <path
         sodipodi:type="arc"
         style="opacity:1.0000000;color:#000000;fill:none;fill-opacity:1.0000000;fill-rule:evenodd;stroke:url(#radialGradient1420);stroke-width:0.60420674;stroke-linecap:butt;stroke-linejoin:miter;marker:none;marker-start:none;marker-mid:none;marker-end:none;stroke-miterlimit:10.000000;stroke-dasharray:none;stroke-dashoffset:0.0000000;stroke-opacity:1.0000000;visibility:visible;display:inline;overflow:visible"
         id="path11490"
         sodipodi:cx="27.577164"
         sodipodi:cy="18.604561"
         sodipodi:rx="3.3335035"
         sodipodi:ry="3.3335035"
         d="M 30.910667 18.604561 A 3.3335035 3.3335035 0 1 1  24.243660,18.604561 A 3.3335035 3.3335035 0 1 1  30.910667 18.604561 z"
         transform="matrix(4.657608,0.000000,0.000000,4.657608,-104.1690,-67.76113)" />
    </g>
    <g
       style="display:inline"
       id="g1403"
       inkscape:label="Layer 1"
       transform="translate(-0.625000,11.78125)">
      <path
         sodipodi:nodetypes="csscccccccccccscccccccccccccc"
         id="path1306"
         d="M 13.781250,11.718750 C 8.4423149,11.718750 4.1250009,16.252117 4.1250000,21.843750 C 4.1250002,27.435382 8.4423153,31.968749 13.781250,31.968750 C 17.786423,31.968750 21.219167,29.417978 22.687500,25.781250 L 24.375000,25.781250 L 26.906250,24.375000 L 27.468750,25.781250 L 34.468750,25.375000 L 35.437500,23.906250 L 36.531250,25.375000 L 38.312500,25.375000 L 39.281250,23.093750 L 40.375000,24.781250 L 42.000000,24.781250 C 42.012300,24.781250 42.022731,24.789526 42.031250,24.781250 C 42.039768,24.772973 42.062501,24.763062 42.062500,24.750000 C 42.062500,24.750000 45.187500,21.750000 45.187500,21.750000 C 45.187501,21.750000 43.937500,18.187500 43.937500,18.187500 L 22.625000,17.750000 C 21.124817,14.190065 17.733327,11.718751 13.781250,11.718750 z M 9.9062500,18.000000 L 10.312500,18.000000 C 11.382373,18.000000 12.250000,18.903567 12.250000,20.000000 L 12.250000,23.218750 C 12.250000,24.315183 11.382373,25.187500 10.312500,25.187500 L 9.9062500,25.187500 C 8.8363774,25.187500 7.9687500,24.315183 7.9687500,23.218750 L 7.9687500,20.000000 C 7.9687500,18.903567 8.8363772,18.000000 9.9062500,18.000000 z "
         style="opacity:1.0000000;fill:#dabf3c;fill-opacity:1.0000000;fill-rule:evenodd;stroke:none;stroke-width:1.0000000;stroke-linecap:butt;stroke-linejoin:round;stroke-miterlimit:4.0000000;stroke-dasharray:none;stroke-opacity:1.0000000" />
      <path
         sodipodi:nodetypes="ccccccccc"
         id="rect2116"
         d="M 22.504203,18.754914 L 43.812998,19.068782 C 43.837600,19.068782 43.857404,19.085537 43.857404,19.106351 L 43.857404,20.096119 C 43.857404,20.116932 43.837600,20.133688 43.812998,20.133688 L 22.504203,19.819821 C 22.479603,19.819821 22.459797,19.803064 22.459797,19.782251 L 22.459797,18.792484 C 22.459797,18.771670 22.479603,18.754914 22.504203,18.754914 z "
         style="fill:url(#linearGradient2577);fill-opacity:1.0000000;fill-rule:evenodd;stroke:none;stroke-width:0.31200001;stroke-linecap:butt;stroke-linejoin:round;stroke-miterlimit:4.0000000;stroke-opacity:1.0000000" />
      <path
         sodipodi:nodetypes="ccccccccccccccscc"
         id="path2363"
         d="M 44.109140,22.592650 L 22.737203,22.638815 C 22.715573,22.638815 22.699524,22.687382 22.699525,22.749609 L 22.699525,25.577943 L 24.377446,25.577943 L 26.899137,24.171470 L 27.467200,25.577943 L 34.454960,25.184007 L 35.443275,23.694439 L 36.521436,25.184007 L 38.298083,25.184007 L 39.286398,22.906568 L 40.364559,24.593104 L 42.010784,24.593104 C 42.023084,24.593104 42.034146,24.589069 42.042665,24.580794 C 42.051182,24.572516 42.057157,24.560002 42.057156,24.546940 C 42.057156,24.546940 43.183241,23.474698 44.109140,22.592650 z "
         style="opacity:1.0000000;fill:url(#linearGradient2574);fill-opacity:1.0000000;fill-rule:evenodd;stroke:none;stroke-width:1.0000000;stroke-linecap:butt;stroke-linejoin:round;stroke-miterlimit:4.0000000;stroke-dasharray:none;stroke-opacity:1.0000000" />
      <g
         transform="matrix(1.014890,0.000000,0.000000,1.014890,-0.204735,-0.324784)"
         id="g3586">
        <path
           style="fill:url(#radialGradient3592);fill-opacity:1.0000000;fill-rule:evenodd;stroke:none;stroke-width:0.31200001;stroke-linecap:butt;stroke-linejoin:round;stroke-miterlimit:4.0000000;stroke-opacity:1.0000000"
           d="M 13.750000,12.375000 C 8.7638665,12.375000 4.7187502,16.602894 4.7187500,21.812500 C 4.7187500,27.022106 8.7638668,31.250000 13.750000,31.250000 C 18.736133,31.250000 22.781250,27.022106 22.781250,21.812500 C 22.781250,16.602894 18.736133,12.375000 13.750000,12.375000 z M 9.9062500,18.000000 L 10.312500,18.000000 C 11.382373,18.000000 12.250000,18.903567 12.250000,20.000000 L 12.250000,23.218750 C 12.250000,24.315183 11.382373,25.187500 10.312500,25.187500 L 9.9062500,25.187500 C 8.8363774,25.187500 7.9687500,24.315183 7.9687500,23.218750 L 7.9687500,20.000000 C 7.9687500,18.903567 8.8363772,18.000000 9.9062500,18.000000 z "
           id="path2380" />
        <path
           style="opacity:0.45405403;fill:#c4a00f;fill-opacity:1.0000000;fill-rule:evenodd;stroke:none;stroke-width:0.31200001;stroke-linecap:butt;stroke-linejoin:round;stroke-miterlimit:4.0000000;stroke-opacity:1.0000000"
           d="M 21.593750,17.156250 C 17.079155,17.492669 15.849116,19.744922 12.250000,22.187500 L 12.250000,23.218750 C 12.250000,24.315183 11.382373,25.187500 10.312500,25.187500 L 9.9062500,25.187500 C 9.2380920,25.187500 8.7214707,24.806852 8.3750000,24.281250 C 7.2850437,24.683838 6.2681979,24.885104 5.2500000,25.031250 C 6.5096603,28.658990 9.8445697,31.249999 13.750000,31.250000 C 18.736151,31.250001 22.781249,27.022118 22.781250,21.812500 C 22.781250,20.117611 22.343403,18.531564 21.593750,17.156250 z "
           id="path2440" />
      </g>
      <path
         id="rect2420"
         d="M 9.8951075,18.013262 L 10.308493,18.013262 C 11.378366,18.013262 12.239672,18.895949 12.239672,19.992382 L 12.239672,23.211815 C 12.239672,24.308248 11.378366,25.190936 10.308493,25.190936 L 9.8951075,25.190936 C 8.8252347,25.190936 7.9639292,24.308248 7.9639292,23.211815 L 7.9639292,19.992382 C 7.9639292,18.895949 8.8252347,18.013262 9.8951075,18.013262 z "
         style="fill:none;fill-opacity:0.94117647;fill-rule:evenodd;stroke:#ac8b0b;stroke-width:1.0000000;stroke-linecap:butt;stroke-linejoin:round;stroke-miterlimit:4.0000000;stroke-dasharray:none;stroke-opacity:1.0000000" />
      <path
         sodipodi:nodetypes="csscccccccccccscccccccccccccc"
         style="opacity:1.0000000;fill:none;fill-opacity:1.0000000;fill-rule:evenodd;stroke:#ac8b0b;stroke-width:1.0000000;stroke-linecap:butt;stroke-linejoin:miter;stroke-miterlimit:4.0000000;stroke-dasharray:none;stroke-opacity:1.0000000"
         d="M 13.781250,11.718750 C 8.4423149,11.718750 4.1250009,16.252117 4.1250000,21.843750 C 4.1250002,27.435382 8.4423153,31.968749 13.781250,31.968750 C 17.786423,31.968750 21.219167,29.417978 22.687500,25.781250 L 24.375000,25.781250 L 26.906250,23.875000 L 27.968750,25.781250 L 33.968750,25.375000 L 35.437500,22.406250 L 37.031250,25.375000 L 38.312500,25.375000 L 39.281250,22.593750 L 40.875000,24.781250 L 42.000000,24.781250 C 42.012300,24.781250 42.022731,24.789526 42.031250,24.781250 C 42.039768,24.772973 42.062501,24.763062 42.062500,24.750000 C 42.062500,24.750000 45.187500,21.750000 45.187500,21.750000 C 45.187501,21.750000 43.937500,18.187500 43.937500,18.187500 L 22.625000,17.750000 C 21.124817,14.190065 17.733327,11.718751 13.781250,11.718750 z M 9.9062500,18.000000 L 10.312500,18.000000 C 11.382373,18.000000 12.250000,18.903567 12.250000,20.000000 L 12.250000,23.218750 C 12.250000,24.315183 11.382373,25.187500 10.312500,25.187500 L 9.9062500,25.187500 C 8.8363774,25.187500 7.9687500,24.315183 7.9687500,23.218750 L 7.9687500,20.000000 C 7.9687500,18.903567 8.8363772,18.000000 9.9062500,18.000000 z "
         id="path3594" />
    </g>
  </g>
</svg>
