<?xml version="1.0" encoding="UTF-8" standalone="no"?>
<svg
   xmlns:dc="http://purl.org/dc/elements/1.1/"
   xmlns:cc="http://creativecommons.org/ns#"
   xmlns:rdf="http://www.w3.org/1999/02/22-rdf-syntax-ns#"
   xmlns:svg="http://www.w3.org/2000/svg"
   xmlns="http://www.w3.org/2000/svg"
   xmlns:xlink="http://www.w3.org/1999/xlink"
   viewBox="0 0 128 128"
   style="display:inline;enable-background:new"
   version="1.0"
   id="svg11300"
   height="128"
   width="128">
  <title
     id="title4162">Adwaita Icon Template</title>
  <defs
     id="defs3">
    <linearGradient
       id="linearGradient1296">
      <stop
         id="stop1292"
         offset="0"
         style="stop-color:#77767b;stop-opacity:1;" />
      <stop
         style="stop-color:#c0bfbc;stop-opacity:1"
         offset="0.17589436"
         id="stop1300" />
      <stop
         id="stop1302"
         offset="0.4092612"
         style="stop-color:#77767b;stop-opacity:1" />
      <stop
         id="stop1294"
         offset="1"
         style="stop-color:#3d3846;stop-opacity:1" />
    </linearGradient>
    <linearGradient
       id="linearGradient975">
      <stop
         id="stop971"
         offset="0"
         style="stop-color:#deddda;stop-opacity:1" />
      <stop
         id="stop973"
         offset="1"
         style="stop-color:#ffffff;stop-opacity:1" />
    </linearGradient>
    <linearGradient
       id="linearGradient969">
      <stop
         style="stop-color:#f6f5f4;stop-opacity:1"
         offset="0"
         id="stop963" />
      <stop
         id="stop965"
         offset="0.25731823"
         style="stop-color:#ffffff;stop-opacity:1" />
      <stop
         style="stop-color:#c0bfbc;stop-opacity:1"
         offset="0.5999999"
         id="stop1085" />
      <stop
         id="stop1087"
         offset="0.70312482"
         style="stop-color:#f6f5f4;stop-opacity:1" />
      <stop
         style="stop-color:#f6f5f4;stop-opacity:1"
         offset="1"
         id="stop967" />
    </linearGradient>
    <linearGradient
       id="linearGradient1040">
      <stop
         style="stop-color:#c0bfbc;stop-opacity:1"
         offset="0"
         id="stop1036" />
      <stop
         style="stop-color:#f6f5f4;stop-opacity:1"
         offset="1"
         id="stop1038" />
    </linearGradient>
    <linearGradient
       gradientUnits="userSpaceOnUse"
       y2="67.472275"
       x2="88.715393"
       y1="70.508194"
       x1="85.679466"
       id="linearGradient914-6-2"
       xlink:href="#linearGradient1040"
       gradientTransform="rotate(45,96.317386,-55.06723)" />
    <linearGradient
       y2="244.77818"
       x2="72.435028"
       y1="237.70711"
       x1="79.506096"
       gradientTransform="matrix(-0.70710678,0.70710678,0.70710678,0.70710678,-23.865009,4.6963868)"
       gradientUnits="userSpaceOnUse"
       id="linearGradient1932"
       xlink:href="#linearGradient969" />
    <linearGradient
       y2="69.613197"
       x2="86.574471"
       y1="67.679771"
       x1="88.507896"
       gradientTransform="matrix(-0.70710678,0.70710678,0.70710678,0.70710678,96.727711,126.23551)"
       gradientUnits="userSpaceOnUse"
       id="linearGradient1934"
       xlink:href="#linearGradient975" />
    <linearGradient
       gradientUnits="userSpaceOnUse"
       y2="20"
       x2="20"
       y1="20"
       x1="59.979103"
       id="linearGradient1298"
       xlink:href="#linearGradient1296" />
    <linearGradient
       y2="20"
       x2="20"
       y1="20"
       x1="59.979103"
       gradientUnits="userSpaceOnUse"
       id="linearGradient1036"
       xlink:href="#linearGradient1296" />
  </defs>
  <metadata
     id="metadata4">
    <rdf:RDF>
      <cc:Work
         rdf:about="">
        <dc:format>image/svg+xml</dc:format>
        <dc:type
           rdf:resource="http://purl.org/dc/dcmitype/StillImage" />
        <dc:creator>
          <cc:Agent>
            <dc:title>GNOME Design Team</dc:title>
          </cc:Agent>
        </dc:creator>
        <dc:source />
        <cc:license
           rdf:resource="http://creativecommons.org/licenses/by-sa/4.0/" />
        <dc:title>Adwaita Icon Template</dc:title>
        <dc:subject>
          <rdf:Bag />
        </dc:subject>
        <dc:date />
        <dc:rights>
          <cc:Agent>
            <dc:title />
          </cc:Agent>
        </dc:rights>
        <dc:publisher>
          <cc:Agent>
            <dc:title />
          </cc:Agent>
        </dc:publisher>
        <dc:identifier />
        <dc:relation />
        <dc:language />
        <dc:coverage />
        <dc:description />
        <dc:contributor>
          <cc:Agent>
            <dc:title />
          </cc:Agent>
        </dc:contributor>
      </cc:Work>
      <cc:License
         rdf:about="http://creativecommons.org/licenses/by-sa/4.0/">
        <cc:permits
           rdf:resource="http://creativecommons.org/ns#Reproduction" />
        <cc:permits
           rdf:resource="http://creativecommons.org/ns#Distribution" />
        <cc:requires
           rdf:resource="http://creativecommons.org/ns#Notice" />
        <cc:requires
           rdf:resource="http://creativecommons.org/ns#Attribution" />
        <cc:permits
           rdf:resource="http://creativecommons.org/ns#DerivativeWorks" />
        <cc:requires
           rdf:resource="http://creativecommons.org/ns#ShareAlike" />
      </cc:License>
    </rdf:RDF>
  </metadata>
  <g
     transform="translate(0,-172)"
     style="display:inline"
     id="layer1">
    <g
       style="display:inline"
       id="layer9">
      <rect
         style="display:inline;opacity:1;fill:#2ec27e;fill-opacity:1;stroke:none;stroke-width:1;stroke-linecap:butt;stroke-linejoin:miter;stroke-miterlimit:4;stroke-dasharray:none;stroke-dashoffset:0;stroke-opacity:1;marker:none;marker-start:none;marker-mid:none;marker-end:none;paint-order:normal;enable-background:new"
         id="rect1027"
         width="448"
         height="255.99991"
         x="32"
         y="-52"
         rx="32"
         ry="32"
         transform="matrix(0.25,0,0,0.25,6.9488522e-8,225)" />
      <g
         style="opacity:1;stroke:#26a269"
         id="g1256">
        <path
           style="fill:none;fill-rule:evenodd;stroke:#26a269;stroke-width:2;stroke-linecap:butt;stroke-linejoin:miter;stroke-miterlimit:4;stroke-dasharray:none;stroke-opacity:1"
           d="m 27,230 v 14"
           id="path1164" />
        <path
           id="path1166"
           d="m 32,230 v 14"
           style="fill:none;fill-rule:evenodd;stroke:#26a269;stroke-width:4;stroke-linecap:butt;stroke-linejoin:miter;stroke-miterlimit:4;stroke-dasharray:none;stroke-opacity:1" />
        <path
           id="path1168"
           d="m 37,230 v 14"
           style="fill:none;fill-rule:evenodd;stroke:#26a269;stroke-width:2;stroke-linecap:butt;stroke-linejoin:miter;stroke-miterlimit:4;stroke-dasharray:none;stroke-opacity:1" />
        <path
           style="fill:none;fill-rule:evenodd;stroke:#26a269;stroke-width:2;stroke-linecap:butt;stroke-linejoin:miter;stroke-miterlimit:4;stroke-dasharray:none;stroke-opacity:1"
           d="m 41,230 v 14"
           id="path1170" />
        <path
           style="fill:none;fill-rule:evenodd;stroke:#26a269;stroke-width:4;stroke-linecap:butt;stroke-linejoin:miter;stroke-miterlimit:4;stroke-dasharray:none;stroke-opacity:1"
           d="m 46,230 v 14"
           id="path1172" />
        <path
           id="path1174"
           d="m 56,230 v 14"
           style="fill:none;fill-rule:evenodd;stroke:#26a269;stroke-width:4;stroke-linecap:butt;stroke-linejoin:miter;stroke-miterlimit:4;stroke-dasharray:none;stroke-opacity:1" />
        <path
           style="fill:none;fill-rule:evenodd;stroke:#26a269;stroke-width:2;stroke-linecap:butt;stroke-linejoin:miter;stroke-miterlimit:4;stroke-dasharray:none;stroke-opacity:1"
           d="m 51,230 v 14"
           id="path1176" />
        <path
           id="path1178"
           d="m 63,230 v 14"
           style="fill:none;fill-rule:evenodd;stroke:#26a269;stroke-width:6;stroke-linecap:butt;stroke-linejoin:miter;stroke-miterlimit:4;stroke-dasharray:none;stroke-opacity:1" />
        <path
           id="path1180"
           d="m 69,230 v 14"
           style="fill:none;fill-rule:evenodd;stroke:#26a269;stroke-width:2;stroke-linecap:butt;stroke-linejoin:miter;stroke-miterlimit:4;stroke-dasharray:none;stroke-opacity:1" />
        <path
           id="path1182"
           d="m 73,230 v 14"
           style="fill:none;fill-rule:evenodd;stroke:#26a269;stroke-width:2;stroke-linecap:butt;stroke-linejoin:miter;stroke-miterlimit:4;stroke-dasharray:none;stroke-opacity:1" />
        <path
           style="fill:none;fill-rule:evenodd;stroke:#26a269;stroke-width:2;stroke-linecap:butt;stroke-linejoin:miter;stroke-miterlimit:4;stroke-dasharray:none;stroke-opacity:1"
           d="m 77,230 v 14"
           id="path1184" />
        <path
           style="fill:none;fill-rule:evenodd;stroke:#26a269;stroke-width:4;stroke-linecap:butt;stroke-linejoin:miter;stroke-miterlimit:4;stroke-dasharray:none;stroke-opacity:1"
           d="m 82,230 v 14"
           id="path1186" />
        <path
           id="path1188"
           d="m 87,230 v 14"
           style="fill:none;fill-rule:evenodd;stroke:#26a269;stroke-width:2;stroke-linecap:butt;stroke-linejoin:miter;stroke-miterlimit:4;stroke-dasharray:none;stroke-opacity:1" />
        <path
           style="fill:none;fill-rule:evenodd;stroke:#26a269;stroke-width:2;stroke-linecap:butt;stroke-linejoin:miter;stroke-miterlimit:4;stroke-dasharray:none;stroke-opacity:1"
           d="m 99,230 v 14"
           id="path1190" />
        <path
           style="fill:none;fill-rule:evenodd;stroke:#26a269;stroke-width:6;stroke-linecap:butt;stroke-linejoin:miter;stroke-miterlimit:4;stroke-dasharray:none;stroke-opacity:1"
           d="m 93,230 v 14"
           id="path1192" />
        <path
           id="path1194"
           d="m 103,230 v 14"
           style="fill:none;fill-rule:evenodd;stroke:#26a269;stroke-width:2;stroke-linecap:butt;stroke-linejoin:miter;stroke-miterlimit:4;stroke-dasharray:none;stroke-opacity:1" />
        <path
           style="fill:none;fill-rule:evenodd;stroke:#26a269;stroke-width:2;stroke-linecap:butt;stroke-linejoin:miter;stroke-miterlimit:4;stroke-dasharray:none;stroke-opacity:1"
           d="m 107,230 v 14"
           id="path1196" />
      </g>
      <g
         style="fill:#8ff0a4"
         id="g1130">
        <path
           style="font-style:normal;font-variant:normal;font-weight:800;font-stretch:normal;font-size:medium;line-height:1000%;font-family:Cantarell;-inkscape-font-specification:'Cantarell Ultra-Bold';letter-spacing:2px;word-spacing:0px;fill:#8ff0a4;fill-opacity:1;stroke:none;stroke-width:0.74077076px;stroke-linecap:butt;stroke-linejoin:miter;stroke-opacity:1"
           d="m 22.21582,254 1.197265,5.06836 -3.90039,-3.2793 -1.453125,2.5918 5.009765,1.6582 -5.042968,1.58985 1.433593,2.64062 3.955078,-3.30469 L 22.21582,266 h 3.410156 l -1.101562,-4.95898 3.833984,3.31445 1.476562,-2.61914 -4.978515,-1.68555 5.117187,-1.42578 -1.453125,-2.61914 -4.033203,3.08398 L 25.624023,254 Z"
           id="path1940" />
        <path
           id="path1056"
           d="m 38.21582,254 1.197265,5.06836 -3.90039,-3.2793 -1.453125,2.5918 5.009765,1.6582 -5.042968,1.58985 1.433593,2.64062 3.955078,-3.30469 L 38.21582,266 h 3.410156 l -1.101562,-4.95898 3.833984,3.31445 1.476562,-2.61914 -4.978515,-1.68555 5.117187,-1.42578 -1.453125,-2.61914 -4.033203,3.08398 L 41.624023,254 Z"
           style="font-style:normal;font-variant:normal;font-weight:800;font-stretch:normal;font-size:medium;line-height:1000%;font-family:Cantarell;-inkscape-font-specification:'Cantarell Ultra-Bold';letter-spacing:2px;word-spacing:0px;fill:#8ff0a4;fill-opacity:1;stroke:none;stroke-width:0.74077076px;stroke-linecap:butt;stroke-linejoin:miter;stroke-opacity:1" />
        <path
           style="font-style:normal;font-variant:normal;font-weight:800;font-stretch:normal;font-size:medium;line-height:1000%;font-family:Cantarell;-inkscape-font-specification:'Cantarell Ultra-Bold';letter-spacing:2px;word-spacing:0px;fill:#8ff0a4;fill-opacity:1;stroke:none;stroke-width:0.74077076px;stroke-linecap:butt;stroke-linejoin:miter;stroke-opacity:1"
           d="m 54.21582,254 1.197265,5.06836 -3.90039,-3.2793 -1.453125,2.5918 5.009765,1.6582 -5.042968,1.58985 1.433593,2.64062 3.955078,-3.30469 L 54.21582,266 h 3.410156 l -1.101562,-4.95898 3.833984,3.31445 1.476562,-2.61914 -4.978515,-1.68555 5.117187,-1.42578 -1.453125,-2.61914 -4.033203,3.08398 L 57.624023,254 Z"
           id="path1062" />
        <path
           id="path1068"
           d="m 70.21582,254 1.197265,5.06836 -3.90039,-3.2793 -1.453125,2.5918 5.009765,1.6582 -5.042968,1.58985 1.433593,2.64062 3.955078,-3.30469 L 70.21582,266 h 3.410156 l -1.101562,-4.95898 3.833984,3.31445 1.476562,-2.61914 -4.978515,-1.68555 5.117187,-1.42578 -1.453125,-2.61914 -4.033203,3.08398 L 73.624023,254 Z"
           style="font-style:normal;font-variant:normal;font-weight:800;font-stretch:normal;font-size:medium;line-height:1000%;font-family:Cantarell;-inkscape-font-specification:'Cantarell Ultra-Bold';letter-spacing:2px;word-spacing:0px;fill:#8ff0a4;fill-opacity:1;stroke:none;stroke-width:0.74077076px;stroke-linecap:butt;stroke-linejoin:miter;stroke-opacity:1" />
        <path
           style="font-style:normal;font-variant:normal;font-weight:800;font-stretch:normal;font-size:medium;line-height:1000%;font-family:Cantarell;-inkscape-font-specification:'Cantarell Ultra-Bold';letter-spacing:2px;word-spacing:0px;fill:#8ff0a4;fill-opacity:1;stroke:none;stroke-width:0.74077076px;stroke-linecap:butt;stroke-linejoin:miter;stroke-opacity:1"
           d="m 86.21582,254 1.197265,5.06836 -3.90039,-3.2793 -1.453125,2.5918 5.009765,1.6582 -5.042968,1.58985 1.433593,2.64062 3.955078,-3.30469 L 86.21582,266 h 3.410156 l -1.101562,-4.95898 3.833984,3.31445 1.476562,-2.61914 -4.978515,-1.68555 5.117187,-1.42578 -1.453125,-2.61914 -4.033203,3.08398 L 89.624023,254 Z"
           id="path1074" />
        <path
           id="path1080"
           d="m 102.21582,254 1.19726,5.06836 -3.900385,-3.2793 -1.453125,2.5918 5.00976,1.6582 -5.042963,1.58985 1.433593,2.64062 3.95508,-3.30469 L 102.21582,266 h 3.41016 l -1.10157,-4.95898 3.83399,3.31445 1.47656,-2.61914 -4.97851,-1.68555 5.11718,-1.42578 -1.45312,-2.61914 -4.03321,3.08398 L 105.62402,254 Z"
           style="font-style:normal;font-variant:normal;font-weight:800;font-stretch:normal;font-size:medium;line-height:1000%;font-family:Cantarell;-inkscape-font-specification:'Cantarell Ultra-Bold';letter-spacing:2px;word-spacing:0px;fill:#8ff0a4;fill-opacity:1;stroke:none;stroke-width:0.74077076px;stroke-linecap:butt;stroke-linejoin:miter;stroke-opacity:1" />
      </g>
      <rect
         transform="matrix(0.25,0,0,0.25,6.9488522e-8,225)"
         ry="32"
         rx="32"
         y="-116"
         x="32"
         height="96"
         width="448"
         id="rect954"
         style="display:inline;opacity:1;fill:#2ec27e;fill-opacity:1;stroke:none;stroke-width:1;stroke-linecap:butt;stroke-linejoin:miter;stroke-miterlimit:4;stroke-dasharray:none;stroke-dashoffset:0;stroke-opacity:1;marker:none;marker-start:none;marker-mid:none;marker-end:none;paint-order:normal;enable-background:new" />
      <rect
         y="208"
         x="8"
         height="16"
         width="112"
         id="rect961"
         style="display:inline;opacity:1;fill:#241f31;fill-opacity:1;stroke:none;stroke-width:0.25;stroke-linecap:butt;stroke-linejoin:miter;stroke-miterlimit:4;stroke-dasharray:none;stroke-dashoffset:0;stroke-opacity:1;marker:none;marker-start:none;marker-mid:none;marker-end:none;paint-order:normal;enable-background:new" />
      <path
         id="path1138"
         d="m 22,232 -6,5 6,5 z"
         style="fill:#26a269;fill-opacity:1;fill-rule:evenodd;stroke:none;stroke-width:1px;stroke-linecap:butt;stroke-linejoin:miter;stroke-opacity:1" />
      <g
         transform="translate(-42)"
         id="g1090">
        <g
           style="fill:#77767b;fill-opacity:1"
           id="g967"
           transform="rotate(180,130,225.5)">
          <path
             transform="rotate(180,107,137.5)"
             style="display:inline;opacity:1;vector-effect:none;fill:url(#linearGradient1036);fill-opacity:1;stroke:none;stroke-width:0.35714287;stroke-linecap:butt;stroke-linejoin:miter;stroke-miterlimit:4;stroke-dasharray:none;stroke-dashoffset:0;stroke-opacity:1;marker:none;marker-start:none;marker-mid:none;marker-end:none;paint-order:normal;enable-background:new"
             d="M 41,10 C 29.40203,10 20,19.40203 20,31 20,42.59797 29.40203,52 41,52 52.59797,52 62,42.59797 62,31 62,19.40203 52.59797,10 41,10 Z m 0,10 c 2.761424,0 5,2.238576 5,5 0,2.761424 -2.238576,5 -5,5 -2.761424,0 -5,-2.238576 -5,-5 0,-2.761424 2.238576,-5 5,-5 z"
             id="path965" />
          <path
             style="display:inline;opacity:1;vector-effect:none;fill:#77767b;fill-opacity:1;stroke:none;stroke-width:0.49999997;stroke-linecap:butt;stroke-linejoin:miter;stroke-miterlimit:4;stroke-dasharray:none;stroke-dashoffset:0;stroke-opacity:1;marker:none;marker-start:none;marker-mid:none;marker-end:none;paint-order:normal;enable-background:new"
             d="m 182,227 v -39 l -3,-3 h -5 l -8,8 v 2 h 2 l -2,2 v 2 l 4,2 -4,4 v 2 h 2 l -2,2 v 2 l 3,1 -3,3 v 4 h -4 v 0 4 4 z"
             id="path961" />
          <path
             style="display:inline;opacity:1;vector-effect:none;fill:#77767b;fill-opacity:1;stroke:none;stroke-width:0.5;stroke-linecap:butt;stroke-linejoin:miter;stroke-miterlimit:4;stroke-dasharray:none;stroke-dashoffset:0;stroke-opacity:1;marker:none;marker-start:none;marker-mid:none;marker-end:none;paint-order:normal;enable-background:new"
             d="m 177.41305,220.94068 c -1.26987,1.26705 -3.43692,0.35049 -3.41261,-1.44322 L 174,187 l 4.00001,-1e-5 v 32.49747 c 0.007,0.54063 -0.20428,1.06125 -0.58696,1.44322 z"
             id="path963" />
          <path
             id="path1027"
             d="m 182,227 v -39 l -3,-3 h -5 l -8,8 v 2 h 2 l -2,2 v 2 l 4,2 -4,4 v 2 h 2 l -2,2 v 2 l 3,1 -3,3 v 4 h -4 v 0 4 4 z"
             style="display:inline;opacity:1;vector-effect:none;fill:#77767b;fill-opacity:1;stroke:none;stroke-width:0.49999997;stroke-linecap:butt;stroke-linejoin:miter;stroke-miterlimit:4;stroke-dasharray:none;stroke-dashoffset:0;stroke-opacity:1;marker:none;marker-start:none;marker-mid:none;marker-end:none;paint-order:normal;enable-background:new" />
          <path
             id="path1029"
             d="M 41,10 C 29.40203,10 20,19.40203 20,31 20,42.59797 29.40203,52 41,52 52.59797,52 62,42.59797 62,31 62,19.40203 52.59797,10 41,10 Z m 0,10 c 2.761424,0 5,2.238576 5,5 0,2.761424 -2.238576,5 -5,5 -2.761424,0 -5,-2.238576 -5,-5 0,-2.761424 2.238576,-5 5,-5 z"
             style="display:inline;opacity:1;vector-effect:none;fill:url(#linearGradient1298);fill-opacity:1;stroke:none;stroke-width:0.35714287;stroke-linecap:butt;stroke-linejoin:miter;stroke-miterlimit:4;stroke-dasharray:none;stroke-dashoffset:0;stroke-opacity:1;marker:none;marker-start:none;marker-mid:none;marker-end:none;paint-order:normal;enable-background:new"
             transform="rotate(180,107,137.5)" />
        </g>
        <path
           style="display:inline;opacity:1;vector-effect:none;fill:url(#linearGradient1932);fill-opacity:1;stroke:none;stroke-width:0.49999997;stroke-linecap:butt;stroke-linejoin:miter;stroke-miterlimit:4;stroke-dasharray:none;stroke-dashoffset:0;stroke-opacity:1;marker:none;marker-start:none;marker-mid:none;marker-end:none;paint-order:normal;enable-background:new"
           d="m 78,222 v 39 l 3,3 h 5 l 8,-8 -2,-2 2,-2 -4,-4 4,-4 -2,-2 2,-2 -3,-3 3,-3 v -4 h 4 v -2 -2 -4 z"
           id="path1922" />
        <path
           style="display:inline;opacity:1;vector-effect:none;fill:url(#linearGradient1934);fill-opacity:1;stroke:none;stroke-width:0.5;stroke-linecap:butt;stroke-linejoin:miter;stroke-miterlimit:4;stroke-dasharray:none;stroke-dashoffset:0;stroke-opacity:1;marker:none;marker-start:none;marker-mid:none;marker-end:none;paint-order:normal;enable-background:new"
           d="m 82.58695,228.05932 c 1.26987,-1.26705 3.43692,-0.35049 3.41261,1.44322 L 86,264 l -4.00001,10e-6 v -34.49747 c -0.007,-0.54063 0.20428,-1.06125 0.58696,-1.44322 z"
           id="path1924" />
        <path
           style="display:inline;opacity:1;vector-effect:none;fill:#f6f5f4;fill-opacity:1;stroke:none;stroke-width:0.35714287;stroke-linecap:butt;stroke-linejoin:miter;stroke-miterlimit:4;stroke-dasharray:none;stroke-dashoffset:0;stroke-opacity:1;marker:none;marker-start:none;marker-mid:none;marker-end:none;paint-order:normal;enable-background:new"
           d="m 87,184 c -11.59797,0 -21,9.40203 -21,21 0,11.59797 9.40203,21 21,21 11.59797,0 21,-9.40203 21,-21 0,-11.59797 -9.40203,-21 -21,-21 z m 0,10 c 2.76142,0 5,2.23858 5,5 0,2.76142 -2.23858,5 -5,5 -2.76142,0 -5,-2.23858 -5,-5 0,-2.76142 2.23858,-5 5,-5 z"
           id="path1928" />
      </g>
    </g>
  </g>
</svg>
