<svg xmlns="http://www.w3.org/2000/svg" xmlns:xlink="http://www.w3.org/1999/xlink" height="128" width="128"><defs><linearGradient gradientTransform="rotate(-180 107.5 156)" y2="268" x2="198" y1="268" x1="142" gradientUnits="userSpaceOnUse" id="p"><stop offset="0" stop-color="#77767b"/><stop offset=".176" stop-color="#c0bfbc"/><stop offset=".409" stop-color="#77767b"/><stop offset="1" stop-color="#3d3846"/></linearGradient><linearGradient gradientTransform="rotate(-180 107.5 156)" y2="268" x2="198" y1="268" x1="142" gradientUnits="userSpaceOnUse" id="b"><stop offset="0" stop-color="#77767b"/><stop offset=".176" stop-color="#c0bfbc"/><stop offset=".409" stop-color="#77767b"/><stop offset="1" stop-color="#3d3846"/></linearGradient><linearGradient gradientTransform="scale(-1 1) rotate(45 194.844 15.269)" y2="249.878" x2="67.122" y1="238.308" x1="78.692" gradientUnits="userSpaceOnUse" id="c"><stop offset="0" stop-color="#f6f5f4"/><stop offset=".257" stop-color="#fff"/><stop offset=".6" stop-color="#c0bfbc"/><stop offset=".703" stop-color="#f6f5f4"/><stop offset="1" stop-color="#f6f5f4"/></linearGradient><linearGradient gradientTransform="scale(-1 1) rotate(45 -12.163 -69.53)" y2="70.301" x2="85.887" y1="67.68" x1="88.508" gradientUnits="userSpaceOnUse" id="d"><stop offset="0" stop-color="#c0bfbc"/><stop offset="1" stop-color="#f6f5f4"/></linearGradient><linearGradient gradientTransform="scale(-1 1) rotate(45 -12.163 -69.53)" y2="70.301" x2="85.887" y1="67.68" x1="88.508" gradientUnits="userSpaceOnUse" id="r"><stop offset="0" stop-color="#c0bfbc"/><stop offset="1" stop-color="#f6f5f4"/></linearGradient><linearGradient gradientTransform="scale(-1 1) rotate(45 194.844 15.269)" y2="249.878" x2="67.122" y1="238.308" x1="78.692" gradientUnits="userSpaceOnUse" id="q"><stop offset="0" stop-color="#f6f5f4"/><stop offset=".257" stop-color="#fff"/><stop offset=".6" stop-color="#c0bfbc"/><stop offset=".703" stop-color="#f6f5f4"/><stop offset="1" stop-color="#f6f5f4"/></linearGradient><linearGradient gradientTransform="matrix(0 .37 -.98462 0 295.385 -30.36)" y2="235" x2="428" y1="235" x1="300" gradientUnits="userSpaceOnUse" id="j"><stop offset="0" stop-color="#f9f06b"/><stop offset="1" stop-color="#f5c211"/></linearGradient><clipPath id="i"><path d="M0 0h128v128H0z"/></clipPath><clipPath id="k"><path d="M0 0h128v128H0z"/></clipPath><clipPath id="f"><path d="M0 0h128v128H0z"/></clipPath><clipPath id="a"><path d="M0 0h128v128H0z"/></clipPath><g clip-path="url(#k)" id="n"><use mask="url(#l)" xlink:href="#m"/></g><g clip-path="url(#i)" id="m"><path d="M128 80.64V128H0V80.64zm0 0" fill="url(#j)"/><path d="M13.309 80.64L60.664 128H81.88l-47.36-47.36zm42.421 0L103.094 128h21.215L76.945 80.64zm42.43 0L128 110.48V89.27l-8.629-8.63zM0 88.548v21.215L18.238 128h21.215zm0 0"/></g><g clip-path="url(#a)" id="g"><path d="M16 52h96a8 8 0 018 8v48a8 8 0 01-8 8H16a8 8 0 01-8-8V60a8 8 0 018-8zm0 0" fill="#2ec27e"/><path transform="matrix(1 0 0 1.14286 0 -194.857)" d="M27 230v14" fill="none" stroke-width="1.871" stroke="#26a269"/><path transform="matrix(1 0 0 1.14286 0 -194.857)" d="M32 230v14" fill="none" stroke-width="3.742" stroke="#26a269"/><path transform="matrix(1 0 0 1.14286 0 -194.857)" d="M37 230v14M41 230v14" fill="none" stroke-width="1.871" stroke="#26a269"/><path transform="matrix(1 0 0 1.14286 0 -194.857)" d="M46 230v14M56 230v14" fill="none" stroke-width="3.742" stroke="#26a269"/><path transform="matrix(1 0 0 1.14286 0 -194.857)" d="M51 230v14" fill="none" stroke-width="1.871" stroke="#26a269"/><path transform="matrix(1 0 0 1.14286 0 -194.857)" d="M63 230v14" fill="none" stroke-width="5.612" stroke="#26a269"/><path transform="matrix(1 0 0 1.14286 0 -194.857)" d="M69 230v14M73 230v14M77 230v14" fill="none" stroke-width="1.871" stroke="#26a269"/><path transform="matrix(1 0 0 1.14286 0 -194.857)" d="M82 230v14" fill="none" stroke-width="3.742" stroke="#26a269"/><path transform="matrix(1 0 0 1.14286 0 -194.857)" d="M87 230v14M99 230v14" fill="none" stroke-width="1.871" stroke="#26a269"/><path transform="matrix(1 0 0 1.14286 0 -194.857)" d="M93 230v14" fill="none" stroke-width="5.612" stroke="#26a269"/><path transform="matrix(1 0 0 1.14286 0 -194.857)" d="M103 230v14M107 230v14" fill="none" stroke-width="1.871" stroke="#26a269"/><path d="M22.215 94l1.2 5.07-3.903-3.28-1.453 2.593 5.011 1.656-5.043 1.59 1.434 2.64 3.953-3.304-1.2 5.035h3.411l-1.102-4.957 3.836 3.312 1.477-2.617-4.98-1.687 5.117-1.426-1.453-2.617-4.032 3.082L25.625 94zm0 0M38.215 94l1.2 5.07-3.903-3.28-1.453 2.593 5.011 1.656-5.043 1.59 1.434 2.64 3.953-3.304-1.2 5.035h3.411l-1.102-4.957 3.836 3.312 1.477-2.617-4.98-1.687 5.117-1.426-1.453-2.617-4.032 3.082L41.625 94zm0 0M54.215 94l1.2 5.07-3.903-3.28-1.453 2.593 5.011 1.656-5.043 1.59 1.434 2.64 3.953-3.304-1.2 5.035h3.411l-1.102-4.957 3.836 3.312 1.477-2.617-4.98-1.687 5.117-1.426-1.453-2.617-4.032 3.082L57.625 94zm0 0M70.215 94l1.2 5.07-3.903-3.28-1.453 2.593 5.011 1.656-5.043 1.59 1.434 2.64 3.953-3.304-1.2 5.035h3.411l-1.102-4.957 3.836 3.312 1.477-2.617-4.98-1.687 5.117-1.426-1.453-2.617-4.032 3.082L73.625 94zm0 0M86.215 94l1.2 5.07-3.903-3.28-1.453 2.593 5.011 1.656-5.043 1.59 1.434 2.64 3.953-3.304-1.2 5.035h3.411l-1.102-4.957 3.836 3.312 1.477-2.617-4.98-1.687 5.117-1.426-1.453-2.617-4.032 3.082L89.625 94zm0 0M102.215 94l1.2 5.07-3.903-3.28-1.453 2.593 5.011 1.656-5.043 1.59 1.434 2.64 3.953-3.304-1.2 5.035h3.411l-1.102-4.957 3.836 3.312 1.477-2.617-4.98-1.687 5.117-1.426-1.453-2.617-4.032 3.082 1.137-5.09zm0 0" fill="#8ff0a4"/><path d="M16 28h96a8 8 0 018 8v24a8 8 0 01-8 8H16a8 8 0 01-8-8V36a8 8 0 018-8zm0 0" fill="#2ec27e"/><path d="M8 42h112v18H8zm0 0" fill="#241f31"/><path d="M22 70l-7.2 6 7.2 6zm0 0" fill-rule="evenodd" fill="#26a269"/><path d="M45 16c15.465 0 28 12.535 28 28S60.465 72 45 72 17 59.465 17 44s12.535-28 28-28zm-.031 12c-3.332 0-6.032 2.688-6.032 6 0 3.313 2.7 6 6.032 6S51 37.312 51 34c0-3.313-2.7-6-6.031-6zm0 0" fill="url(#b)"/><path d="M34 68h24v11.832L53 80v6l-2 2 2 2v3l-3 3 3 3-2 2 2 2-4 4 4 4-2 2 2 2-9 9h-7l-3-3zm0 0" fill="#77767b"/><path d="M34 66h24v11.832L53 78v6l-2 2 2 2v3l-3 3 3 3-2 2 2 2-4 4 4 4-2 2 2 2-9 9h-7l-3-3zm0 0" fill="url(#c)"/><path d="M38.586 73.059c1.27-1.266 3.437-.352 3.414 1.445V122h-4V74.504a2 2 0 01.586-1.445zm0 0" fill="url(#d)"/><path d="M45 14c-15.465 0-28 12.535-28 28s12.535 28 28 28 28-12.535 28-28-12.535-28-28-28zm.031 12c3.332 0 6.032 2.688 6.032 6 0 3.313-2.7 6-6.032 6S39 35.312 39 32c0-3.313 2.7-6 6.031-6zm0 0" fill="#f6f5f4"/></g><g filter="url(#e)" clip-path="url(#f)" id="h"><use xlink:href="#g"/></g><mask id="l"><g filter="url(#e)"><path fill-opacity=".8" d="M0 0h128v128H0z"/></g></mask><mask id="o"><use xlink:href="#h"/></mask><filter height="100%" width="100%" y="0%" x="0%" filterUnits="objectBoundingBox" id="e"><feColorMatrix values="0 0 0 0 1 0 0 0 0 1 0 0 0 0 1 0 0 0 1 0" in="SourceGraphic"/></filter></defs><path d="M16 52h96a8 8 0 018 8v48a8 8 0 01-8 8H16a8 8 0 01-8-8V60a8 8 0 018-8zm0 0" fill="#2ec27d"/><path d="M27 68v16" fill="none" stroke="#23a168" stroke-width="2"/><path d="M32 68v16" fill="none" stroke="#23a168" stroke-width="4"/><path d="M63 68v16" fill="none" stroke="#23a168" stroke-width="6"/><path d="M37 68v16M69 68v16M41 68v16M73 68v16" fill="none" stroke="#23a168" stroke-width="2"/><path d="M46 68v16" fill="none" stroke="#23a168" stroke-width="4"/><path d="M77 68v16" fill="none" stroke="#23a168" stroke-width="2"/><path d="M82 68v16" fill="none" stroke="#23a168" stroke-width="4"/><path d="M87 68v16M99 68v16" fill="none" stroke="#23a168" stroke-width="2"/><path d="M93 68v16" fill="none" stroke="#23a168" stroke-width="6"/><path d="M103 68v16M107 68v16" fill="none" stroke="#23a168" stroke-width="2"/><path d="M22.215 94l1.2 5.07-3.903-3.28-1.453 2.593 5.011 1.656-5.043 1.59 1.434 2.64 3.953-3.304-1.2 5.035h3.411l-1.102-4.957 3.836 3.312 1.477-2.617-4.98-1.687 5.117-1.426-1.453-2.617-4.032 3.082L25.625 94zm0 0" fill="#8ff0a3"/><path d="M56 68v16" fill="none" stroke="#23a168" stroke-width="4"/><path d="M54.215 94l1.2 5.07-3.903-3.28-1.453 2.593 5.011 1.656-5.043 1.59 1.434 2.64 3.953-3.304-1.2 5.035h3.411l-1.102-4.957 3.836 3.312 1.477-2.617-4.98-1.687 5.117-1.426-1.453-2.617-4.032 3.082L57.625 94zm0 0" fill="#8ff0a3"/><path d="M51 68v16" fill="none" stroke="#23a168" stroke-width="2"/><path d="M70.215 94l1.2 5.07-3.903-3.28-1.453 2.593 5.011 1.656-5.043 1.59 1.434 2.64 3.953-3.304-1.2 5.035h3.411l-1.102-4.957 3.836 3.312 1.477-2.617-4.98-1.687 5.117-1.426-1.453-2.617-4.032 3.082L73.625 94zm0 0M86.215 94l1.2 5.07-3.903-3.28-1.453 2.593 5.011 1.656-5.043 1.59 1.434 2.64 3.953-3.304-1.2 5.035h3.411l-1.102-4.957 3.836 3.312 1.477-2.617-4.98-1.687 5.117-1.426-1.453-2.617-4.032 3.082L89.625 94zm0 0M102.215 94l1.2 5.07-3.903-3.28-1.453 2.593 5.011 1.656-5.043 1.59 1.434 2.64 3.953-3.304-1.2 5.035h3.411l-1.102-4.957 3.836 3.312 1.477-2.617-4.98-1.687 5.117-1.426-1.453-2.617-4.032 3.082 1.137-5.09zm0 0" fill="#8ff0a3"/><path d="M16 28h96a8 8 0 018 8v24a8 8 0 01-8 8H16a8 8 0 01-8-8V36a8 8 0 018-8zm0 0" fill="#2ec27d"/><path d="M8 42h112v18H8zm0 0" fill="#231e30"/><path d="M22 70l-7.2 6 7.2 6zm0 0" fill="#23a168" fill-rule="evenodd"/><path d="M38.215 94l1.2 5.07-3.903-3.28-1.453 2.593 5.011 1.656-5.043 1.59 1.434 2.64 3.953-3.304-1.2 5.035h3.411l-1.102-4.957 3.836 3.312 1.477-2.617-4.98-1.687 5.117-1.426-1.453-2.617-4.032 3.082L41.625 94zm0 0" fill="#8ff0a3"/><use xlink:href="#n" mask="url(#o)" width="100%" height="100%"/><path d="M45 16c15.465 0 28 12.535 28 28S60.465 72 45 72 17 59.465 17 44s12.535-28 28-28zm-.031 12c-3.332 0-6.032 2.688-6.032 6 0 3.313 2.7 6 6.032 6S51 37.312 51 34c0-3.313-2.7-6-6.031-6zm0 0" fill="url(#p)"/><path d="M34 68h24v11.832L53 80v6l-2 2 2 2v3l-3 3 3 3-2 2 2 2-4 4 4 4-2 2 2 2-9 9h-7l-3-3zm0 0" fill="#75757a"/><path d="M34 66h24v11.832L53 78v6l-2 2 2 2v3l-3 3 3 3-2 2 2 2-4 4 4 4-2 2 2 2-9 9h-7l-3-3zm0 0" fill="url(#q)"/><path d="M38.586 73.059c1.27-1.266 3.437-.352 3.414 1.445V122h-4V74.504a2 2 0 01.586-1.445zm0 0" fill="url(#r)"/><path d="M45 14c-15.465 0-28 12.535-28 28s12.535 28 28 28 28-12.535 28-28-12.535-28-28-28zm.031 12c3.332 0 6.032 2.688 6.032 6 0 3.313-2.7 6-6.032 6S39 35.312 39 32c0-3.313 2.7-6 6.031-6zm0 0" fill="#f5f5f3"/></svg>